/* XPM */
static char *_251710889590[] = {
/* columns rows colors chars-per-pixel */
"50 50 52 1 ",
"  c #3B342A",
". c #3F382E",
"X c #40392F",
"o c #443C33",
"O c #474036",
"+ c #484137",
"@ c #4B443B",
"# c #4F483F",
"$ c #50483F",
"% c #544C43",
"& c #575047",
"* c #585147",
"= c #5C544B",
"- c #5F584E",
"; c #60584F",
": c #645C53",
"> c #685F57",
", c #686057",
"< c #6C635B",
"1 c #70675E",
"2 c #71685F",
"3 c #746B63",
"4 c #786F66",
"5 c #787067",
"6 c #7C736B",
"7 c #80776E",
"8 c #81786F",
"9 c #807770",
"0 c #847B72",
"q c #887F76",
"w c #898077",
"e c #8D837A",
"r c #90877E",
"t c #92887F",
"y c #958B82",
"u c #998F85",
"i c #9A9087",
"p c #9D938A",
"a c #A1968D",
"s c #A3988F",
"d c #A69C92",
"f c #A99E94",
"g c #ACA097",
"h c #AEA298",
"j c #B2A59C",
"k c #B5A99E",
"l c #B7AAA0",
"z c #BAACA2",
"x c #BEB1A7",
"c c #C3B4AA",
"v c #CDBDB3",
"b c #D6C6BB",
/* pixels */
"upi<qpppppuuuuuaiie:zfdddfdfddpp=pxddddsdfddadddpp",
"upy>yppppupuuuiuuyt+adaiaapapfpp&xdddpapiapppfappp",
"upq:puiuiiiiuyr031= X=300ryeyiiy%xfddiappasfgpippp",
"r9>%9wye6>>%oo1qyyuu0tr0631;:;=o&hffappppppppiaiyp",
">%o@#*:>>33<o&slfjjjjjjjlljjhsy%o5qse6600099999413",
"yudfdfdfupii6%dfjjjfjjjfffdfhhp:>@=&O&&%%%#%. =4ti",
"ippappipppiuy%3saaaaapppppaaiy9%6yyippiepiii%3sssp",
"upfppppasiuuue&0fspurrppuq6<=-ooypppppppppyyOyppip",
"ippiaipduuyuuy<%&<2<<39euqeuipe%eapypppiuuuq=qyapp",
"iiiuiuipyyyq3::=.yxzzzhdddddfpf>0pyyyypuuyyp<eippp",
"uyiuiuye6<<3eisi*fdpffddsjjfdfp1.@%=%@6yyyue>>iuii",
"iaau03=4wyuuipup3dfffffddddfaapy:yda6%---<=..6auap",
"6<:>5yyipuuipppi3gddfdddsappppui:jjjjhjjhau1%0ljds",
">9ruyyiippyippy<#kdppppaafhfspu6%fjjjjjhhjjj0>6<--",
"yuippppupuuuiue#ouxchayq6=&;=@%%oyhfhajjjfede.=6et",
"psapipiiyyuywq>&* &@&:161.yddaiu6>ipppiaapuy3-0yyy",
":>1&@;*:;;;;;:<8ydfrsjlhj73fiuiiy%3pssp69q0<++%@==",
"0eqq: 7jjlklzkjjjjjjjjjjjs=uiyry6oO>>:-OO%9yiap3uy",
"apair=kyjjjjjjdjjfljsjujjs@33%=3quyapaqy&4ppppiupp",
"riait1ljjjjjjjpdsaaasdaddi>X<yiiiiyppppp3>pppppppp",
"yuuy37hjljjhdppppppppppppp4:siayippppppp53ppiyuiuu",
"uuuu1&3jdaddappippppadspy4%opppiipipppuy4-pppppyuu",
"e81:%o#4eay08rppppay9993% 3%5aiiuuiyeee6: o&35qyyy",
"##tfczu3%Xoo@&:<:%o Xo.o%o%%%:>;%%Oo.%O=::&-:-===&",
"8=jadjfdjhy0446> 3pyppyupsdddsiseue6Ospajjjjjjsuud",
">*cfdhfdffddddsqolappuiaapuppppppipi=pjjhjjjjajgjf",
"r@kdkfdddddfdda1osauapudppppyypppipi-pljjjdfjjhdfd",
"r#zsdsssaapaaiuqXfspdpiiyiuuyypuuuuu-fjdjadaaapppp",
"6@ihippiapppppu0 pppiuuuyiauuupuyyueoqjddpppuupyqy",
".>%5uejjhfq>4>;%o;aspuaaaqqpy0qipe6: .@%>9q9y66<.%",
"<<=o@@+@oo%:3akjf3:4hdq6:=&>% .o%%>0pae=&o .=-::=<",
"uppqyueq7@hljjhjhff1;:3e9uap3;afqdjjfjdpjq.=aapiup",
"ipppwpuuy%ijffdfgjjp:apippay:dhjsjljjfjjf=&ypppppp",
"uyppidppy:ujfappgsp63yq5663%sjjjssdghffd6.5upippuy",
"yuyupuipa26py146<-%%%-366<.%jjjpapiapyiy%<pyyuyuyy",
"uuuiiuuuu4 @&309wypppappay:.wjgpaapippy-.qaiyiiyyy",
"eipuuyuuy33suppapupppuyuuy5.aapggfpy53&  &11<26yyy",
"*=*>4>wey33daiuyuiuyuuyuyue&663-=%O@%=13>%  %&-===",
"pi-@;:1;%%&33-333256533322-O..&<:ysssfsppu><apaapp",
"ipq:dipduyye65:=-wyew02665<@%agpspaiipapyp1=ppiiiu",
"tpi:siuuuiuappyorpuappppiup5O6sppppppppppi<>upupyy",
"tey2eppuiuuiiuy%ypipppuppuy6.6dppppppdpuyq.%&<36yy",
"**@@o$#360yreyq@<ppppppppiuy==siuuppiuuuq=6dpy4<%%",
"ujjads4=39533>o epyuiyuuuupp6.ygyuuppfaq3&fhfhhgd%",
"ufdsppy6apiuuu3 6iiupippppuyyO&50dpy3>-%..1346qyy=",
"**::13*.:<<:>=@o&:<<131136653 %O%o%6y63<<<<=>>::>:",
"yqu>o6euwypappyuy6&.6pye6&,-&@%,3 6xhjxvxlhghhhgfs",
"pfdq6puppippppppppw=jsggfadfdda3 >scldffhhhffdffff",
"affweppppapyepppppy%hhddddfdsfdd&0bjfddffidfxdsffs",
"ipe:ippppspppppippy>hhfddglggaap=1vfdpddfhjxgdsusp"
};
