/* XPM */
static char *result[] = {
/* columns rows colors chars-per-pixel */
"50 50 212 2 ",
"   c #000000",
".  c #050B01",
"X  c #0A0C05",
"o  c #0B0B0B",
"O  c #070206",
"+  c #150204",
"@  c #0F1509",
"#  c #10120B",
"$  c #0A0115",
"%  c #060817",
"&  c #120C1C",
"*  c #110E16",
"=  c #021112",
"-  c #141413",
";  c #1E1E1D",
":  c #181818",
">  c #201A19",
",  c #350000",
"<  c #1C2418",
"1  c #13260C",
"2  c #22231D",
"3  c #292E1E",
"4  c #0E0424",
"5  c #1B0A23",
"6  c #1E1225",
"7  c #1E1C22",
"8  c #1A1130",
"9  c #200D2B",
"0  c #261A24",
"q  c #260B34",
"w  c #281934",
"e  c #182727",
"r  c #222323",
"t  c #272928",
"y  c #2B3323",
"u  c #343A2E",
"i  c #2B2536",
"p  c #2E3838",
"a  c #323233",
"s  c #3B3B3C",
"d  c #3A3A37",
"f  c #302A38",
"g  c #4B0000",
"h  c #5D2F27",
"j  c #6C2A2E",
"k  c #3D4334",
"l  c #274135",
"z  c #414C3B",
"x  c #3E1556",
"c  c #301345",
"v  c #332845",
"b  c #3F3652",
"n  c #322A4B",
"m  c #43125C",
"M  c #442657",
"N  c #43355B",
"B  c #501867",
"V  c #472B66",
"C  c #502967",
"Z  c #4C3569",
"A  c #5A377C",
"S  c #52326E",
"D  c #63377A",
"F  c #3C4545",
"G  c #454545",
"H  c #4A4A4B",
"J  c #4C5547",
"K  c #4C4357",
"L  c #5B5C5C",
"P  c #575856",
"I  c #576151",
"U  c #656A57",
"Y  c #544A65",
"T  c #575366",
"R  c #5A4E78",
"E  c #635971",
"W  c #676565",
"Q  c #677261",
"!  c #6B637B",
"~  c #737373",
"^  c #7D7C7E",
"/  c #6E7073",
"(  c #970000",
")  c #AA0001",
"_  c #B00A0C",
"`  c #C70000",
"'  c #FC6064",
"]  c #8B917D",
"[  c #742789",
"{  c #7C3D99",
"}  c #693287",
"|  c #594682",
" . c #68498C",
".. c #635484",
"X. c #6D5796",
"o. c #764194",
"O. c #75668C",
"+. c #6D6495",
"@. c #746B9A",
"#. c #7B62A2",
"$. c #82429E",
"%. c #8A7C9A",
"&. c #877B94",
"*. c #82758E",
"=. c #8547A4",
"-. c #8C4DAD",
";. c #8549A3",
":. c #8D53AE",
">. c #8F48B2",
",. c #934BB7",
"<. c #9354B6",
"1. c #9657BB",
"2. c #8F51B0",
"3. c #8368AC",
"4. c #8575AE",
"5. c #826DB5",
"6. c #9566BC",
"7. c #8A76B7",
"8. c #9D59C2",
"9. c #A15CC6",
"0. c #A45ECA",
"q. c #9A6EC3",
"w. c #9C7BD2",
"e. c #A563CE",
"r. c #A17CCF",
"t. c #A37CD2",
"y. c #AD79DC",
"u. c #AB69D7",
"i. c #BA6AE6",
"p. c #D077FF",
"a. c #788887",
"s. c #789398",
"d. c #898987",
"f. c #959A8B",
"g. c #989898",
"h. c #93869F",
"j. c #9BA196",
"k. c #96A18F",
"l. c #9385AA",
"z. c #8989A8",
"x. c #9AAEAF",
"c. c #BFBFBF",
"v. c #B4B4B4",
"b. c #A7A7A7",
"n. c #BBC2B4",
"m. c #ABC0BC",
"M. c #C3C9BE",
"N. c #9D87CF",
"B. c #9E88D5",
"V. c #A583D4",
"C. c #A58ADC",
"Z. c #A98BDA",
"A. c #AB92DD",
"S. c #A393DB",
"D. c #A68FCD",
"F. c #BAA7D8",
"G. c #B58AE9",
"H. c #AC95E5",
"J. c #AE98E5",
"K. c #AD96E8",
"L. c #AD9AEB",
"P. c #B19BE7",
"I. c #B29CEA",
"U. c #B391E6",
"Y. c #BA90F1",
"T. c #B5A2EC",
"R. c #BCA4EB",
"E. c #BDA8E7",
"W. c #B5A4F1",
"Q. c #BBA3F4",
"!. c #B9ABF4",
"~. c #BDA6F9",
"^. c #B7A9F1",
"/. c #BEB3FC",
"(. c #C2B2D9",
"). c #C199F7",
"_. c #C382F5",
"`. c #C2AEE8",
"'. c #C3AFE0",
"]. c #C8B6E7",
"[. c #C4ABFD",
"{. c #C8AFFF",
"}. c #C7A7FF",
"|. c #CCB3FF",
" X c #C7B5FA",
".X c #D2B5FF",
"XX c #D6BCFD",
"oX c #BCD4D7",
"OX c #AFC5C9",
"+X c #C4C5C5",
"@X c #CACACA",
"#X c #C8C8C4",
"$X c #DADBD8",
"%X c #CFD7CF",
"&X c #DAE2DD",
"*X c #D8C3FA",
"=X c #D4C1ED",
"-X c #E7CEFE",
";X c #E5D2FD",
":X c #E6D5F9",
">X c #F2DCFF",
",X c #F7D9FF",
"<X c #D1E2E5",
"1X c #E6E6E6",
"2X c #E9EDEA",
"3X c #FBE4FF",
"4X c #FFECFF",
"5X c #EAF1F2",
"6X c #FFFFFF",
"7X c #F7F9FB",
"8X c #EEF4EF",
"9X c None",
/* pixels */
"9X9X9X9X9X9X9X9X9X9X9X9X9X9X9X9X9X9X9X9X9X9X9X9X9X9X9X9X9X9X9X9X9X9X9X9X9X9X9X9X9X9X9X9X9X9X9X9X9X9X",
"9X9X9X9X9X9X9X9X9X9X9X9X9X9X9X9X9X9X9X9X9X9X9X9X9X9X9X9X9X9X9X9X9X9X9X9X9X9X9X9X9X9X9X9X9X9X9X9X9X9X",
"9X9X9X9X9X9X9X9X9X9X9X9X9X9X9X9X9X9X9X9X9X9X9X9X9X9X9X9X9X9X9X9X9X9X9X9X9X9X9X9X9X9X9X9X9X9X9X9X9X9X",
"9X9X9X9X9X9X9X9X9X9X9X9X9X9X9X9X9X9X9X9X9X9X9X9X9X9X9X9X9X9X9X9X9X9X9X9X9X9X9X9X9X9X9X9X9X9X9X9X9X9X",
"9X9X9X9X9X9X9X9X9X9X9X9X9X9X9X9X9X9X9X9X9X9X9X9X9X9X9X9X9X9X9X9X9X9X9X9X9X9X9X9X9X9X9X9X9X9X9X9X9X9X",
"9X9X9X9X9X9X9X9X9X9X9X9X9X9X9X9X9X9X9X9X9X9X9X9X9X9X9X9X9X9X9X9X9X9X9X9X9X9X9X9X9X9X9X9X9X9X9X9X9X9X",
"9X9X9X9X9X9X9X9X9X9X9X9X9X9X9X9X9X9X9X9X9X9X9X9X9X9X9X9X9X9X9X9X9X9X9X9X9X9X9X9X9X9X9X9X9X9X9X9X9X9X",
"9X9X9X9X9X9X9X9X9X9X9X9X9X9X9X9X9X9X9X9X9X9X9X9X9X9X9X9X9X9X9X9X9X9X9X9X9X9X9X9X9X9X9X9X9X9X9X9X9X9X",
"9X9X9X9X9X9X9X9X9X9X9X9X9X9X9X9X9X9X9X9X9X9X9X9X9X9X9X9X9X9X9X9X9X9X9X9X9X9X9X9X9X9X9X9X9X9X9X9X9X9X",
"9X9X9X9X9X9X9X9X9X9X9X9X9X9X9X9X9X9X9X9X  a 9X9X9X9X9X9X9X9X9X9X9X9X9X9X9X9X9X9X9X9X9X9X9X9X9X9X9X9X",
"9X9X9X9X9X9X9X9X9X9X9X9X9X9X9X9X9X9X9Xs & 9X9X9XG 9X9X9X9X9X9X9X9X9X9X9X9X9X9X9X9X9X9X9X9X9X9X9X9X9X",
"9X9X9X9X9X9X9X9X9X9X9X9X9X9X9X9X9X9X9XY O.9X9X  G 9X9X9X9X9X9X9X9X9X9X9X9X9X9X9X9X9X9X9X9X9X9X9X9X9X",
"9X9X9X9X9X9X9X9X9X9X9X9X9X9X9X9Xa   # l.'.X s Y 9X9X9X9X9X9X9X9X9X9X9X9X9X9X9X9X9X9X9X9X9X9X9X9X9X9X",
"9X9X9X9X9X9X9X9X9X9X9X9X9X9X9X9XT l.O T 6X# O.F.9X9X9X9X9X9X9X9X9X9X9X9X9X9X9X9X9X9X9X9X9X9X9X9X9X9X",
"9X9X9X9X9X9X9X9X9X9X9X9X9X9X9X< : ;X].l.:XF.].XXi 2 9X9X9X9X9X9X9X9X9X9X9X9X9X9X9X9X9X9X9X9X9X9X9X9X",
"9X9X9X9X9X9X9X9X9X9X9X9X9X- i ! &.(.>X:X].:X=X;Xh.! K r > 9X9X9X9X9X9X9X9X9X9X9X9X9X9X9X9X9X9X9X9X9X",
"9X9X9X9X9X9X9X9X9X9X9Xa   l.3X7X>X X`.E.E.`.].].;X3X3X=X%.f X 9X9X9X9X9X9X9X9X9X9X9X9X9X9X9X9X9X9X9X",
"9X9X9X9X9X9X9X9X9Xa # : -X4X7.|  .w.}.^.H.J.P.P.T.E.`.=X3X>Xh.* t 9X9X9X9X9X9X9X9X9X9X9X9X9X9X9X9X9X",
"9X9X9X9X9X9X9XO / d   ,X`.4 7 d t O M ).~.I.P.J.H.K.H.I.E.].3X;XK   9X9X9X9X9X9X9X9X9X9X9X9X9X9X9X9X",
"9X9X9X9X9X9X  d.6X# D.`.  ~ 6X6X6Xn.X q ).^.J.I.P.P.P.K.H.T.T. X4X*.  9X9X9X9X9X9X9X9X9X9X9X9X9X9X9X",
"9X9X9X9X9X9Xd 6Xk c 3X4 U 6X5X7X6X6X2X  D Q.T.I.J.T.^.^.H.r.C.K.I.3X%.  9X9X9X9X9X9X9X9X9X9X9X9X9X9X",
"9X9X9X9X9X- +Xv.  Q.B.; <Xx.OX<X8X6X6XQ & i.!.^.T.A.Z.P.A.=.r.!.K.K.,XY X 9X9X9X9X9X9X9X9X9X9X9X9X9X",
"9X9X9X9X9Xt <Xl n ,XX.d oXe W s.5X6X6Xk.$ y.I.V.T.N.[ <././.V.=.A.T.L.*X$ 9X9X9X9X9X9X9X9X9X9X9X9X9X",
"9X9X9X9X9X> x.r #.*X7.2 %X/ = s.7X6X6XQ $ G.w.[ q.I.r.V.6.C.I.r.H.T.I..XX.# 9X9X9X9X9X9X9X9X9X9X9X9X",
"9X9X9X9X9XG 2 b K.~.{.& U 7XoX2X6X6X1X. B G.I.N.A.T.!.Q.u.w./.U.,.y.{.W.[.5 9X9X9X9X9X9X9X9X9X9X9X9X",
"9X9X9X9X9X9X  f |.P..X3.  k.6X6X6X&X1 $ e.I.T.!.I.P.I.T.+.T T N q A 5.C.;XZ k 9X9X9X9X9X9X9X9X9X9X9X",
"9X9X9X9X9X9X3 b ,X{.~.XXX.  a I J # 4 >.U.T.I.~.T.P.|...U %X$X%Xn.j.^ ! O.n o 9X9X9X9X9X9X9X9X9X9X9X",
"9X9X9X9X9X9X9X% R 4.A.~.-XY.A x m o.p..X*XXX{.A.A.I.|.Z f.6X6X6X6X6X6X8X#Xf.G 9X9X9X9X9X9X9X9X9X9X9X",
"9X9X9X9X9X9X9X9Xu . o & n E .. .3.#.+.@...N i - 4.{.[.5.h 6X6X6X6X6X6X6X6X6X1Xd.P 9X9X9X9X9X9X9X9X9X",
"9X9X9X9X9X9X9X9X9X9X: d.y   # @     .     X :   4. XP.|.8 a.6X6X6X6X6X7X$X+X+X@X~ r 9X9X9X9X9X9X9X9X",
"9X9X9X9X9X9X9X9X9X9X; $XP s 6X@X: ~ 2XW a 7X#XX 3.{.P.[.N.  n.6X6X6X6X6X6X6X6X6X6Xv.H 9X9X9X9X9X9X9X",
"9X9X9X9X9X9X9X9X9X9X      o d.W . z F.a   g.P   N.[.P.J..X5.  f.6X6X6X6X6X1X+Xv.c.6X6X^ 9X9X9X9X9X9X",
"9X9X9X9X9X9X9X9X9X7                           : Q.W.I.P.H.*XS.w J M.6X6X7X6X8X@Xg./ ^ +X~ 9X9X9X9X9X",
"9X9X9X9X9X9X9X9X< 4 <.C 6                     b |.I.T.^.W.H.U.e.m 9 G a.5X7X6X6X6X6Xj.W a 9X9X9X9X9X",
"9X9X9X9X9X9X9X9X9X  ,.i.1.D 5                 l.*XR.P.C.q.-.{ -.p.V   0 e s.5X6X6X6X6X6XL 9X9X9X9X9X",
"9X9X9X9X9X9X9X9X9Xz   0.9.8.<.D w           N Y.w.6.:.$.=.-.<.;.n % h 6X_ , > L 1X6X6X6X6Xs 9X9X9X9X",
"9X9X9X9X9X9X9X9X9X9Xy % 2.0.<.9.1.{ M w w C 8.-.{ $.=.-.o.<.u.}     j ' ` (   ; : g.6X6X6XP 9X9X9X9X",
"9X9X9X9X9X9X9X9X9X9X9Xu   C <.0.9.0.0.1.1.9.2.-.<.<.8.i.Z = n +       ) (     7X@X  W 6X1XH 9X9X9X9X",
"9X9X9X9X9X9X9X9X9X9X9X9X9X< 5 c S { 2.1.9.8.1.<.=.} D Z % + g + O 9Xe O   p t d.6Xs   $Xb.9X9X9X9X9X",
"9X9X9X9X9X9X9X9X9X9X9X9X9X9X9Xk t : 9 9 9 q 9 9 6 0   + ( _ g o 9X9X9X= e 9X9Xr s 9X9X- ~ 9X9X9X9X9X",
"9X9X9X9X9X9X9X9X9X9X9X9X9X9X9X9X9X9X9X9X9X9X9X9X9X9X9X  ) ,   9X9X9X9X9X9X9X9Xt 9X9X9X: 9X9X9X9X9X9X",
"9X9X9X9X9X9X9X9X9X9X9X9X9X9X9X9X9X9X9X9X9X9X9X9X9X9X9Xa O   9X9X9X9X9X9X9X9X9X9X9X9X9X9X9X9X9X9X9X9X",
"9X9X9X9X9X9X9X9X9X9X9X9X9X9X9X9X9X9X9X9X9X9X9X9X9X9X9X9XF 9X9X9X9X9X9X9X9X9X9X9X9X9X9X9X9X9X9X9X9X9X",
"9X9X9X9X9X9X9X9X9X9X9X9X9X9X9X9X9X9X9X9X9X9X9X9X9X9X9X9X9X9X9X9X9X9X9X9X9X9X9X9X9X9X9X9X9X9X9X9X9X9X",
"9X9X9X9X9X9X9X9X9X9X9X9X9X9X9X9X9X9X9X9X9X9X9X9X9X9X9X9X9X9X9X9X9X9X9X9X9X9X9X9X9X9X9X9X9X9X9X9X9X9X",
"9X9X9X9X9X9X9X9X9X9X9X9X9X9X9X9X9X9X9X9X9X9X9X9X9X9X9X9X9X9X9X9X9X9X9X9X9X9X9X9X9X9X9X9X9X9X9X9X9X9X",
"9X9X9X9X9X9X9X9X9X9X9X9X9X9X9X9X9X9X9X9X9X9X9X9X9X9X9X9X9X9X9X9X9X9X9X9X9X9X9X9X9X9X9X9X9X9X9X9X9X9X",
"9X9X9X9X9X9X9X9X9X9X9X9X9X9X9X9X9X9X9X9X9X9X9X9X9X9X9X9X9X9X9X9X9X9X9X9X9X9X9X9X9X9X9X9X9X9X9X9X9X9X",
"9X9X9X9X9X9X9X9X9X9X9X9X9X9X9X9X9X9X9X9X9X9X9X9X9X9X9X9X9X9X9X9X9X9X9X9X9X9X9X9X9X9X9X9X9X9X9X9X9X9X",
"9X9X9X9X9X9X9X9X9X9X9X9X9X9X9X9X9X9X9X9X9X9X9X9X9X9X9X9X9X9X9X9X9X9X9X9X9X9X9X9X9X9X9X9X9X9X9X9X9X9X"
};
