/* XPM */
static char *result[] = {
/* columns rows colors chars-per-pixel */
"50 50 213 2 ",
"   c #000000",
".  c #040802",
"X  c #05030A",
"o  c #0C0C0C",
"O  c #090705",
"+  c #180506",
"@  c #0D1304",
"#  c #11160A",
"$  c #080517",
"%  c #12091A",
"&  c #051718",
"*  c #131312",
"=  c #1D1C1B",
"-  c #171719",
";  c #260000",
":  c #3D0000",
">  c #231F1E",
",  c #1F2518",
"<  c #0E2006",
"1  c #22251D",
"2  c #070622",
"3  c #1E0B27",
"4  c #1E1226",
"5  c #1E1B24",
"6  c #211A27",
"7  c #240A30",
"8  c #2B1B37",
"9  c #210C2D",
"0  c #1C2728",
"q  c #1C3435",
"w  c #2E2F2D",
"e  c #262827",
"r  c #2D3325",
"t  c #34372B",
"y  c #2F2B38",
"u  c #283A36",
"i  c #3C3D35",
"p  c #3A3B3B",
"a  c #363538",
"s  c #322E37",
"d  c #540100",
"f  c #420E0D",
"g  c #750000",
"h  c #680000",
"j  c #571D20",
"k  c #403D3D",
"l  c #3F4337",
"z  c #444F3E",
"x  c #2F1848",
"c  c #3F1E56",
"v  c #2B2243",
"b  c #38274D",
"n  c #3C3743",
"m  c #3E3259",
"M  c #35285B",
"N  c #43195D",
"B  c #492C5E",
"V  c #423854",
"C  c #403F41",
"Z  c #531B6A",
"A  c #4C2862",
"S  c #56326B",
"D  c #542E71",
"F  c #63347B",
"G  c #374242",
"H  c #464546",
"J  c #494949",
"K  c #4B5443",
"L  c #515947",
"P  c #534C5D",
"I  c #545454",
"U  c #585E5D",
"Y  c #5B6151",
"T  c #6D685D",
"R  c #54486A",
"E  c #5C536B",
"W  c #5D5A61",
"Q  c #5B5178",
"!  c #53417B",
"~  c #655D76",
"^  c #605E63",
"/  c #6C6C6D",
"(  c gray38",
")  c #677361",
"_  c #747374",
"`  c #77757A",
"'  c #797476",
"]  c #960000",
"[  c #92080E",
"{  c #AA0000",
"}  c #A40000",
"|  c #BE0000",
" . c #C90406",
".. c #C30D11",
"X. c #FF1D27",
"o. c #FF2732",
"O. c #FF222B",
"+. c #F11218",
"@. c #D83F42",
"#. c #F4575C",
"$. c #FF5761",
"%. c #7E8078",
"&. c #732688",
"*. c #673885",
"=. c #7B3D98",
"-. c #5D4982",
";. c #5E5088",
":. c #615486",
">. c #6A5C93",
",. c #765B9C",
"<. c #6E4590",
"1. c #736688",
"2. c #727389",
"3. c #7E46A3",
"4. c #7863A7",
"5. c #81449E",
"6. c #8446A2",
"7. c #8C4CAC",
"8. c #8848A7",
"9. c #8755A9",
"0. c #8F4FB3",
"q. c #924BB6",
"w. c #8E54B1",
"e. c #9655BA",
"r. c #9755BA",
"t. c #8472AD",
"y. c #866BB6",
"u. c #8874BA",
"i. c #8B6AB5",
"p. c #9E5AC3",
"a. c #9D57C3",
"s. c #A05BC5",
"d. c #A55DCB",
"f. c #9A6AC2",
"g. c #9C79CC",
"h. c #A865CF",
"j. c #AA73D8",
"k. c #BA6AE6",
"l. c #B678E3",
"z. c #779095",
"x. c #898989",
"c. c #95998D",
"v. c #969596",
"b. c #8E8895",
"n. c #95A18F",
"m. c #9486A5",
"M. c #998AB1",
"N. c #8E83AE",
"B. c #96A9AB",
"V. c #A3A3A3",
"C. c #AAAAAA",
"Z. c #BCBCBC",
"A. c gray70",
"S. c #A9B7AF",
"D. c #F9898C",
"F. c #BCC2B0",
"G. c #C5C9BD",
"H. c #9D88D2",
"J. c #A583D5",
"K. c #A992D9",
"L. c #BAA7D9",
"P. c #B787E9",
"I. c #AD96E5",
"U. c #AF99E6",
"Y. c #AE95E8",
"T. c #B19BE7",
"R. c #B39CE9",
"E. c #B799E9",
"W. c #BB99F4",
"Q. c #B5A2EC",
"!. c #BBA6E8",
"~. c #B6A5F2",
"^. c #BBA2F4",
"/. c #B9ABF3",
"(. c #BEA6F9",
"). c #BEACF9",
"_. c #C4B4DB",
"`. c #C794FB",
"'. c #C685FA",
"]. c #C1AEE8",
"[. c #C9B6E7",
"{. c #C3ABFD",
"}. c #C6A6FF",
"|. c #CCB3FF",
" X c #C9B8F8",
".X c #D2B5FF",
"XX c #BED6D8",
"oX c #AFC5C9",
"OX c #C3C4C4",
"+X c #CACBC7",
"@X c #D4D4D4",
"#X c #D8DDD8",
"$X c #CCDBDD",
"%X c #D5E0DC",
"&X c #D5C3FF",
"*X c #DCC2FF",
"=X c #D9C6F3",
"-X c #E3CDFD",
";X c #E5D1FF",
":X c #EBD6FF",
">X c #F4D9FF",
",X c #D0E1E4",
"<X c #E3E4E3",
"1X c #E8ECEA",
"2X c #EEF2E9",
"3X c #F6E1FF",
"4X c #FCE4FF",
"5X c #FFECFF",
"6X c #F2F2F2",
"7X c #FFFFFF",
"8X c #FAFBFB",
"9X c #E5EFF2",
"0X c None",
/* pixels */
"0X0X0X0X0X0X0X0X0X0X0X0X0X0X0X0X0X0X0X0X0X0X0X0X0X0X0X0X0X0X0X0X0X0X0X0X0X0X0X0X0X0X0X0X0X0X0X0X0X0X",
"0X0X0X0X0X0X0X0X0X0X0X0X0X0X0X0X0X0X0X0X0X0X0X0X0X0X0X0X0X0X0X0X0X0X0X0X0X0X0X0X0X0X0X0X0X0X0X0X0X0X",
"0X0X0X0X0X0X0X0X0X0X0X0X0X0X0X0X0X0X0X0X0X0X0X0X0X0X0X0X0X0X0X0X0X0X0X0X0X0X0X0X0X0X0X0X0X0X0X0X0X0X",
"0X0X0X0X0X0X0X0X0X0X0X0X0X0X0X0X0X0X0X0X0X0X0X0X0X0X0X0X0X0X0X0X0X0X0X0X0X0X0X0X0X0X0X0X0X0X0X0X0X0X",
"0X0X0X0X0X0X0X0X0X0X0X0X0X0X0X0X0X0X0X0X0X0X0X0X0X0X0X0X0X0X0X0X0X0X0X0X0X0X0X0X0X0X0X0X0X0X0X0X0X0X",
"0X0X0X0X0X0X0X0X0X0X0X0X0X0X0X0X0X0X0X0X0X0X0X0X0X0X0X0X0X0X0X0X0X0X0X0X0X0X0X0X0X0X0X0X0X0X0X0X0X0X",
"0X0X0X0X0X0X0X0X0X0X0X0X0X0X0X0X0X0X0X0X0X0X0X0X0X0X0X0X0X0X0X0X0X0X0X0X0X0X0X0X0X0X0X0X0X0X0X0X0X0X",
"0X0X0X0X0X0X0X0X0X0X0X0X0X0X0X0X0X0X0X0X0X0X0X0X0X0X0X0X0X0X0X0X0X0X0X0X0X0X0X0X0X0X0X0X0X0X0X0X0X0X",
"0X0X0X0X0X0X0X0X0X0X0X0X0X0X0X0X0X0X0X0X0X0X0X0X0X0X0X0X0X0X0X0X0X0X0X0X0X0X0X0X0X0X0X0X0X0X0X0X0X0X",
"0X0X0X0X0X0X0X0X0X0X0X0X0X0X0X0X0X0X0X0X0X  p 0X0X0X0X0X0X0X0X0X0X0X0X0X0X0X0X0X0X0X0X0X0X0X0X0X0X0X",
"0X0X0X0X0X0X0X0X0X0X0X0X0X0X0X0X0X0X0X0Xa - 0X0X0Xp 0X0X0X0X0X0X0X0X0X0X0X0X0X0X0X0X0X0X0X0X0X0X0X0X",
"0X0X0X0X0X0X0X0X0X0X0X0X0X0X0X0X0X( 0X0XR 1.0X0X  C 0X0X0X0X0X0X0X0X0X0X0X0X0X0X0X0X0X0X0X0X0X0X0X0X",
"0X0X0X0X0X0X0X0X0X0X0X0X0X0X0X0X0Xa   @ m.].O a E 0X0X0X0X0X0X0X0X0X0X0X0X0X0X0X0X0X0X0X0X0X0X0X0X0X",
"0X0X0X0X0X0X0X0X0X0X0X0X0X0X0X0X0XW M.X ^ 7X* 1.L.0X0X0X0X0X0X0X0X0X0X0X0X0X0X0X0X0X0X0X0X0X0X0X0X0X",
"0X0X0X0X0X0X0X0X0X0X0X0X0X0X0X0X= - -X[.M.=X[.[.=Xe 1 0X0X0X0X0X0X0X0X0X0X0X0X0X0X0X0X0X0X0X0X0X0X0X",
"0X0X0X0X0X0X0X0X0X0X0X0X0X0X* s ` b._.:X;X[.-X=X;Xm.~ R e = 0X0X0X0X0X0X0X0X0X0X0X0X0X0X0X0X0X0X0X0X",
"0X0X0X0X0X0X0X0X0X0X0X0Xw . M.4X5X:X X].!.!.].[.[.-X3X4X=XN.s . 0X0X0X0X0X0X0X0X0X0X0X0X0X0X0X0X0X0X",
"0X0X0X0X0X0X0X0X0X0Xw o 5 :X4Xt.D ;.g.}.~.I.Y.Y.U.!.!.].=X3X3Xm.* = 0X0X0X0X0X0X0X0X0X0X0X0X0X0X0X0X",
"0X0X0X0X0X0X0X0X  _ z   4XE.$ e i w X c W.).U.U.U.Y.I.Y.U.Q.].3X:XP   0X0X0X0X0XJ 0X0Xp p 0X0X0X0X0X",
"0X0X0X0X0X0X0X  b.7X@ K.!.  ' 7X7X7XG.@ 7 `./.U.U.Q.U.U.U.I.~.!. X5Xm.X 0X0XI / _ p / <Xv.0X0X0X0X0X",
"0X0X0X0X0X0X0Xk 7Xt b >X2 T 7X9X7X7X7X2X  F ^.Q.T.U.R.~.Q.I.g.I.{.{.-XR   J v.V.C.<X7X8XH 0X0X0X0X0X",
"0X0X0X0X0X0X* OXS.. (.H.1 ,XB.oX$X6X7X7X) $ P.).~.Q.U.J.U.T.h.i.:.R ~ v.Z.@X6X7X7X7XOX* 0X0X0X0X0X0X",
"0X0X0X0X0X0Xe ,Xu b :X>.i XX5 ( z.9X7X7Xc.X j.Q.J.Q.J.&.f. XS n %.G.7X7X7X7X7X7XOX/ / I 0X0X0X0X0X0X",
"0X0X0X0X0X0X= V.e t..Xu., XX` & z.8X7X7X) $ P.j.&.i.Q.J.W.v K 2X7X7X7X7X<XOXV.x.x.Z.7X/ 0X0X0X0X0X0X",
"0X0X0X0X0X0XH = n U.(. X2 Y 8XXX9X7X7X<X. Z P.Q.J.I.Q.&X;.t 7X7X7X6X+X_.F.G.OX@X<X@Xp 0X0X0X0X0X0X0X",
"0X0X0X0X0X0X0X  v |.U..Xu.  c.7X7X7X#X# % h.Q.Q./.R.T..Xb F.7X7X7X8X1X<X+XOXA.V.v.w o 0X0X0X0X0X0X0X",
"0X0X0X0X0X0X0Xr m >X|.(..X,.  r L K o 3 q.Y.~.R.{.R.T.|.:.L +X8X7X7X7X7X1XG.C.V.' J 0X0X0X0X0X0X0X0X",
"0X0X0X0X0X0X0X0X$ S t.K.!.;X`.*.N N 6.'..X&X.X{.K.K.R.R.R.Q V I ^ / ` ` ` 2.W   0X0X0X0X0X0X0X0X0X0X",
"0X0X0X0X0X0X0X0X0Xi . . % v E :.<.4.,.>.>.~ m 6 o t.|.U.Q.|.W.H.4.4.4.4.u.W.<.# 0X0X0X0X0X0X0X0X0X0X",
"0X0X0X0X0X0X0X0X0X0X0X= c.r   # # . . .     @ 1   t.|.U.E.T.T.~.).{.{.).).`.Z e 0X0X0X0X0X0X0X0X0X0X",
"0X0X0X0X0X0X0X0X0X0X0X= @XI a 7X@X* ' 6X( a 8X+XO t.}.R.T.T.T.T.R.U.Q./.P.3.2   & q 0X0X0X0X0X0X0X0X",
"0X0X0X0X0X0X0X0X0X0X0X      O x.U   H Z.w . x.I   H.{.T.T.T.T.U.Q./.U.l.F   ; [ [ ;   0X0X0X0X0X0X0X",
"0X0X0X0X0X0X0X0X0X0X5                           - ^.^.T.U.T.Q./.R.g.s.F   d O.o.+. .+   0X0X0X0X0X0X",
"0X0X0X0X0X0X0X0X0X1 % r.S 6                     V .XT.Q./.~.U.g.w.q.6.  : X.o...} d   0X0X0X0X0X0X0X",
"0X0X0X0X0X0X0X0X0X0X  q.k.a.F 6                 N.*XQ.T.J.f.7.=.6.k.M   D.$. .{ h   0X0X0X0X0X0X0X0X",
"0X0X0X0X0X0X0X0X0X0Xz   a.s.p.r.F 8           V `.g.i.w.5.8.0.q.3.b X j 7X@.{ g   U 0X0X0X0X0X0X0X0X",
"0X0X0X0X0X0X0X0X0X0X0Xr X 7.d.e.s.a.<.B 8 8 S p.7.=.5.6.7.5.9.j.*.    j #.{ g   u 0X0X0X0X0X0X0X0X0X",
"0X0X0X0X0X0X0X0X0X0X0X0Xl . A 0.s.s.h.d.s.p.s.w.7.0.e.a.k.B $ v +     X ] ]   G 0X0X0X0X0X0X0X0X0X0X",
"0X0X0X0X0X0X0X0X0X0X0X0X0X0X, 3 x Z =.7.r.a.p.r.0.3.*.F A $ + d O   0Xu   . u 0X0X0X0X0X0X0X0X0X0X0X",
"0X0X0X0X0X0X0X0X0X0X0X0X0X0X0X0X0Xe - 6 3 9 7 3 4 4 e   O }  .: o 0X0X0X& e 0X0X0X0X0X0X0X0X0X0X0X0X",
"0X0X0X0X0X0X0X0X0X0X0X0X0X0X0X0X0X0X0X0X0X0X0X0X0X0X0X0X  { :   0X0X0X0X0X0X0X0X0X0X0X0X0X0X0X0X0X0X",
"0X0X0X0X0X0X0X0X0X0X0X0X0X0X0X0X0X0X0X0X0X0X0X0X0X0X0X0Xp     0X0X0X0X0X0X0X0X0X0X0X0X0X0X0X0X0X0X0X",
"0X0X0X0X0X0X0X0X0X0X0X0X0X0X0X0X0X0X0X0X0X0X0X0X0X0X0X0X0XG 0X0X0X0X0X0X0X0X0X0X0X0X0X0X0X0X0X0X0X0X",
"0X0X0X0X0X0X0X0X0X0X0X0X0X0X0X0X0X0X0X0X0X0X0X0X0X0X0X0X0X0X0X0X0X0X0X0X0X0X0X0X0X0X0X0X0X0X0X0X0X0X",
"0X0X0X0X0X0X0X0X0X0X0X0X0X0X0X0X0X0X0X0X0X0X0X0X0X0X0X0X0X0X0X0X0X0X0X0X0X0X0X0X0X0X0X0X0X0X0X0X0X0X",
"0X0X0X0X0X0X0X0X0X0X0X0X0X0X0X0X0X0X0X0X0X0X0X0X0X0X0X0X0X0X0X0X0X0X0X0X0X0X0X0X0X0X0X0X0X0X0X0X0X0X",
"0X0X0X0X0X0X0X0X0X0X0X0X0X0X0X0X0X0X0X0X0X0X0X0X0X0X0X0X0X0X0X0X0X0X0X0X0X0X0X0X0X0X0X0X0X0X0X0X0X0X",
"0X0X0X0X0X0X0X0X0X0X0X0X0X0X0X0X0X0X0X0X0X0X0X0X0X0X0X0X0X0X0X0X0X0X0X0X0X0X0X0X0X0X0X0X0X0X0X0X0X0X",
"0X0X0X0X0X0X0X0X0X0X0X0X0X0X0X0X0X0X0X0X0X0X0X0X0X0X0X0X0X0X0X0X0X0X0X0X0X0X0X0X0X0X0X0X0X0X0X0X0X0X",
"0X0X0X0X0X0X0X0X0X0X0X0X0X0X0X0X0X0X0X0X0X0X0X0X0X0X0X0X0X0X0X0X0X0X0X0X0X0X0X0X0X0X0X0X0X0X0X0X0X0X"
};
