/* XPM */
static char *result[] = {
/* columns rows colors chars-per-pixel */
"50 50 125 2 ",
"   c #0E0D11",
".  c #100F13",
"X  c #110F1D",
"o  c #151419",
"O  c #18171D",
"+  c #19181E",
"@  c #161321",
"#  c #181624",
"$  c #1D1C23",
"%  c #1E1C2A",
"&  c #201F27",
"*  c #211F2C",
"=  c #221F32",
"-  c #212027",
";  c #24232C",
":  c #262432",
">  c #282635",
",  c #2B2A35",
"<  c #292738",
"1  c #2E2D3A",
"2  c #312F3D",
"3  c #2F303B",
"4  c #33323E",
"5  c #322F42",
"6  c #353443",
"7  c #383645",
"8  c #373844",
"9  c #393945",
"0  c #393749",
"q  c #3C3A4A",
"w  c #3D4146",
"e  c #3F414B",
"r  c #41434D",
"t  c #434D4F",
"y  c #444454",
"u  c #464D52",
"i  c #4A4D56",
"p  c #464559",
"a  c #4C4D5A",
"s  c #475153",
"d  c #4F555B",
"f  c #495B5A",
"g  c #51555E",
"h  c #4F4D63",
"j  c #504F62",
"k  c #535462",
"l  c #555B62",
"z  c #585B64",
"x  c #556062",
"c  c #596064",
"v  c #5D666A",
"b  c #60676D",
"n  c #616C6E",
"m  c #616670",
"M  c #656E72",
"N  c #637374",
"B  c #6A7377",
"V  c #6C7679",
"C  c #6E7B7D",
"Z  c #70777C",
"A  c #717B7D",
"S  c #697F80",
"D  c #747D81",
"F  c #6E8384",
"G  c #758284",
"H  c #7A8486",
"J  c #7B8689",
"K  c #758A8B",
"L  c #7D8A8D",
"P  c #7B8D91",
"I  c #7E9293",
"U  c #818B8F",
"Y  c #838E92",
"T  c #839395",
"R  c #899496",
"E  c #839699",
"W  c #8A9599",
"Q  c #86999B",
"!  c #8C9A9D",
"~  c #909B9E",
"^  c #8D9DA1",
"/  c #929EA2",
"(  c #8DA1A2",
")  c #94A3A5",
"_  c #98A2A5",
"`  c #95A6A9",
"'  c #99A6A9",
"]  c #96A9AB",
"[  c #9BAAAD",
"{  c #9CAEB0",
"}  c #9FB2B3",
"|  c #A3ABAD",
" . c #A1AEB2",
".. c #A2B2B5",
"X. c #A8B3B6",
"o. c #A5B6B9",
"O. c #AAB6BA",
"+. c #A6B9BB",
"@. c #ABBABD",
"#. c #B1BCBF",
"$. c #AEBEC1",
"%. c #B2BEC2",
"&. c #ADC1C2",
"*. c #B3C3C5",
"=. c #B6C6C9",
"-. c #BBC7CA",
";. c #B6C8CA",
":. c #BACBCD",
">. c #BECED1",
",. c #BDD0D2",
"<. c #C0CED2",
"1. c #C4D3D6",
"2. c #C6D6D8",
"3. c #C7D9DB",
"4. c #CCDADD",
"5. c #CEDCE0",
"6. c #D2DEE2",
"7. c #CDE1E1",
"8. c #D2E3E5",
"9. c #DAE5E9",
"0. c #DDECEE",
"q. c #E2F3F6",
"w. c #E8F4F7",
"e. c #FBFFFF",
"r. c None",
/* pixels */
"r.r.r.r.r.r.r.r.r.r.r.r.r.r.r.r.r.r.r.r.r.r.r.r.r.r.r.r.r.r.r.r.r.r.r.r.r.r.r.r.r.r.r.r.r.r.r.r.r.r.",
"r.r.r.r.r.r.r.r.r.r.r.r.r.r.r.r.r.r.r.r.r.r.Y [ -.X.#. .r.r.r.r.r.r.r.r.r.r.r.r.r.r.r.r.r.r.r.r.r.r.",
"r.r.r.r.r.r.r.r.r.r.r.r.r.r.r.r.r.r.r.r. . .! ^ <.<.4.0.:.L W r.r.r.r.r.r.r.r.r.r.r.r.r.r.r.r.r.r.r.",
"r.r.r.r.r.r.r.r.r.r.r.r.r.r.r.r.r.*.L ^ { I +.$.` X.O.<.@.[ <.' D $.r.r.r.r.r.r.r.r.r.r.r.r.r.r.r.r.",
"r.r.r.r.r.r.r.r.r.r.r.r.r.r.r.C @.w.[ G *.) ` 2.1. .@.+.=.%.1.~ ^ :.@.o.r.r.r.r.r.r.r.r.r.r.r.r.r.r.",
"r.r.r.r.r.r.r.r.r.r.r.r.r.H o.^ ] O.) J >.2.$.^ M i b W =.0.9.Y o.o.o.} @.H r.r.r.r.r.r.r.r.r.r.r.r.",
"r.r.r.r.r.r.r.r.r.r.r.%.[ u L { ^ ( 7._ m D a 1 = < : 2 r D M / 7.! K [ R u ..O.r.r.r.r.r.r.r.r.r.r.",
"r.r.r.r.r.r.r.r.r.r._ o.,.' V [ Q &.` r % < : , , > 6 q 5 2 X 9 [ ,.[ { B *.e.o.! r.r.r.r.r.r.r.r.r.",
"r.r.r.r.r.r.r.r.r. ...^ ) =.! '  .v 1 6 9 ; $ + $ $ + + , q a 5 * b =._ V :.+...&.[ r.r.r.r.r.r.r.r.",
"r.r.r.r.r.r.r.r.@.T Q [ E T =.V < 5 y 1 + $ & & & & & & + o : p p = * B 4.;.F [ :.X.*.r.r.r.r.r.r.r.",
"r.r.r.r.r.r.r.r.N ) ` $.=.O.B = p p $ o & & & & & & & & & - $ o 1 k 0 # W } E ^ ) >.L r.r.r.r.r.r.r.",
"r.r.r.r.r.r.r.Y t L 2.:.2.D = j y o $ - & & & & & & & & & & - % o $ y p X l *.[ @.J d | r.r.r.r.r.r.",
"r.r.r.r.r.r. .>.$.v V ;.V % j r o $ - & & & & & & & & & & & & & & $ o 7 p % V ;.C s [ *.W r.r.r.r.r.",
"r.r.r.r.r.r.} O.;.1.! q # h y o $ - & & & & & & & & & & & & & & & & & o 4 y X t ! o.E G ] r.r.r.r.r.",
"r.r.r.r.r. .O...O.,.&.; 0 i # $ - & & & & & & & & & & & & & & & & & & & o q 6 % $.} } o.*. .r.r.r.r.",
"r.r.r.r.r.{ @.O.! &.C > j ; + & & & & & & & & & & & & & & & & & & & & & $ $ y = D $.P E [ ..r.r.r.r.",
"r.r.r.r.r.O.o.I K ' t q 4 O & & & & & & & & & & & & & & & & & & & & & & - $ > 6 e @.[ ^ [  .r.r.r.r.",
"r.r.r.r.r.[ } F ] Y , q $ $ & & & & & & & & & & & & & & & & & & & & & & & & + 0 : Y *.( O.O.r.r.r.r.",
"r.r.r.r.r.[ } ` ;.z > > + - & & & & & & & & & & & & & & & & & & & & & & & & + 1 > g 2.+.@.=.r.r.r.r.",
"r.r.r.r.r.W L ! G 1 4 $ & % & & & & & & & & & & & & & & & & & & & & & & & & $ ; 7 : D ! P R r.r.r.r.",
"r.r.r.r.r._ T C l % 8 + - - % & & & & & & & & & & & & & & & & & & & & & & & & - 0 @ c _ T ! r.r.r.r.",
"r.r.r.r.r.5.w.2.T * 8 $ - $ - - & & & & & & & & & & & & & & & & & & & & & & $ - 7 $ ! 0.1.&.r.r.r.r.",
"r.r.r.r.r.%.8.2.H : 4 $ - - & & & & & & & & & & & & & & & & & & & & & & & & & - 7 % J 3.>.` r.r.r.r.",
"r.r.r.r.r.E @.:.L ; 2 $ % & & & & & & & & & & & & & & & & & & & & & & & & & $ - 7 % ^ >.) [ r.r.r.r.",
"r.r.r.r.X.C E ,.T : 4 $ & & & & & & & & & & & & & & & & & & & & & & & & & & $ ; 0 % ` { P ' r.r.r.r.",
"r.r.r.r.@.E F =./ ; 2 $ & & & & & & & & & & & & & & & & & & & & & & & & & & $ ; 7 ; / Q P ` *.r.r.r.",
"r.r.r.r.r.{ [ ;.' > 4 $ $ & & & & & & & & & & & & & & & & & & & & & & & & & & - 7 , W N / { X.r.r.r.",
"r.r.r.r.r.v G ] l - 4 $ - - & & & & & & & & & & & & & & & & & & & & & & & & & - q = u n L C r.r.r.r.",
"r.r.r.r.*._ C :.B $ 6 $ & & & & & & & & & & & & & & & & & & & & & & & & & & $ ; 0 $ D :.[ [ X.r.r.r.",
"r.r.r.r.-.1.O.q...> 1 $ & & & & & & & & & & & & & & & & & & & & & & & & & & $ - 4 > ..8.1.*.O.r.r.r.",
"r.r.r.r.X.) ] *.) , 1 $ & & & & & & & & & & & & & & & & & & & & & & & & & & $ ; 8 1 T &.:.@...r.r.r.",
"r.r.r.r.U Q I ( ! 4 , $ & & & & & & & & & & & & & & & & & & & & & & & & & & $ ; 7 < ' :.../ X.r.r.r.",
"r.r.r.r.~ ..( *.[ 4 < $ - - & & & & & & & & & & & & & & & & & & & & & & - - + : 8 , O.:.^ [ o.r.r.r.",
"r.r.r.r.O.&.&.=.' 3 4 - $ - & & & & & & & & & & & & & & & & & & & & & & - - $ ; 8 3 [ @.} @.@.r.r.r.",
"r.r.r.r.r.A V L V , 8 - $ & & & & & & & & & & & & & & & & & & & & & & & - - $ , q ; A R G M r.r.r.r.",
"r.r.r.r.r._ V #.O., 3 - $ & & & & & & & & & & & & & & & & & & & & & & & - - $ ; 7 4 ! O.O./ _ r.r.r.",
"r.r.r.r...} E 1.2.3 1 - $ - - & & & & & & & & & & & & & & & & & & & & & & & + ; 8 4 *.;.} &.O.r.r.r.",
"r.r.r.r.( E ) ..%.4 1 - % - & & & & & & & & & & & & & & & & & & & & & & & & - ; 6 9 G K ..*.@.r.r.r.",
"r.r.r.r.` K ] { ) 4 1 ; $ & & & & & & & & & & & & & & & & & & & & & & & & & $ : q ; f ..:...O.r.r.r.",
"r.r.r.r. .] [ *.) 1 4 - $ & & & & & & & & & & & & & & & & & & & & & & & & & $ ; 7 > _ >.@.X.] r.r.r.",
"r.r.r.r.~ R L Y H , 2 ; & & & & & & & & & & & & & & & & & & & & & & & & & & & ; 7 1 J Y H V _ r.r.r.",
"r.r.r.r.X.<.O.2.4.9 > ; $ & & & & & & & & & & & & & & & & & & & & & & & & & & ; 1 r :.=.T N %.r.r.r.",
"r.r.r.r.@.4.9.0.:.u : ; $ & & & & & & & & & & & & & & & & & & & & & & & & & & ; > i 2.,.[ ! -.r.r.r.",
"r.r.r.r.r.8.5.&.o.d : : $ & & & & & & & & & & & & & & & & & & & & & & & & & & ; < d *.,.@._ r.r.r.r.",
"r.r.r.r.r.[ _ Q :.a > ; $ & & & - & & & $ - - - & & & & - - - - & & & & & & $ ; < d $.{ +.( r.r.r.r.",
"r.r.r.r.x J ` F *.g > > $ & & & - - & & & - - - & & & & $ - % - & & & & & & $ ; : g ;.! ` o.r.r.r.r.",
"r.r.r.r.N :.( F *.g ; ; $ ; & & - - - - & & - - - - & & - - & & - - & & ; & $ ; : z ;.` [ &.r.r.r.r.",
"r.r.r.r.r.*.$.o.>.l * > ; ; ; ; ; : ; ; : ; : : ; : ; ; > ; ; ; ; ; ; ; ; ; ; , = m 7.1.$.@.r.r.r.r.",
"r.r.r.r.r._  .O. .k 9 $   o o o o o o o o o o o o o o o o o o o o o o o o o . o q k G H |  .r.r.r.r.",
"r.r.r.r.r.r.r.r.r.r.r.r.r.r.r.r.r.r.r.r.r.r.r.r.r.r.r.r.r.r.r.r.r.r.r.r.r.r.r.r.r.r.r.r.r.r.r.r.r.r."
};
