/* XPM */
static char *result[] = {
/* columns rows colors chars-per-pixel */
"50 50 231 2 ",
"   c #000001",
".  c #02020B",
"X  c #08060E",
"o  c #060814",
"O  c #12131A",
"+  c #381710",
"@  c #040C22",
"#  c #0B1427",
"$  c #181B28",
"%  c #111A31",
"&  c #1D232D",
"*  c #1D2636",
"=  c #25252B",
"-  c #282936",
";  c #342D37",
":  c #3A323A",
">  c #332D31",
",  c #4B1704",
"<  c #561D02",
"1  c #45241A",
"2  c #4C2519",
"3  c #552A1B",
"4  c #52220C",
"5  c #682A0A",
"6  c #793109",
"7  c #7A3718",
"8  c #6C3113",
"9  c #482D2B",
"0  c #562D20",
"q  c #49302D",
"w  c #583328",
"e  c #432E32",
"r  c #443233",
"t  c #493639",
"y  c #543A37",
"u  c #6C3A28",
"i  c #7C411E",
"p  c #7B472B",
"a  c #774B3A",
"s  c #1E2B45",
"d  c #383845",
"f  c #2C374D",
"g  c #4C3C43",
"h  c #463B48",
"j  c #453E50",
"k  c #3F434A",
"l  c #3C445A",
"z  c #3A4867",
"x  c #364B73",
"c  c #3D5277",
"v  c #46434C",
"b  c #4C4A54",
"n  c #43465A",
"m  c #4D4C5A",
"M  c #474655",
"N  c #534B57",
"B  c #4C5459",
"V  c #53515D",
"C  c #5C4746",
"Z  c #654C4B",
"A  c #785449",
"S  c #685559",
"D  c #735B5B",
"F  c #775B57",
"G  c #674E4D",
"H  c #79605D",
"J  c #484E64",
"K  c #4C536C",
"L  c #475269",
"P  c #545363",
"I  c #595565",
"U  c #54566A",
"Y  c #56596D",
"T  c #5A5A6C",
"R  c #585B66",
"E  c #4A5879",
"W  c #545A72",
"Q  c #5C5D72",
"!  c #545E7A",
"~  c #555C76",
"^  c #4C4F6A",
"/  c #6D5D63",
"(  c #635C6B",
")  c #685C69",
"_  c #615E72",
"`  c #725F63",
"'  c #5B6567",
"]  c #5F6175",
"[  c #59627C",
"{  c #67676D",
"}  c #766265",
"|  c #626174",
" . c #6C6573",
".. c #63657B",
"X. c #696C76",
"o. c #786C74",
"O. c #6A7577",
"+. c #73797C",
"@. c #873B16",
"#. c #913E14",
"$. c #833109",
"%. c #883F20",
"&. c #88431A",
"*. c #934619",
"=. c #AA5217",
"-. c #834624",
";. c #8D4D2B",
":. c #894825",
">. c #944D25",
",. c #98542B",
"<. c #844E35",
"1. c #8C5434",
"2. c #8C573B",
"3. c #955634",
"4. c #945936",
"5. c #9B5A33",
"6. c #9A5D3B",
"7. c #955A39",
"8. c #8A512F",
"9. c #A5592A",
"0. c #A45E33",
"q. c #A95F35",
"w. c #9C613E",
"e. c #B5612A",
"r. c #A3623D",
"t. c #AA653C",
"y. c #AB6437",
"u. c #B56B3D",
"i. c #BB6E3D",
"p. c #B66635",
"a. c #C16D36",
"s. c #C8743B",
"d. c #D67738",
"f. c #CE6C28",
"g. c #E3742D",
"h. c #885A47",
"j. c #955D41",
"k. c #855F53",
"l. c #93614B",
"z. c #9A6245",
"x. c #87655B",
"c. c #956956",
"v. c #8F614D",
"b. c #A76946",
"n. c #B46C42",
"m. c #B26F4A",
"M. c #BC7244",
"N. c #BC744B",
"B. c #B2724D",
"V. c #BC7951",
"C. c #A67256",
"Z. c #876B68",
"A. c #94736B",
"S. c #A97963",
"D. c #C27546",
"F. c #CB7A44",
"G. c #C5794C",
"H. c #CB7C4D",
"J. c #C67745",
"K. c #D37C44",
"L. c #C77E54",
"P. c #F28235",
"I. c #B38473",
"U. c #DA8248",
"Y. c #CF8255",
"T. c #D48353",
"R. c #D8895A",
"E. c #E68748",
"W. c #E7905C",
"Q. c #D18A62",
"!. c #E49363",
"~. c #3D5884",
"^. c #4A5D83",
"/. c #5B6482",
"(. c #5E6986",
"). c #4E6B96",
"_. c #656A84",
"`. c #6B7F80",
"'. c #727D81",
"]. c #6A7493",
"[. c #787C98",
"{. c #6275A3",
"}. c #867A82",
"|. c #6C8181",
" X c #748183",
".X c #7D8A8D",
"XX c #788588",
"oX c #7D9293",
"OX c #7B8E92",
"+X c #7B88A7",
"@X c #828E90",
"#X c #849294",
"$X c #849699",
"%X c #8A9699",
"&X c #8B9B9E",
"*X c #87979A",
"=X c #8D9799",
"-X c #8C9EA1",
";X c #939EA1",
":X c #8EA2A3",
">X c #94A2A5",
",X c #95A6A9",
"<X c #9AA6A9",
"1X c #9BABAE",
"2X c #97A8AA",
"3X c #9DAEB1",
"4X c #9FB1B4",
"5X c #A2AEB1",
"6X c #A3B2B5",
"7X c #A6B6B9",
"8X c #AAB6BA",
"9X c #ABBABD",
"0X c #A7B7BA",
"qX c #A8B3B6",
"wX c #AEBEC1",
"eX c #B1BDC1",
"rX c #AEC0C2",
"tX c #B3C3C5",
"yX c #B5C6C9",
"uX c #BBCBCD",
"iX c #B8C8CB",
"pX c #BFD2D4",
"aX c #C3D2D5",
"sX c #C8D9DC",
"dX c #C3CCCF",
"fX c #CEDEE0",
"gX c #D7E5E8",
"hX c #D7E9EB",
"jX c #E8F5F9",
"kX c #F4FFFF",
"lX c None",
/* pixels */
"lXlXlXlXlXlXlXlXlXlXlXlXlXlXlXlXlXlXlXlXlXlXlXlXlXlXlXlXlXlXlXlXlXlXlXlXlXlXlXlXlXlXlXlXlXlXlXlXlXlX",
"lXlXlXlXlXlXlXlXlXlXlXlXlXlXlXlXlXlXlXlXlXlX'.7XuX5XeX8X8XlXlXlXlXlXlXlXlXlXlXlXlXlXlXlXlXlXlXlXlXlX",
"lXlXlXlXlXlXlXlXlXlXlXlXlXlXlXlXlXlXlX<X3X1X:X-XaXsXfXhXiXXX;XlXlXlXlXlXlXlXlXlXlXlXlXlXlXlXlXlXlXlX",
"lXlXlXlXlXlXlXlXlXlXlXlXlXlXlXlXlXiX@X%X4XoX7XtX<X5X8XuX8X5XaX>XXXtXlXlXlXlXlXlXlXlXlXlXlXlXlXlXlXlX",
"lXlXlXlXlXlXlXlXlXlXlXlXlXlXlX|.6XhX3XXXtX,X3XfXsX4XrXwXiX9XaX;X,XyX9X6XlXlXlXlXlXlXlXlXlXlXlXlXlXlX",
"lXlXlXlXlXlXlXlXlXlXlXlXlX+.6X-X1X8X>X.XaXfXwX#XB ; B #XtXjXgX=X9X4X7X4X9X+.lXlXlXlXlXlXlXlXlXlXlXlX",
"lXlXlXlXlXlXlXlXlXlXlX9X6XB '.3X-X:XhX>X' R = . X $ X X = X.V <XfX:XXX4X XB wX3XlXlXlXlXlXlXlXlXlXlX",
"lXlXlXlXlXlXlXlXlXlX5X3XuX1XO.1X-XtX>X=   o * m I I R b * .   > 3XpX2X1XO.dXkX3X#XlXlXlXlXlXlXlXlXlX",
"lXlXlXlXlXlXlXlXlX6X6X>X>XyX-X3X7XM . # J o.A h m P m m y S J @ . ' uX;X XuX0X7XeX5XlXlXlXlXlXlXlXlX",
"lXlXlXlXlXlXlXlX9X#X$X2X$XoXuXO.. o z Z.z.s.6 d J I m b , &.l.Z.f . X O.hXwX|.7XiX1XtXlXlXlXlXlXlXlX",
"lXlXlXlXlXlXlXlXO.-X,XwXtXrXO.  * [ c.p.a b.7 j ! m W I 1 &.:.9.v.' # . ;X7X$X$X1XuX XlXlXlXlXlXlXlX",
"lXlXlXlXlXlXlX%XB '.aXuXfX+.  f }.j.e.r.).A.$.j ~ V W I 4 7 ]...=.Y.o.f   ' uX1X9X'.R >XlXlXlXlXlXlX",
"lXlXlXlXlXlX3XyXtX{ { uXO.  l { >.s.n.M.2.M.7 j ~ I U I 2 7 I.A.w.U.u.V s X  XtX{ B 9XrX@XlXlXlXlXlX",
"lXlXlXlXlXlX6X9XyXpX,Xv   l A.>.p J.M.N.5.J.7 j [ m ~ T 2 :.E.q.z.Y.y.&.Z.s   B >X7XoXXX1XlXlXlXlXlX",
"lXlXlXlXlXqX0X4XwXuXpX$ %  .s.,.p H.G.N.7.G.7 M _.m ] | 2 -.R.b.w.T.b.8.U.{ # - uX4X3X7XwX8XlXlXlXlX",
"lXlXlXlXlX1X0X9X:XrXO.o L 2.U.1.p Y.G.N.7.G.@.j _.P Q _ 2 -.R.m.1.Y.b.p s.y.l o .X4XOX&X3X6XlXlXlXlX",
"lXlXlXlXlX6X6XoX|.3Xd s F e.d.&.p Y.D.M.7.H.@.j /.V W T 2 ;.!.m.r.Q.z.:.K.p.Z # v yX>X;X3X6XlXlXlXlX",
"lXlXlXlXlX6X4X|.:X%X$ n q.5./ d 8.T.G.N.7.H.7 j /.N U T 0 7.!.m.b.R.q.0 c.9.%.N # >X9X>X9X8XlXlXlXlX",
"lXlXlXlXlX1X6X:XaX' % G 9.T J E ` K.Y.m.1.L.@.h (.N Q _ w ;.Q.B.3.J.v.z c m *.c.@ ' sX7XwX9XlXlXlXlX",
"lXlXlXlXlX%XXX;X@X$ d 5.F P e.D F U.T.u.<.L.@.h [ V .._ 9 7.!.m.6.J.Z._ 3.x x.p.- $ @X&X.X>XlXlXlXlX",
"lXlXlXlXlX1X%X XR X b z.T a s.2.;.H.G.j.-.R.7 g ].M Q ..2 5.W.p.9.K.0.<.g.2._ M.g . { >X@X<XlXlXlXlX",
"lXlXlXlXlXsXkXaX@XX n ~ ..X.Q | Q W U E  .N.$.N ].b _ ..0 3.S.) S } D S A.Z._ ) d o <XgXpX7XlXlXlXlX",
"lXlXlXlXlXwXgXsX.XX J X.T ) } D / ` / ( ) V.@.h ].N _ _ 2 ;._.^.K K ! ..^._.Q ^.n X %XsXyX2XlXlXlXlX",
"lXlXlXlXlX$X0XuX#XO v N.T w d.1.;.U.K.n.-.H.7 e [ v T W 0 9.L.j.7.N.8.p K.0.Y C.v O 5XiX>X1XlXlXlXlX",
"lXlXlXlXlX`.oXuX*X# y d.x.L >.( } K.D.n.<.N.@.h /.N _ W 3 0.W.t.t.E.k.S a.Z  .d.y # 3X2X#X>XlXlXlXlX",
"lXlXlXlXeX$X|.rX2X# g i.a.R x c k.K.r.r.h.L.%.g _.v U Q 3 ,.W.r.b.U.x.E n x 6.d.q # >XoX$X>XdXlXlXlX",
"lXlXlXlXlX4X1XtX7X# t M.i.8.Z.y 5.R.6.q.:.V.%.g /.b U U 0 ;.W.q.0.W.0.h ) j.p.J.t * -XO.3X3XlXlXlXlX",
"lXlXlXlXlX{  X2X' . g M.u.5.d.9.w.R.r.x.x.N.%.g (.m T W 2 >.F.k.c.T.5.-.K.i.t.D.y # M ' @X'.lXlXlXlX",
"lXlXlXlXlX>XO.tXO.. g M.n.3.H.3.5.K.c.^.$XL.$.g _.V _ _ 2 @.j.).[.V.q.3.Y.n.u.M.g o |.tX>X<XlXlXlXlX",
"lXlXlXlXyXaX6XjXrX% : n.i.3.D.3.j.H.0.Q _.H.%.e ^.T Y U 1 >.q.E o.K.b.1.D.M.M.i.: & uXfXaXtX6XlXlXlX",
"lXlXlXlX9X2X,XtX5X$ ; n.n.7.D.6.r.G.a ( ^ h.#.e ~ ( Q ^ 1 %.h.V V b.u.1.D.M.i.i.r * 2XtXuX9X5XlXlXlX",
"lXlXlXlX%X$XoX$X>X* ; M.0.2.H.j.r.h. .D.8 h u y /.T _ T 2 w Z.n.p N l.5.D.M.i.i.r * 7XtX3X>X8XlXlXlX",
"lXlXlXlX*X1X-X9X7X& ; m.y.2.R.<.y.k.) E.*.d u y ! _ _ ^ 4 t Z.d.#.j v.,.D.M.i.i.> - uXtX$X2X8XlXlXlX",
"lXlXlXlX7XyXtXyX9X& - t.i.w.Y.1.6.D.Z Z g F #.9 ^ _.Q n 0 >.S Z g x.u.3.M.M.M.u.> s rX0X0XtXlXlXlXlX",
"lXlXlXlXlX+.+..X+.O d b.i.t.s.w.6.J.i.l.A i.#.q ^.| ..^ 1 e.G.A h.K.t.,.K.M.M.u.t & XX#XXXO.lXlXlXlX",
"lXlXlXlXlX2X' <X9X- d B.U.5.H C 3.G.D.K.q.q.@.t ~ Q Q ^ 1 q.T.a.q.H.y.u j.i.F.u.> - >X1X1X%XlXlXlXlX",
"lXlXlXlX6X9X$XuXgX* - m.i.' x z D s.M.G.b.n.@.9 L ..Q M 1 ,.T.u.6.F.h.z x F s.i.= : pXiX0XrX9XlXlXlX",
"lXlXlXlX2XoX2X4XuX* ; M.x.L ,.D / s.M.G.u.n.@.9 W | ] P 1 ;.H.u.5.K.` Q a x l.a.> f $XOX7X0XeXlXlXlX",
"lXlXlXlX2XXX,X2X<X= - B.{ a f.w.-.u.a.J.y.p.@.9 ! Q ..Y 1 :.U.i.9.d.r.<.g.a ( i.: $ B 9XuX5X6XlXlXlX",
"lXlXlXlX5X3X4XrX6X& - Q W X. .} ) ( ) |  .b.#.9 J ] Y n 0 >.S.Z.A x.k.A c.x.| ` - & 6XaX9X5X5XlXlXlX",
"lXlXlXlX<X@X@X@XXXO M /.Y  .|  .' R I ] ] b.#.9 J ] W n 8 :._.~.E E ^.! ^._.Q ^.n = #X@XXX XlXlXlXlX",
"lXlXlXlXlX9X5X9XaX- - z. .w e.t.i 0.i.i.;.y.@.w E Q ] K w >.N.z.p j.t.<.0.j.Y c.: k yX9X|.O.lXlXlXlX",
"lXlXlXlX8XfXgXjXgXk # q.A.z *.F C i.i.Y.>.9.*.q J T T m w >.f.p.5.s.C.Z =.S  .p.$ U fXsX>X>XdXlXlXlX",
"lXlXlXlXlXfXhXtX0Xb # b.f...L E S a.i.s.a { @.w l ] I M u u ].l.9.d.D E b c 7.y.$ B pXpX2X1XlXlXlXlX",
"lXlXlXlXlX9X1X:XiXb # 2.a.&.N Z u 0.y.e.F {.8 0 W R T U 3 8 [.h.&.t.3.m U a *.7.- P rX9X7X>XlXlXlXlX",
"lXlXlXlXlX|.2X|.yXB $ w 6 + < 6 , 5 8 8 , , , + K V V J + , 6 5 , 5 6 < , 5 < u - { iX-X6X6XlXlXlXlX",
"lXlXlXlXlX9X2XO.yXR $ t q : 9 q r q e y r 9 9 : P V P V : e y r e y y y e t t t ; O.pX>X1XwXlXlXlXlX",
"lXlXlXlXlXyX7X1XpX' $ K n n K K J K U K W ~ W U U T T T _...] [ _.[ _.! _...W ! d `.yX6X9X0XlXlXlXlX",
"lXlXlXlXlX5X8XeXeXV ; P M v P P v P P b m T V V U I V I T P P T I P P I R P V P v X.9X0X6X5XlXlXlXlX",
"lXlXlXlXlXlXlXlXlXlXlXlXlXlXlXlXlXlXlXlXlXlXlXlXlXlXlXlXlXlXlXlXlXlXlXlXlXlXlXlXlXlXlXlXlXlXlXlXlXlX"
};
