/* XPM */
static char *result[] = {
/* columns rows colors chars-per-pixel */
"50 50 207 2 ",
"   c #000001",
".  c #080A05",
"X  c #0A060B",
"o  c #0B0A0D",
"O  c #060108",
"+  c #190808",
"@  c #090815",
"#  c #140B1C",
"$  c #121213",
"%  c #1A141C",
"&  c #1A1A1A",
"*  c #0F130E",
"=  c #260100",
"-  c #221E1F",
";  c #1B2115",
":  c #222B1B",
">  c #1A0428",
",  c #1A1322",
"<  c #1E1E2B",
"1  c #1B0F36",
"2  c #231A2C",
"3  c #260738",
"4  c #261738",
"5  c #290F35",
"6  c #122C26",
"7  c #2A2B2A",
"8  c #272826",
"9  c #293125",
"0  c #34392D",
"q  c #2A253B",
"w  c #342D3F",
"e  c #333333",
"r  c #3B3B3A",
"t  c #343636",
"y  c #312F2F",
"u  c #4A0000",
"i  c #570000",
"p  c #700000",
"a  c #582C2C",
"s  c #3B4234",
"d  c #424439",
"f  c #37144C",
"g  c #2D2840",
"h  c #3B3646",
"j  c #342856",
"k  c #253D42",
"l  c #441C5B",
"z  c #400E55",
"x  c #442258",
"c  c #443B56",
"v  c #44395D",
"b  c #423A4C",
"n  c #471A60",
"m  c #462D62",
"M  c #54316D",
"N  c #63297D",
"B  c #63397B",
"V  c #3F4546",
"C  c #484949",
"Z  c #4C5645",
"A  c #4F4F50",
"S  c #545454",
"D  c #575857",
"F  c #4F5555",
"G  c #5E6456",
"H  c #4C4265",
"J  c #554A68",
"K  c #5D5567",
"L  c #584979",
"P  c #5E507C",
"I  c #635977",
"U  c #605B6C",
"Y  c #566864",
"T  c #4D656A",
"R  c #616161",
"E  c #6A6B6A",
"W  c #73786C",
"Q  c #787876",
"!  c #9D0000",
"~  c #F60101",
"^  c #905657",
"/  c #7D8574",
"(  c #74816F",
")  c #773492",
"_  c #71378B",
"`  c #5D418C",
"'  c #665488",
"]  c #684996",
"[  c #7A489B",
"{  c #695794",
"}  c #6D4E93",
"|  c #796E89",
" . c #7D708D",
".. c #7D6EA6",
"X. c #813F9D",
"o. c #8A3BA6",
"O. c #81429E",
"+. c #887B9C",
"@. c #8B4DAB",
"#. c #864AA5",
"$. c #8C55AE",
"%. c #8F56B2",
"&. c #9251B3",
"*. c #9956BD",
"=. c #955ABB",
"-. c #924EB3",
";. c #8664B8",
":. c #9563BB",
">. c #8573AD",
",. c #9D58C1",
"<. c #A15CC7",
"1. c #A45DCA",
"2. c #976BC1",
"3. c #9D75C9",
"4. c #927BC7",
"5. c #8C76C1",
"6. c #A564CC",
"7. c #AC62D4",
"8. c #AF63D8",
"9. c #A27ED0",
"0. c #A773D8",
"q. c #B868E3",
"w. c #C06DEE",
"e. c #7B9497",
"r. c #888A86",
"t. c #989898",
"y. c #91928F",
"u. c #9AA099",
"i. c #A4A998",
"p. c #9688A6",
"a. c #9788B0",
"s. c #A293B8",
"d. c #8EA4A9",
"f. c #A2A2A2",
"g. c gray66",
"h. c #AFAFB0",
"j. c #B4B5B5",
"k. c #BBBCBC",
"l. c #B6BAAD",
"z. c #C0BFBF",
"x. c #BEC3BA",
"c. c #C7C8BB",
"v. c #9F86DC",
"b. c #AC9DC4",
"n. c #A18BD3",
"m. c #AA8CDB",
"M. c #A584D4",
"N. c #A991DC",
"B. c #B3A4C8",
"V. c #BBA7D6",
"C. c #AE8EE1",
"Z. c #B889EB",
"A. c #B683E7",
"S. c #AC95E5",
"D. c #AF99E6",
"F. c #AC96E9",
"G. c #B19BE7",
"H. c #B29DEA",
"J. c #B592E9",
"K. c #BA9FF5",
"L. c #AE9DF0",
"P. c #B5A3EC",
"I. c #BAA6E7",
"U. c #B6A6F2",
"Y. c #BBA3F3",
"T. c #BAABF4",
"R. c #BEA8FA",
"E. c #BBA6F8",
"W. c #BEB3FB",
"Q. c #C2B1DD",
"!. c #C192F0",
"~. c #C2AEEB",
"^. c #C9B7E4",
"/. c #C3A3FD",
"(. c #C3ACFD",
"). c #C8A8FF",
"_. c #CDB3FF",
"`. c #C6B7FA",
"'. c #D0B6FF",
"]. c #D3BCFF",
"[. c #D0BCEA",
"{. c #B5C6CA",
"}. c #B6D1D5",
"|. c #C5C7C1",
" X c #CFD7C7",
".X c #C8D5D5",
"XX c #D4D3D4",
"oX c #DDDDDD",
"OX c #DEE3DD",
"+X c #E3E3D9",
"@X c #D6C4ED",
"#X c #DDCAF5",
"$X c #DDC7FC",
"%X c #E9CEFF",
"&X c #E2C8FD",
"*X c #ECD6FF",
"=X c #F3DAFF",
"-X c #DDE7E9",
";X c #ECEBEC",
":X c #FAE5FF",
">X c #FFEBFF",
",X c #F3F3F3",
"<X c #FAFDF4",
"1X c #FFFFFF",
"2X c #F3F8F9",
"3X c #EBF0E8",
"4X c None",
/* pixels */
"4X4X4X4X4X4X4X4X4X4X4X4X4X4X4X4X4X4X4X4X4X4X4X4X4X4X4X4X4X4X4X4X4X4X4X4X4X4X4X4X4X4X4X4X4X4X4X4X4X4X",
"4X4X4X4X4X4X4X4X4X4X4X4X4X4X4X4X4X4X4X4X4X4X4X4X4X4X4X4X4X4X4X4X4X4X4X4X4X4X4X4X4X4X4X4X4X4X4X4X4X4X",
"4X4X4X4X4X4X4X4X4X4X4X4X4X4X4X4X4X4X4X4X4X4X4X4X4X4X4X4X4X4X4X4X4X4X4X4X4X4X4X4X4X4X4X4X4X4X4X4X4X4X",
"4X4X4X4X4X4X4X4X4X4X4X4X4X4X4X4X4X4X4X4X4X4X4X4X4X4X4X4X4X4X4X4X4X4X4X4X4X4X4X4X4X4X4X4X4X4X4X4X4X4X",
"4X4X4X4X4X4X4X4X4X4X4X4X4X4X4X4X4X4X4X4X4X4X4X4X4X4X4X4X4X4X4X4X4X4X4X4X4X4X4X4X4X4X4X4X4X4X4X4X4X4X",
"4X4X4X4X4X4X4X4X4X4X4X4X4X4X4X4X4X4X4X4X4X4X4X4X4X4X4X4X4X4X4X4X4X4X4X4X4X4X4X4X4X4X4X4X4X4X4X4X4X4X",
"4X4X4X4X4X4X4X4X4X4X4X4X4X4X4X4X4X4X4X4X4X4X4X4X4X4X4X4X4X4X4X4X4X4X4X4X4X4X4X4X4X4X4X4X4X4X4X4X4X4X",
"4X4X4X4X4X4X4X4X4X4X4X4X4X4X4X4X4X4X4X4X4X4X4X4X4X4X4X4X4X4X4X4X4X4X4X4X4X4X4X4X4X4X4X4X4X4X4X4X4X4X",
"4X4X4X4X4X4X4X4X4X4X4X4X4X4X4X4X4X4X4X4X4X4XC 4X4X4X4X4X4X4X4X4X4X4X4X4X4X4X4X4X4X4X4X4X4X4X4X4X4X4X",
"4X4X4X4X4X4X4X4X4X4X4X4X4X4X4X4X4X4X4X4X4X4X  4X4X4X4X4X4X4X4X4X4X4X4X4X4X4X4X4X4X4X4X4X4X4X4X4X4X4X",
"4X4X4X4X4X4X4X4X4X4X4X4X4X4X4X4X4X4X4X4X4Xh w 4X4Xy A 4X4X4X4X4X4X4X4X4X4X4X4X4X4X4X4X4X4X4X4X4X4X4X",
"4X4X4X4X4X4X4X4X4X4X4X4X4X4X4X4X4X4Xt 4X4X . .4X4X  4X4X4X4X4X4X4X4X4X4X4X4X4X4X4X4X4X4X4X4X4X4X4X4X",
"4X4X4X4X4X4X4X4X4X4X4X4X4X4X4X4X4X4Xt o O V.b.O I | 4X4X4X4X4X4X4X4X4X4X4X4X4X4X4X4X4X4X4X4X4X4X4X4X",
"4X4X4X4X4X4X4X4X4X4X4X4X4X4X4X4X4X4XK V.O r.:X8 B.s.4X4X4X4X4X4X4X4X4X4X4X4X4X4X4X4X4X4X4X4X4X4X4X4X",
"4X4X4X4X4X4X4X4X4X4X4X4X4X4X4X4X4X  h :X@XB.#X@X&XQ.& * : 4X4X4X4X4X4X4X4X4X4X4X4X4X4X4X4X4X4X4X4X4X",
"4X4X4X4X4X4X4X4X4X4X4X4X4X4X4X  b a.h.^.#X@X@X#X@X&Xb.+.J 2 . 4X4X4X4X4X4X4X4X4X4X4X4X4X4X4X4X4X4X4X",
"4X4X4X4X4X4X4X4X4X4X4X4X4X. 4 [.1X:X*X].T.I.I.I.~.^.#X*X>X%Xa.g   4X4X4X4X4X4X4X4X4X4X4X4X4X4X4X4X4X",
"4X4X4X4X4X4X4X4X4X4X% 8   I 1XV.j 1 f } /.R.S.F.S.F.G.P.I.[.:X>Xb.,   4X4X4X4X4X4X4X4X4X4X4X4X4X4X4X",
"4X4X4X4X4X4X4X4X4X  k.s c >XL   Z ( D   > Z.R.H.G.G.D.F.F.D.P.I.=X:XK   4X4X4X4X4X4X4X4X4X4X4X4X4X4X",
"4X4X4X4X4X4X4X4XO <Xx.% &X{   +X1X1X1X<X: > Z.U.G.G.G.G.D.D.L.U.G.~.>Xp.  4X4X4X4X4X4X4X4X4X4X4X4X4X",
"4X4X4X4X4X4X4X8 r.1X$ >.'.# c.1X{.,X1X1X3Xo _ J.P.G.D.U.T.T.M.$.S.U.F.=Xp.  4X4X4X4X4X4X4X4X4X4X4X4X",
"4X4X4X4X4X4X4X2 -XY 2 &X{ C .XT {.{.1X1X1XD 3 Z.W.T.T.3.%.N.N.:.9.M.D.F.%XJ 9 4X4X4X4X4X4X4X4X4X4X4X",
"4X4X4X4X4X4X4X7 .X6 ' %X{ d }.7 y e.2X1X1XG > Z.M.%.S.3.) 3.W.`.2.$.T.P.K.Y.$ 4X4X4X4X4X4X4X4X4X4X4X",
"4X4X4X4X4X4X4X7 r.t n._.>.& .Xd.t {.1X1X1X9 z J.3.) 9.T.P.m.@.C.T.m.3.N.G.].L 0 4X4X4X4X4X4X4X4X4X4X",
"4X4X4X4X4X4X4X4X  c (.H._.g s 1X1X1X1X1XW O @.G.T.P.P.G.P.Y.%...L.0.o.9.Y.R.n., 4X4X4X4X4X4X4X4X4X4X",
"4X4X4X4X4X4X4X4X  J $XG.).m.  s |.OXx.Z   N A.T.H.H.G.G.R...Y p.| I ` v.'.R.).q 4X4X4X4X4X4X4X4X4X4X",
"4X4X4X4X4X4X4X4Xd j _.'._.%XH.3 O & X O _ A.R.R._.'.P.D.R.J  X1X<X Xu.U v 4.=XH 4X4X4X4X4X4X4X4X4X4X",
"4X4X4X4X4X4X4X4X4X. , c P { N./.2.[ ,.!./.`.T.n...' n.Y.).L l.1X1X1X1X<Xi.C ] m ; 4X4X4X4X4X4X4X4X4X",
"4X4X4X4X4X4X4X4X4X4X4X&     . $ < q h g q 2 ,       n.(.(.' r.1X1X1X1X1X1X1Xr.  4X4X4X4X4X4X4X4X4X4X",
"4X4X4X4X4X4X4X4X4X4X4X4Xr 1XD 7 W C $ y d ; 7 Q E o n.R.E.4.S 1X1X,X1X,Xj.;X1Xj.e 4X4X4X4X4X4X4X4X4X",
"4X4X4X4X4X4X4X4X4X4X4X4X  E $ e 1Xt.  g.1Xr e 1Xr.  S.U.F.W.v t.1XXXj.1XXXE |.1Xt.    4X4X4X4X4X4X4X",
"4X4X4X4X4X4X4X4X4X4X4X4X        8 $   7 S     7   2 R.U.D.U.n.a 1X1Xf.r.1X;XR t.1Xa u   F 4X4X4X4X4X",
"4X4X4X4X4X4X4X4X4X4X9 @ x o                       H '.G.G.H.$XH W 1X1Xr.R 1X1XD e.^ p   Y 4X4X4X4X4X",
"4X4X4X4X4X4X4X4X4X4X4X3 q.&.M ,                   >.].T.T.G.C.=.,  X1X1XD E 1X1XV     C 4X4X4X4X4X4X",
"4X4X4X4X4X4X4X4X4X4X4X; l q.1.,.B %             h (.D.9.:.&.X.,.n s 1X1X1Xe f.1Xz.  y 4X4X4X4X4X4X4X",
"4X4X4X4X4X4X4X4X4X4X4X4X  M 8.*.<.,._ q X     2 :.6.#.O.X.X.*.<.q.3 / 1X1Xj.r 1Xk.8 4X4X4X4X4X4X4X4X",
"4X4X4X4X4X4X4X4X4X4X4X4X4X  3 *.1.*.1.<.#.[ [ ,.&.O.#.$.&.1.M v ` #   oX1X1XD y.S 4X4X4X4X4X4X4X4X4X",
"4X4X4X4X4X4X4X4X4X4X4X4X4X4X; O f _ *.<.6.8.7.<.*.<.<.*.@.] @ O = O   D 1X1Xh.  4X4X4X4X4X4X4X4X4X4X",
"4X4X4X4X4X4X4X4X4X4X4X4X4X4X4X4X9 $ # 5 f m n n x l f > O = i ! i   j.7 f.1Xh.$ 4X4X4X4X4X4X4X4X4X4X",
"4X4X4X4X4X4X4X4X4X4X4X4X4X4X4X4X4X4X4X4X: 8 0 0 9 : 4X4X6 = ~ i   k.1X  C <X .0 4X4X4X4X4X4X4X4X4X4X",
"4X4X4X4X4X4X4X4X4X4X4X4X4X4X4X4X4X4X4X4X4X4X4X4X4X4X4X4X4X  + o . XXr.< S XXe 4X4X4X4X4X4X4X4X4X4X4X",
"4X4X4X4X4X4X4X4X4X4X4X4X4X4X4X4X4X4X4X4X4X4X4X4X4X4X4X4X4X4X  4X4X  r 4XS   4X4X4X4X4X4X4X4X4X4X4X4X",
"4X4X4X4X4X4X4X4X4X4X4X4X4X4X4X4X4X4X4X4X4X4X4X4X4X4X4X4X4X4X4X4X4XX 4X4Xr y 4X4X4X4X4X4X4X4X4X4X4X4X",
"4X4X4X4X4X4X4X4X4X4X4X4X4X4X4X4X4X4X4X4X4X4X4X4X4X4X4X4X4X4X4X4X4X4X4X4X4X4X4X4X4X4X4X4X4X4X4X4X4X4X",
"4X4X4X4X4X4X4X4X4X4X4X4X4X4X4X4X4X4X4X4X4X4X4X4X4X4X4X4X4X4X4X4X4X4X4X4X4X4X4X4X4X4X4X4X4X4X4X4X4X4X",
"4X4X4X4X4X4X4X4X4X4X4X4X4X4X4X4X4X4X4X4X4X4X4X4X4X4X4X4X4X4X4X4X4X4X4X4X4X4X4X4X4X4X4X4X4X4X4X4X4X4X",
"4X4X4X4X4X4X4X4X4X4X4X4X4X4X4X4X4X4X4X4X4X4X4X4X4X4X4X4X4X4X4X4X4X4X4X4X4X4X4X4X4X4X4X4X4X4X4X4X4X4X",
"4X4X4X4X4X4X4X4X4X4X4X4X4X4X4X4X4X4X4X4X4X4X4X4X4X4X4X4X4X4X4X4X4X4X4X4X4X4X4X4X4X4X4X4X4X4X4X4X4X4X",
"4X4X4X4X4X4X4X4X4X4X4X4X4X4X4X4X4X4X4X4X4X4X4X4X4X4X4X4X4X4X4X4X4X4X4X4X4X4X4X4X4X4X4X4X4X4X4X4X4X4X",
"4X4X4X4X4X4X4X4X4X4X4X4X4X4X4X4X4X4X4X4X4X4X4X4X4X4X4X4X4X4X4X4X4X4X4X4X4X4X4X4X4X4X4X4X4X4X4X4X4X4X"
};
