/* XPM */
static char *result[] = {
/* columns rows colors chars-per-pixel */
"50 50 212 2 ",
"   c #010101",
".  c #040C0C",
"X  c #0C0B0B",
"o  c #090704",
"O  c #190000",
"+  c #150706",
"@  c #0A1508",
"#  c #13160B",
"$  c #0C0214",
"%  c #0C0119",
"&  c #090914",
"*  c #130D1B",
"=  c #16081B",
"-  c #0A1C1C",
";  c #041717",
":  c #151414",
">  c #141319",
",  c #1D1E1E",
"<  c #171718",
"1  c #360401",
"2  c #1E231A",
"3  c #262A1D",
"4  c #090423",
"5  c #180626",
"6  c #091021",
"7  c #191827",
"8  c #1A1034",
"9  c #210B2E",
"0  c #22132C",
"q  c #2A0839",
"w  c #2F163C",
"e  c #192629",
"r  c #2C2B2B",
"t  c #242427",
"y  c #31342E",
"u  c #323C2D",
"i  c #2A2534",
"p  c #2B2737",
"a  c #263737",
"s  c #333232",
"d  c #3B3A39",
"f  c #383B37",
"g  c #2C3235",
"h  c #590000",
"j  c #6C0000",
"k  c #572729",
"l  c #3D423A",
"z  c #404F3A",
"x  c #341A43",
"c  c #371E55",
"v  c #38084C",
"b  c #382848",
"n  c #3B3646",
"m  c #3F3555",
"M  c #3A2F66",
"N  c #411A57",
"B  c #453A59",
"V  c #433E4C",
"C  c #4B3D6A",
"Z  c #483A67",
"A  c #5B3470",
"S  c #573A7C",
"D  c #4B366F",
"F  c #622F79",
"G  c #2F4E50",
"H  c #4E4D4E",
"J  c #474746",
"K  c #4B4654",
"L  c #5C5C5C",
"P  c #565654",
"I  c #4E5248",
"U  c #6A735F",
"Y  c #5C556B",
"T  c #554874",
"R  c #55496D",
"E  c #665B77",
"W  c #496268",
"Q  c #686968",
"!  c #747475",
"~  c #7A7A7A",
"^  c #6A6C7A",
"/  c #8B0000",
"(  c #980000",
")  c #AC0000",
"_  c #A20000",
"`  c #B30101",
"'  c #CF0001",
"]  c #CF1519",
"[  c #E2181F",
"{  c #E20E16",
"}  c #F61920",
"|  c #FF2935",
" . c #807E7E",
".. c #C45052",
"X. c #F5464E",
"o. c #7C8575",
"O. c #858B7D",
"+. c #593580",
"@. c #6C348D",
"#. c #7F3F9D",
"$. c #632F80",
"%. c #7A4596",
"&. c #675593",
"*. c #675487",
"=. c #70718C",
"-. c #6F59A8",
";. c #7868A2",
":. c #813F9D",
">. c #843FA0",
",. c #81449E",
"<. c #857698",
"1. c #8444A2",
"2. c #8A4DAA",
"3. c #8B47AA",
"4. c #8753AC",
"5. c #8E55B1",
"6. c #9151B3",
"7. c #9759BC",
"8. c #8D4EB0",
"9. c #9565BC",
"0. c #8574B2",
"q. c #8472A9",
"w. c #9D5BC2",
"e. c #A05BC6",
"r. c #A55DCB",
"t. c #9769C4",
"y. c #9C74C7",
"u. c #A96ED4",
"i. c #B665E1",
"p. c #B969E4",
"a. c #B27EE2",
"s. c #898987",
"d. c #949A89",
"f. c #9A9B9B",
"g. c #908A94",
"h. c #A1A699",
"j. c #9481BE",
"k. c #9284A4",
"l. c #A797BF",
"z. c #ACACAC",
"x. c #A7ACA8",
"c. c #ABB4A9",
"v. c #B1B4AB",
"b. c #B6B8AC",
"n. c #B7B6B7",
"m. c #B9BDB4",
"M. c #BEBEBE",
"N. c #A4B7BB",
"B. c #FF8085",
"V. c #C4C9B9",
"C. c #9883C8",
"Z. c #9A86D0",
"A. c #A483D4",
"S. c #A88BD9",
"D. c #A794DB",
"F. c #B8A8CD",
"G. c #BCACD4",
"H. c #AE89E3",
"J. c #B784E7",
"K. c #AC94E4",
"L. c #AF98E5",
"P. c #AE9BE9",
"I. c #B19BE7",
"U. c #B39DEA",
"Y. c #B591E9",
"T. c #BA9AF4",
"R. c #BF8AF2",
"E. c #B6A2E6",
"W. c #B4A2EC",
"Q. c #BBA8E8",
"!. c #B6A5F1",
"~. c #BBA5F3",
"^. c #B9ABF4",
"/. c #BCA8F7",
"(. c #BDB1F9",
"). c #C3AFDB",
"_. c #C2B3D8",
"`. c #C59DF9",
"'. c #C5ACFE",
"]. c #C8AEFF",
"[. c #C3A7FC",
"{. c #C3B1FC",
"}. c #CCB3FF",
"|. c #D1B7FF",
" X c #D6BDFA",
".X c #CAB9E4",
"XX c #E0B7FF",
"oX c #B2C6C9",
"OX c #BCD4D7",
"+X c #CECECD",
"@X c #C6C7C5",
"#X c #C6D4D5",
"$X c #D2D2D2",
"%X c #DCDCDC",
"&X c #E0E0DF",
"*X c #D5C2EE",
"=X c #DCC8F5",
"-X c #DBC4FD",
";X c #D8C6F7",
":X c #E3C4FF",
">X c #E5CDFD",
",X c #EAD6FD",
"<X c #F0DCFF",
"1X c #E5E8E7",
"2X c #FFEAFF",
"3X c #F8E1FF",
"4X c #E9F1F3",
"5X c #FFF3FF",
"6X c #FFFFFF",
"7X c #F1F1F1",
"8X c #F5EDE7",
"9X c None",
/* pixels */
"9X9X9X9X9X9X9X9X9X9X9X9X9X9X9X9X9X9X9X9X9X9X9X9X9X9X9X9X9X9X9X9X9X9X9X9X9X9X9X9X9X9X9X9X9X9X9X9X9X9X",
"9X9X9X9X9X9X9X9X9X9X9X9X9X9X9X9X9X9X9X9X9X9X9X9X9X9X9X9X9X9X9X9X9X9X9X9X9X9X9X9X9X9X9X9X9X9X9X9X9X9X",
"9X9X9X9X9X9X9X9X9X9X9X9X9X9X9X9X9X9X9X9X9X9X9X9X9X9X9X9X9X9X9X9X9X9X9X9X9X9X9X9X9X9X9X9X9X9X9X9X9X9X",
"9X9X9X9X9X9X9X9X9X9X9X9X9X9X9X9X9X9X9X9X9X9X9X9X9X9X9X9X9X9X9X9X9X9X9X9X9X9X9X9X9X9X9X9X9X9X9X9X9X9X",
"9X9X9X9X9X9X9X9X9X9X9X9X9X9X9X9X9X9X9X9X9X9X9X9X9X9X9X9X9X9X9X9X9X9X9X9X9X9X9X9X9X9X9X9X9X9X9X9X9X9X",
"9X9X9X9X9X9X9X9X9X9X9X9X9X9X9X9X9X9X9X9X9X9X9X9X9X9X9X9X9X9X9X9X9X9X9X9X9X9X9X9X9X9X9X9X9X9X9X9X9X9X",
"9X9X9X9X9X9X9X9X9X9X9X9X9X9X9X9X9X9X9X9X9X9X9X9X9X9X9X9X9X9X9X9X9X9X9X9X9X9X9X9X9X9X9X9X9X9X9X9X9X9X",
"9X9X9X9X9X9X9X9X9X9X9X9X9X9X9X9X9X9X9X9X9X9X9X9X9X9X9X9X9X9X9X9X9X9X9X9X9X9X9X9X9X9X9X9X9X9X9X9X9X9X",
"9X9X9X9X9X9X9X9X9X9X9X9X9X9X9X9X9X9X9X9X9XL 9X9X9X9X9X9X9X9X9X9X9X9X9X9X9X9X9X9X9X9X9X9X9X9X9X9X9X9X",
"9X9X9X9X9X9X9X9X9X9X9X9X9X9X9X9X9X9X9X9X9X  9X9X9X9X9X9X9X9X9X9X9X9X9X9X9X9X9X9X9X9X9X9X9X9X9X9X9X9X",
"9X9X9X9X9X9X9X9X9X9X9X9X9X9X9X9X9X9X9X9XJ p 9X9XJ r 9X9X9X9X9X9X9X9X9X9X9X9X9X9X9X9X9X9X9X9X9X9X9X9X",
"9X9X9X9X9X9X9X9X9X9X9X9X9X9X9X9X9XH J 9X^ q.9X9X  L 9X9X9X9X9X9X9X9X9X9X9X9X9X9X9X9X9X9X9X9X9X9X9X9X",
"9X9X9X9X9X9X9X9X9X9X9X9X9X9X9X9X9XH $   k.=X  V <.9X9X9X9X9X9X9X9X9X9X9X9X9X9X9X9X9X9X9X9X9X9X9X9X9X",
"9X9X9X9X9X9X9X9X9X9X9X9X9X9X9X9X9XH ).i Y 5XV k.).d 9X9X9X9X9X9X9X9X9X9X9X9X9X9X9X9X9X9X9X9X9X9X9X9X",
"9X9X9X9X9X9X9X9X9X9X9X9X9X9X9Xt o r >X,XG.*X>X*X-Xd X 3 9X9X9X9X9X9X9X9X9X9X9X9X9X9X9X9X9X9X9X9X9X9X",
"9X9X9X9X9X9X9X9X9X9X9X9X9X# X Y F._._.=X=X.X*X*X=X_.l.q.K > # 9X9X9X9X9X9X9X9X9X9X9X9X9X9X9X9X9X9X9X",
"9X9X9X9X9X9X9X9X9X9X9X9X  n ,X6X>X X X{.E.E.E.Q.Q.;X-X<X2X XE & o 9X9X9X9X9X9X9X9X9X9X9X9X9X9X9X9X9X",
"9X9X9X9X9X9X9X9X9XX y   =.6X0.8 5 4 c H.}.P.K.K.K.L.U.W.).-X2X,XY   9X9X9X9X9X9X9X9X9X9X9X9X9X9X9X9X",
"9X9X9X9X9X9X9X9X  &XI B 2XZ   U h.d.3   5.].W.P.I.P.L.L.K.P.E. X5XF.  2 9X9X9XQ L d 9X! Q 9X9X9X9X9X",
"9X9X9X9X9X9X9X  6Xm.* :X&.o 7X6X6X6X6XU   y.^.P.I.I.I.I.P.P.W.L.I.3X2Xn   d s L f.~ M.6X! 9X9X9X9X9X",
"9X9X9X9X9X9Xs O.6X# ;.-X* b.6XoX4X6X6X6Xy v R.!.I.L.W./.^.D.7.`.T.-.;.^ : ! M.@X1X6X6Xg.P 9X9X9X9X9X",
"9X9X9X9X9X9Xt #X^ 7 -X;.d #XG z.N.4X6X6Xo.$ a.(.!.^.S.5.y.|.4.c Y ! s.@X6X6X6X6X6X&X! , 9X9X9X9X9X9X",
"9X9X9X9X9X9Xt oXr *.>X;.f OXl + =.4X6X6Xo.$ a.A.1.A.S.%.a.0.e O.1X6X6X6X6X6X7Xn.s.Q +Xs.9X9X9X9X9X9X",
"9X9X9X9X9X9Xs U n C.].K.7 c.OXW oX6X6X6Xl q Y.S.1.y.!.}.Z.# V.6X6X6X&X$X@Xn.z.n.$X6Xn.H 9X9X9X9X9X9X",
"9X9X9X9X9X9X9X  n [.I.|.C # 7X6X6X6X6Xo.  1.K.^.!.W.I.}.C ~ 6X6X6X7X$XM.x.z.@X+X$X~   9X9X9X9X9X9X9X",
"9X9X9X9X9X9X9X# B :XI.!.[.7 o d.m.h.l   F a.!.I.U.I.L.}.R d.6X6X6X6X6X6X6X&X@Xz.L < 9X9X9X9X9X9X9X9X",
"9X9X9X9X9X9X9X9X8 K./.}.>X:X+.$ = $ % #.`.`.}.|.|.W.L./.C.b P O.h.x.v.b.b.x.g.L H 9X9X9X9X9X9X9X9X9X",
"9X9X9X9X9X9X9X9X< : p m Z ;.K.t.4.t.J.Y.W.S.0.&.B j.[.L.}.I.&.R Z R R T T ;.Z   9X9X9X9X9X9X9X9X9X9X",
"9X9X9X9X9X9X9X9X9X9Xd o r # o > e i t 7 > &       0.}.I.L.W.'.}.}.}.'.'.-XXX@.y 9X9X9X9X9X9X9X9X9X9X",
"9X9X9X9X9X9X9X9X9X9X9Xt 6XQ s m.s.< J O.l s v.z.X q.'.I.L.I.I.I.I.P.I.^.T.r.q ; G 9X9X9X9X9X9X9X9X9X",
"9X9X9X9X9X9X9X9X9X9X9X  r o < $Xf.  Q 6XH o $Xs.  C.'.I.I.I.I.I.P.!.!.Y.6.%   1 1   . 9X9X9X9X9X9X9X",
"9X9X9X9X9X9X9X9X9X9Xl               o ,     o   > I.~.U.I.I.I.!.^.K.u.8.&   ] | } _ o ; 9X9X9X9X9X9X",
"9X9X9X9X9X9X9X9X9Xf $ A 0                       n '.I.I.W.^.!.L.t.3.3.8   [ | [ ` (   e 9X9X9X9X9X9X",
"9X9X9X9X9X9X9X9X9X9X5 i.r.%.w                   ;.;X^.!.L.A.9.1.,.i.S   ..X.{ ) /   - 9X9X9X9X9X9X9X",
"9X9X9X9X9X9X9X9X9X9Xu 5 i.r.r.%.b o           i ~.H.y.9.4.1.1.6.,.S 6 1 8XX.) /   a 9X9X9X9X9X9X9X9X",
"9X9X9X9X9X9X9X9X9X9X9X@ 5 e.r.w.r.4.A w * * x 9.w.,.,.1.1.2.7.i.%.    k B.` /   - 9X9X9X9X9X9X9X9X9X",
"9X9X9X9X9X9X9X9X9X9X9X9X@   $.r.r.e.r.e.6.6.r.6.1.2.6.7.p.A * M ,     o ) _   e 9X9X9X9X9X9X9X9X9X9X",
"9X9X9X9X9X9X9X9X9X9X9X9X9X9Xo % N @.6.w.r.r.e.e.e.7.1.%.S 6   1 O . 9Xa O O - 9X9X9X9X9X9X9X9X9X9X9X",
"9X9X9X9X9X9X9X9X9X9X9X9X9X9X9X9X2 < * 9 q x x w 9 0 7   O j ` h   9X9X9X  . 9X9X9X9X9X9X9X9X9X9X9X9X",
"9X9X9X9X9X9X9X9X9X9X9X9X9X9X9X9X9X9X9X9X9X9X9X9X9X9X9X9X  ' j   9X9X9X9X9X9X9X9X9X9X9X9X9X9X9X9X9X9X",
"9X9X9X9X9X9X9X9X9X9X9X9X9X9X9X9X9X9X9X9X9X9X9X9X9X9X9X9X7     9X9X9X9X9X9X9X9X9X9X9X9X9X9X9X9X9X9X9X",
"9X9X9X9X9X9X9X9X9X9X9X9X9X9X9X9X9X9X9X9X9X9X9X9X9X9X9X9X9X- 9X9X9X9X9X9X9X9X9X9X9X9X9X9X9X9X9X9X9X9X",
"9X9X9X9X9X9X9X9X9X9X9X9X9X9X9X9X9X9X9X9X9X9X9X9X9X9X9X9X9X9X9X9X9X9X9X9X9X9X9X9X9X9X9X9X9X9X9X9X9X9X",
"9X9X9X9X9X9X9X9X9X9X9X9X9X9X9X9X9X9X9X9X9X9X9X9X9X9X9X9X9X9X9X9X9X9X9X9X9X9X9X9X9X9X9X9X9X9X9X9X9X9X",
"9X9X9X9X9X9X9X9X9X9X9X9X9X9X9X9X9X9X9X9X9X9X9X9X9X9X9X9X9X9X9X9X9X9X9X9X9X9X9X9X9X9X9X9X9X9X9X9X9X9X",
"9X9X9X9X9X9X9X9X9X9X9X9X9X9X9X9X9X9X9X9X9X9X9X9X9X9X9X9X9X9X9X9X9X9X9X9X9X9X9X9X9X9X9X9X9X9X9X9X9X9X",
"9X9X9X9X9X9X9X9X9X9X9X9X9X9X9X9X9X9X9X9X9X9X9X9X9X9X9X9X9X9X9X9X9X9X9X9X9X9X9X9X9X9X9X9X9X9X9X9X9X9X",
"9X9X9X9X9X9X9X9X9X9X9X9X9X9X9X9X9X9X9X9X9X9X9X9X9X9X9X9X9X9X9X9X9X9X9X9X9X9X9X9X9X9X9X9X9X9X9X9X9X9X",
"9X9X9X9X9X9X9X9X9X9X9X9X9X9X9X9X9X9X9X9X9X9X9X9X9X9X9X9X9X9X9X9X9X9X9X9X9X9X9X9X9X9X9X9X9X9X9X9X9X9X",
"9X9X9X9X9X9X9X9X9X9X9X9X9X9X9X9X9X9X9X9X9X9X9X9X9X9X9X9X9X9X9X9X9X9X9X9X9X9X9X9X9X9X9X9X9X9X9X9X9X9X"
};
