/* XPM */
static char *result[] = {
/* columns rows colors chars-per-pixel */
"50 50 209 2 ",
"   c #010101",
".  c #0B0000",
"X  c #030A00",
"o  c #06020B",
"O  c #0C0C0C",
"+  c #050B0B",
"@  c #160000",
"#  c #100F0B",
"$  c #0E100C",
"%  c #14180B",
"&  c #0A0513",
"*  c #130C19",
"=  c #05191A",
"-  c #141515",
";  c #16121B",
":  c #191C18",
">  c #250000",
",  c #2A0700",
"<  c #2A0B0A",
"1  c #142112",
"2  c #22261B",
"3  c #0C0C29",
"4  c #190929",
"5  c #1B1A27",
"6  c #1D1835",
"7  c #0B1329",
"8  c #22192C",
"9  c #29093A",
"0  c #271835",
"q  c #301D3C",
"w  c #1B2D2D",
"e  c #0E2020",
"r  c #292828",
"t  c #2A3426",
"y  c #30322D",
"u  c #323B2C",
"i  c #262434",
"p  c #322D38",
"a  c #323231",
"s  c #3C3C3C",
"d  c #363837",
"f  c #2A3330",
"g  c #640000",
"h  c #750000",
"j  c #58292B",
"k  c #394233",
"l  c #424B3E",
"z  c #361449",
"x  c #33164A",
"c  c #332D43",
"v  c #3C3449",
"b  c #3F2C59",
"n  c #400E55",
"m  c #443959",
"M  c #403B48",
"N  c #551C6A",
"B  c #482866",
"V  c #4A3D68",
"C  c #513673",
"Z  c #613877",
"A  c #344C51",
"S  c #424545",
"D  c #47444B",
"F  c #53574A",
"G  c #545454",
"H  c #5B5B5B",
"J  c #485058",
"K  c #52624C",
"L  c #4F4468",
"P  c #544A6B",
"I  c #584879",
"U  c #4E5869",
"Y  c #605C67",
"T  c #655B74",
"R  c #656564",
"E  c #6A6B65",
"W  c #74796A",
"Q  c #6D6874",
"!  c #767874",
"~  c #920000",
"^  c #AB0001",
"/  c #A50000",
"(  c #B30203",
")  c #B71114",
"_  c #D80C0F",
"`  c #E8121A",
"'  c #F01A22",
"]  c #FF2834",
"[  c #FF3F4A",
"{  c #B74043",
"}  c #F24B51",
"|  c #7C8279",
" . c #838D7D",
".. c #6C3787",
"X. c #7A3A97",
"o. c #6F3795",
"O. c #5C4C80",
"+. c #72438D",
"@. c #6C5C94",
"#. c #6D4193",
"$. c #76698E",
"%. c #7C50A3",
"&. c #7866A3",
"*. c #7F68BB",
"=. c #823F9E",
"-. c #843FA1",
";. c #82469E",
":. c #897B9A",
">. c #844CA5",
",. c #8B4EAC",
"<. c #8548A4",
"1. c #8C53AE",
"2. c #934AB4",
"3. c #9459B9",
"4. c #8D4DB1",
"5. c #8A78B5",
"6. c #806EAB",
"7. c #9E5AC3",
"8. c #A15CC7",
"9. c #A45ECB",
"0. c #986BC4",
"q. c #976AC0",
"w. c #927EC3",
"e. c #9D76C8",
"r. c #A463CB",
"t. c #AC62D4",
"y. c #B465DE",
"u. c #A774D4",
"i. c #B17BDE",
"p. c #A27ECF",
"a. c #B573E4",
"s. c #6A8483",
"d. c #878885",
"f. c #989C8E",
"g. c #9A9A96",
"h. c #8E998B",
"j. c #9CA09B",
"k. c #ACAB9E",
"l. c #9486A8",
"z. c #A394B8",
"x. c #AAAAAA",
"c. c #A4A4A4",
"v. c #ADB2A4",
"b. c #B1B6A5",
"n. c #AAB9BA",
"m. c #BDBCBD",
"M. c #B6B8B5",
"N. c #FF9398",
"B. c #BFC2B5",
"V. c #C3C7BA",
"C. c #9682C5",
"Z. c #A686D6",
"A. c #A58CDA",
"S. c #A88CDA",
"D. c #B09DD0",
"F. c #B6A5CB",
"G. c #ACBEC2",
"H. c #B887EA",
"J. c #AC95E6",
"K. c #AE99E5",
"L. c #AE9BE9",
"P. c #B19BE7",
"I. c #B39DE9",
"U. c #BB98F2",
"Y. c #B78FF0",
"T. c #B9A5E6",
"R. c #B5A2EC",
"E. c #BBA7E7",
"W. c #BCA3F4",
"Q. c #B9ABF4",
"!. c #BDA5FE",
"~. c #BAA8F6",
"^. c #BDB2FA",
"/. c #C0AEDC",
"(. c #C2B3D8",
"). c #C29BF7",
"_. c #C2AFE8",
"`. c #C4ADFE",
"'. c #C8AEFF",
"]. c #C1A7FF",
"[. c #CCB2FF",
"{. c #C8B6FA",
"}. c #D3B6FF",
"|. c #D7BBFF",
" X c #CAB9E3",
".X c #E1BBFF",
"XX c #B5CBCE",
"oX c #CCCCCB",
"OX c #C6C6C7",
"+X c #CED2C9",
"@X c #C8D4D4",
"#X c #D4D4D4",
"$X c gainsboro",
"%X c #DCE0D1",
"&X c #E0E0D6",
"*X c #D6C3EE",
"=X c #DBC2FD",
"-X c #DAC6F7",
";X c #E4CDFC",
":X c #E9D4FD",
">X c #ECEDED",
",X c #E1E1E1",
"<X c #FAE3FF",
"1X c #FCEAFF",
"2X c #E9F1F3",
"3X c #FFFFFF",
"4X c #F8F4F9",
"5X c #FFE2E5",
"6X c None",
/* pixels */
"6X6X6X6X6X6X6X6X6X6X6X6X6X6X6X6X6X6X6X6X6X6X6X6X6X6X6X6X6X6X6X6X6X6X6X6X6X6X6X6X6X6X6X6X6X6X6X6X6X6X",
"6X6X6X6X6X6X6X6X6X6X6X6X6X6X6X6X6X6X6X6X6X6X6X6X6X6X6X6X6X6X6X6X6X6X6X6X6X6X6X6X6X6X6X6X6X6X6X6X6X6X",
"6X6X6X6X6X6X6X6X6X6X6X6X6X6X6X6X6X6X6X6X6X6X6X6X6X6X6X6X6X6X6X6X6X6X6X6X6X6X6X6X6X6X6X6X6X6X6X6X6X6X",
"6X6X6X6X6X6X6X6X6X6X6X6X6X6X6X6X6X6X6X6X6X6X6X6X6X6X6X6X6X6X6X6X6X6X6X6X6X6X6X6X6X6X6X6X6X6X6X6X6X6X",
"6X6X6X6X6X6X6X6X6X6X6X6X6X6X6X6X6X6X6X6X6X6X6X6X6X6X6X6X6X6X6X6X6X6X6X6X6X6X6X6X6X6X6X6X6X6X6X6X6X6X",
"6X6X6X6X6X6X6X6X6X6X6X6X6X6X6X6X6X6X6X6X6X6X6X6X6X6X6X6X6X6X6X6X6X6X6X6X6X6X6X6X6X6X6X6X6X6X6X6X6X6X",
"6X6X6X6X6X6X6X6X6X6X6X6X6X6X6X6X6X6X6X6X6X6X6X6X6X6X6X6X6X6X6X6X6X6X6X6X6X6X6X6X6X6X6X6X6X6X6X6X6X6X",
"6X6X6X6X6X6X6X6X6X6X6X6X6X6X6X6X6X6X6X6X6X6X6X6X6X6X6X6X6X6X6X6X6X6X6X6X6X6X6X6X6X6X6X6X6X6X6X6X6X6X",
"6X6X6X6X6X6X6X6X6X6X6X6X6X6X6X6X6X6X6X6X6X6X6X6X6X6X6X6X6X6X6X6X6X6X6X6X6X6X6X6X6X6X6X6X6X6X6X6X6X6X",
"6X6X6X6X6X6X6X6X6X6X6X6X6X6X6X6X6X6X6X6X  6X6X6X6X6X6X6X6X6X6X6X6X6X6X6X6X6X6X6X6X6X6X6X6X6X6X6X6X6X",
"6X6X6X6X6X6X6X6X6X6X6X6X6X6X6X6X6X6X6XD 8 6X6X6Xa 6X6X6X6X6X6X6X6X6X6X6X6X6X6X6X6X6X6X6X6X6X6X6X6X6X",
"6X6X6X6X6X6X6X6X6X6X6X6X6X6X6X6XG H 6XT :.6X6X  G 6X6X6X6X6X6X6X6X6X6X6X6X6X6X6X6X6X6X6X6X6X6X6X6X6X",
"6X6X6X6X6X6X6X6X6X6X6X6X6X6X6X6XD o   l.|.  v $.6X6X6X6X6X6X6X6X6X6X6X6X6X6X6X6X6X6X6X6X6X6X6X6X6X6X",
"6X6X6X6X6X6X6X6X6X6X6X6X6X6X6X6XG F.; Y 3Xa d./.k 6X6X6X6X6X6X6X6X6X6X6X6X6X6X6X6X6X6X6X6X6X6X6X6X6X",
"6X6X6X6X6X6X6X6X6X6X6X6X6X6X6X. r -X:XD.-X*X*X=Xp $ r 6X6X6X6X6X6X6X6X6X6X6X6X6X6X6X6X6X6X6X6X6X6X6X",
"6X6X6X6X6X6X6X6X6X6X6X6X2 o J z.F.(.;X-X X-X-X;XF.l.$.v $ : 6X6X6X6X6X6X6X6X6X6X6X6X6X6X6X6X6X6X6X6X",
"6X6X6X6X6X6X6X6X6X6X6XX i *X3X<X;X|.Q.T.T.E.E._.*X;X<X<XE.P o % 6X6X6X6X6X6X6X6X6X6X6X6X6X6X6X6X6X6X",
"6X6X6X6X6X6X6X6XO r   T 3XD.x 4 4 C Y.`.J.J.J.L.I.I.E._.-X4X*Xm   6X6X6X6X6X6X6X6X6X6X6X6X6X6X6X6X6X",
"6X6X6X6X6X6X6X  OXF v 1XO.  F  .! %   0.`.R.P.P.P.L.J.J.P.T.-X4Xz.  y 6X6X6XE Y s 6XR H 6X6X6X6X6X6X",
"6X6X6X6X6X6X  >X+X* |.&.  &X3X3X3X3XK o u.~.I.P.P.P.P.K.L.~.I.T.1X:Xi O D a G g.! x.3X! 6X6X6X6X6X6X",
"6X6X6X6X6Xd ! 3X: @.|.; k.3XXX2X3X3X3Xt z U.R.I.K.T.Q.Q.S.3.].!.5.5.T   R M.m.$X3X3Xj.G 6X6X6X6X6X6X",
"6X6X6X6X6Xr oXs.5 }.6.s @XU n.G.>X3X3X| & a.^.~.Q.A.3.e.[.3.b P Q ! m.3X3X3X3X3X>X! : 6X6X6X6X6X6X6X",
"6X6X6X6X6Xr XXf I ;X&.d XXd : s.2X3X3X .& a.S.,.Z.S.X.i.C.e W $X3X3X3X3X3X3XOXd.R m.:.6X6X6X6X6X6X6X",
"6X6X6X6X6Xf | j w.[.Z.8 n.XXA n.3X3X3Xl 9 H.Z.=.0.Q.`.A.* b.3X3X3X>X#XOXM.x.x.oX3XoXF 6X6X6X6X6X6X6X",
"6X6X6X6X6X6X  v ].I.}.m 2 >X3X3X3X3Xh.o =.J.Q.R.T.L.}.V W 3X3X3X2X#Xm.x.x.m.+X#Xh.  6X6X6X6X6X6X6X6X",
"6X6X6X6X6X6XX m =XI.~.W.* 1 v.+XM.K   N i.R.L.R.P.P.[.L g.3X3X3X3X3X3X3X,XoXM.R * 6X6X6X6X6X6X6X6X6X",
"6X6X6X6X6X6X6X0 !.`.}.;X}.B o * & o ..a.~.`.[.|.R.K.~.5.d R f.v.B.V.V.B.v.j.Q H 6X6X6X6X6X6X6X6X6X6X",
"6X6X6X6X6X6X6X$ ; c L I 5.).q.%.3.H.).~.R.C.&.P C.`.K.'.A.I V V L P P P @.B   6X6X6X6X6X6X6X6X6X6X6X",
"6X6X6X6X6X6X6X6X6Xy   : # # 5 i c p i 5 ; o     5.[.P.K.W.[.[.`.`.!.].}..Xo.y 6X6X6X6X6X6X6X6X6X6X6X",
"6X6X6X6X6X6X6X6X6X6Xr 3XE y j.! : d E a r g.g.$ &.'.P.I.P.P.P.P.P.P.Q.W.t.z = 6X6X6X6X6X6X6X6X6X6X6X",
"6X6X6X6X6X6X6X6X6X6X  S O : ,Xx.  ! 3XG O ,Xg.  C.`.P.P.P.P.P.P.R.Q.U.3.4   > >   : 6X6X6X6X6X6X6X6X",
"6X6X6X6X6X6X6X6X6X6X        + o   O a X   $   * P.W.P.P.P.I.R.Q.P.u.2.3   ) ] ' ~   = 6X6X6X6X6X6X6X",
"6X6X6X6X6X6X6X6Xd & B ;                       c `.I.P.I.Q.Q.P.e.,.,.6   _ ] ' ( ~ O e 6X6X6X6X6X6X6X",
"6X6X6X6X6X6X6X6X6X4 a.7...0                   $.=XQ.Q.I.Z.q.>.=.y...  { [ ` ^ ~   + 6X6X6X6X6X6X6X6X",
"6X6X6X6X6X6X6X6X6Xt 9 y.9.9.+.q             r U.I.p.q.1.<.=.,.;.+.3 , 5X} ^ ~   w 6X6X6X6X6X6X6X6X6X",
"6X6X6X6X6X6X6X6X6X6X  9 9.3.8.9.;.B 8 O o 0 3.0.<.<.X.<.1.8.y.>.    j N.( ~ . = 6X6X6X6X6X6X6X6X6X6X",
"6X6X6X6X6X6X6X6X6X6X6XX & X.r.9.9.9.8.<.,.7.2.;.<.,.4.y.Z 6 C 4     @ ( ^ . e 6X6X6X6X6X6X6X6X6X6X6X",
"6X6X6X6X6X6X6X6X6X6X6X6X6X  4 N +.3.9.t.t.r.8.r.7.4.%.#.7   , @   6Xw > > + 6X6X6X6X6X6X6X6X6X6X6X6X",
"6X6X6X6X6X6X6X6X6X6X6X6X6X6X6X% ; 4 9 9 x z x 9 9 4   @ g ^ g   6X6X6X    6X6X6X6X6X6X6X6X6X6X6X6X6X",
"6X6X6X6X6X6X6X6X6X6X6X6X6X6X6X6X6X6X6X6Xu u k 6X6X6XK o _ h   6X6X6X6X6X6X6X6X6X6X6X6X6X6X6X6X6X6X6X",
"6X6X6X6X6X6X6X6X6X6X6X6X6X6X6X6X6X6X6X6X6X6X6X6X6X6X6X-     6X6X6X6X6X6X6X6X6X6X6X6X6X6X6X6X6X6X6X6X",
"6X6X6X6X6X6X6X6X6X6X6X6X6X6X6X6X6X6X6X6X6X6X6X6X6X6X6X6X+ S 6X6X6X6X6X6X6X6X6X6X6X6X6X6X6X6X6X6X6X6X",
"6X6X6X6X6X6X6X6X6X6X6X6X6X6X6X6X6X6X6X6X6X6X6X6X6X6X6X6X6X6X6X6X6X6X6X6X6X6X6X6X6X6X6X6X6X6X6X6X6X6X",
"6X6X6X6X6X6X6X6X6X6X6X6X6X6X6X6X6X6X6X6X6X6X6X6X6X6X6X6X6X6X6X6X6X6X6X6X6X6X6X6X6X6X6X6X6X6X6X6X6X6X",
"6X6X6X6X6X6X6X6X6X6X6X6X6X6X6X6X6X6X6X6X6X6X6X6X6X6X6X6X6X6X6X6X6X6X6X6X6X6X6X6X6X6X6X6X6X6X6X6X6X6X",
"6X6X6X6X6X6X6X6X6X6X6X6X6X6X6X6X6X6X6X6X6X6X6X6X6X6X6X6X6X6X6X6X6X6X6X6X6X6X6X6X6X6X6X6X6X6X6X6X6X6X",
"6X6X6X6X6X6X6X6X6X6X6X6X6X6X6X6X6X6X6X6X6X6X6X6X6X6X6X6X6X6X6X6X6X6X6X6X6X6X6X6X6X6X6X6X6X6X6X6X6X6X",
"6X6X6X6X6X6X6X6X6X6X6X6X6X6X6X6X6X6X6X6X6X6X6X6X6X6X6X6X6X6X6X6X6X6X6X6X6X6X6X6X6X6X6X6X6X6X6X6X6X6X",
"6X6X6X6X6X6X6X6X6X6X6X6X6X6X6X6X6X6X6X6X6X6X6X6X6X6X6X6X6X6X6X6X6X6X6X6X6X6X6X6X6X6X6X6X6X6X6X6X6X6X",
"6X6X6X6X6X6X6X6X6X6X6X6X6X6X6X6X6X6X6X6X6X6X6X6X6X6X6X6X6X6X6X6X6X6X6X6X6X6X6X6X6X6X6X6X6X6X6X6X6X6X"
};
