/* XPM */
static char *ac3c6cd890354a2a94c599f93420fed5pL0ReqWrLsvOJP1O[] = {
/* columns rows colors chars-per-pixel */
"50 50 201 2 ",
"   c None",
".  c #240044",
"X  c #300045",
"o  c #2E0053",
"O  c #2D005B",
"+  c #350054",
"@  c #320059",
"#  c #3C005B",
"$  c #380051",
"%  c #2B0065",
"&  c #2D0069",
"*  c #330064",
"=  c #3D0061",
"-  c #34006C",
";  c #3D006A",
":  c #360073",
">  c #380075",
",  c #44004E",
"<  c #430056",
"1  c #4C0053",
"2  c #42005B",
"3  c #4B005C",
"4  c #560055",
"5  c #5A025E",
"6  c #5A0A5E",
"7  c #5F115C",
"8  c #65005B",
"9  c #69035C",
"0  c #680F59",
"q  c #6B1C55",
"w  c #63145B",
"e  c #6A1658",
"r  c #7A1E55",
"t  c #73115B",
"y  c #791659",
"u  c #67064C",
"i  c #78274C",
"p  c #76304F",
"a  c #6E2257",
"s  c #7C2252",
"d  c #73255A",
"f  c #7B3454",
"g  c #430064",
"h  c #4B0063",
"j  c #43006B",
"k  c #4B006B",
"l  c #46086F",
"z  c #530262",
"x  c #5D0463",
"c  c #5A0B61",
"v  c #57006A",
"b  c #5B006B",
"n  c #480070",
"m  c #550D79",
"M  c #640263",
"N  c #6A0565",
"B  c #620866",
"V  c #751962",
"C  c #701563",
"Z  c #640078",
"A  c #A0511E",
"S  c #91432B",
"D  c #9C4133",
"F  c #98453B",
"G  c #A54B28",
"H  c #AC552A",
"J  c #A34C33",
"K  c #A45834",
"L  c #B35A28",
"P  c #9E623F",
"I  c #AF612D",
"U  c #BC6324",
"Y  c #B4622A",
"T  c #B67A2E",
"R  c #A6663C",
"E  c #AA733A",
"W  c #BA743B",
"Q  c #BC7D32",
"!  c #CD7B1A",
"~  c #D27D16",
"^  c #C47B22",
"/  c #862B4B",
"(  c #883546",
")  c #983C44",
"_  c #832552",
"`  c #832E55",
"'  c #873756",
"]  c #973C55",
"[  c #8C4143",
"{  c #894847",
"}  c #9A4A4A",
"|  c #9C564D",
" . c #93544C",
".. c #914B52",
"X. c #965152",
"o. c #A14F4A",
"O. c #A5644B",
"+. c #AB7346",
"@. c #B37745",
"#. c #B47E45",
"$. c #BC8C2E",
"%. c #B98A3C",
"&. c #BF9A38",
"*. c #D98413",
"=. c #DB8712",
"-. c #CB9C1F",
";. c #E08A0D",
":. c #EB9808",
">. c #F39E00",
",. c #DDAE13",
"<. c #EDAD0E",
"1. c #F4A400",
"2. c #FBA300",
"3. c #F5AC00",
"4. c #FEAB00",
"5. c #F5AA09",
"6. c #F6B400",
"7. c #FFB400",
"8. c #F6BC01",
"9. c #FFBB00",
"0. c #F0BA08",
"q. c #E5BF18",
"w. c #F6B510",
"e. c #C4823E",
"r. c #C88C30",
"t. c #C09C39",
"y. c #D8AD23",
"u. c #DCBC2C",
"i. c #D8B42F",
"p. c #CAA532",
"a. c #CFB032",
"s. c #D4BD31",
"d. c #DBB131",
"f. c #E0BD29",
"g. c #F7C102",
"h. c #F8C501",
"j. c #F9C906",
"k. c #F7C40B",
"l. c #F8C709",
"z. c #F7CA0E",
"x. c #F8CB0C",
"c. c #FFD401",
"v. c #FFDD00",
"b. c #FED20C",
"n. c #FFDE0D",
"m. c #F5CC11",
"M. c #F9CE12",
"N. c #F9D115",
"B. c #F9D51B",
"V. c #F9D91F",
"C. c #F5D01D",
"Z. c #FFE605",
"A. c #FEEB02",
"S. c #FEE70D",
"D. c #FCE80A",
"F. c #FFF102",
"G. c #FFFE01",
"H. c #FFF40C",
"J. c #FFFB0A",
"K. c #FDE414",
"L. c #FDEE15",
"P. c #FBE41D",
"I. c #FDED1E",
"U. c #FFF214",
"Y. c #FFFF15",
"T. c #FFF41D",
"R. c #FFFE1B",
"E. c #DDC72D",
"W. c #EDC424",
"Q. c #E2C72A",
"!. c #F3CE25",
"~. c #E5D32A",
"^. c #EFD623",
"/. c #F9D621",
"(. c #F9DC22",
"). c #FADD29",
"_. c #EDE228",
"`. c #FAE323",
"'. c #FCEB23",
"]. c #FAE32B",
"[. c #FCED2B",
"{. c #F7E123",
"}. c #FDF322",
"|. c #FFFC22",
" X c #FFFF2D",
".X c #FAF126",
"XX c #FCEF3E",
"oX c #FDF632",
"OX c #FDF33D",
"+X c #B88841",
"@X c #FBEB4C",
"#X c #FDF345",
"$X c #FDF548",
"%X c #FEF15B",
"&X c #782087",
"*X c #7E2699",
"=X c #FDF589",
"-X c #FEF99A",
";X c #FDF5A0",
":X c #FEFBD5",
">X c white",
/* pixels */
"                                                                                                    ",
"                                                &XZ *XZ 3 3 3                                       ",
"                                        3 h M r / } S K #.@.| ' t x h 1                             ",
"                                    < 9 ..&.~.R.|.|.R.R.Y.R.R.R..Xs.#.` x 3                         ",
"                                # u +X_. X|.Y.R.R.R.|.|.|.|.|.|.R.R.Y.R.E.O.M h                     ",
"                            h N +XR.R. X|.#XoXT.}.}.}.|.}.}.}.}.}.}.|.|.R.Y.~.| v 1                 ",
"                          k .._.Y.R.OXoX}.oX$X}.}.}.}.}.}.}.}.}.}.}.}.}.}.|.R.Y.a.C h               ",
"                      1 v %.R.R.F.U.OX$XOX$XOXT.}.}.}.}.}.}.}.}.}.}.}.}.}.}.}.|.Y.I.X.k             ",
"                    1 B i.G.J.[.-XOXL.OX#X#X'.I.R.R.R.'.'.}.}.}.}.}.}.}.}.}.}.}..XR.Y.+.k           ",
"                  , b f.J.#X[.I.=XXXL.'.[.'.I.R.`.s.'.R.'.'.'.'.'.'.'.'.'.'.'.}.}.}.R.Y.@.k         ",
"                  b d.G.%X>X:XD.Z.I.'.'.I.'.R.u.w h q Q.R.'.'.'.'.'.'.'.'.'.'.'.I.'.'.R.Y.O.k       ",
"                k e.Y.S.@X:X;XK.`.'.'.'.'.'.R.s j 8 ; / R.'.'.'.'.'.'.'.'.'.'.'.'.'.'.'.R.R.' #     ",
"              g ] Y.I.].P.`.P.`.].`.`.`.`.}.`.t 5 8 z r '.}.`.`.`.`.`.`.`.'.'.'.'.'.'.'.'.Y.R.V 4   ",
"              N {.R.`.].].P.P.].`.`.`.`.`.}.(.t 5 8 z r '.I.`.`.`.`.`.`.`.`.`.`.'.'.'.'.R.R.t.V 4   ",
"            g e.Y.`.].].`.`.`.`.`.`.`.`.`.'.T.r g 8 ; ` |.'.`.`.`.`.`.`.`.`.`.`.`.`.R.Y.E.' j       ",
"          , y I.I.].].`.`.`.`.`.`.`.`.`.`.(.R.i.5 g w u.R.`.`.`.`.`.`.`.`.`.`.`.'.Y.T.+.v 2         ",
"          g W Y.).).(.(.(.(.(.(.(.(.(.(.(.(.(.R.W.&.!.R.(.(.(.(.(.(.(.`.`.(.(.R.R.p.d g             ",
"          N C.T.).(.(.(.(.(.(.(.(.(.(.(.(.(.(.(.T.R.T.(.(.(.(.(.(.(.(.(.(.'.Y.^. .k <               ",
"        # } Y.).(.(.(.(.(.(.(.(.(.(.(.(.(.(.(.(.(.(.(.(.(.(.(.(.(.(.(.(.R.R.%.x =                   ",
"        h r.R.(.(.(.(.(.(.(.(.(.(.(.(.(.(.(.(.(.(.(.(.(.(.(.(.(.(.).T.Y.u.' g                       ",
"        8 W.I.(.(.(.(.(.(.(.(.(.(.(.(.(.(.(.(.(.(.(.(.(.(.(.(.(.(.R.'.P h 2                         ",
"        _ K.V.(.(.(.(.(.(.(.(.(.(.(.(.(.(.(.(.(.(.(.(.(.(.(./.T.Y.p.q n                             ",
"      + } H.(.(.(.(.(.(.(.(.(.(.(.(.(.(.(.(.(.(.(.(.(.(./.P.Y.^. .k X                               ",
"      # R H.V.(.(.V.V.V.(.(.(.(.V.(.V.V.V.V.(./.(.V././.Y.U.%.x =                                   ",
"      g W H.V.V.V.V.V.V.V.V.V.V.V.V.V.V.V.V.V.V.V.V.V.Y.f.f ;                                       ",
"      + Q H.B.V.V.V.V.V.V.V.V.V.V.V.V.V.V.V.V.V.V.V.U.R ; #                                         ",
"      . T H.N.B.B.B.B.B.B.N.B.B.B.B.B.B.B.B.B.B.B.B.U.R - #                                         ",
"      m A F.N.B.N.N.N.N.N.N.N.N.N.N.N.N.N.N.N.N.N.N.N.H.y.d ;                                       ",
"      l K A.M.N.N.N.N.N.N.N.N.N.N.N.N.N.N.N.N.N.N.N.M.N.J.S.E v *                                   ",
"      o o.Z.x.M.N.M.N.N.N.N.M.M.M.M.M.M.M.M.M.M.M.M.M.M.M.n.G.q.{ ; 2                               ",
"        _ b.x.x.M.M.M.x.x.x.x.x.M.x.x.x.x.x.M.x.x.M.x.x.x.z.M.A.F.$.c -                             ",
"        5 <.c.k.x.x.x.x.x.x.x.x.x.x.x.x.x.x.x.x.x.x.x.x.x.x.x.z.b.J.m.{ j #                         ",
"        g ^ v.k.l.x.x.x.x.x.x.x.x.x.x.x.x.x.x.x.x.x.x.x.x.x.x.x.x.m.Z.A.-.a -                       ",
"        O ) c.8.k.l.j.j.j.j.j.j.j.j.j.j.j.j.j.j.j.j.j.j.j.x.x.x.x.x.l.j.F.v.R k *                   ",
"          M 3.h.8.k.j.j.j.j.j.j.j.j.j.j.j.j.j.h.h.h.j.j.j.x.x.x.x.j.j.j.g.c.F.,.p -                 ",
"          - Y c.6.8.k.j.h.h.h.h.h.h.h.h.h.h.h.h.h.h.h.j.j.x.l.j.h.h.h.h.h.h.h.A.v.T c -             ",
"          o t 9.9.6.8.k.j.h.h.h.h.h.h.h.h.h.h.h.h.h.h.j.j.j.j.h.h.h.h.h.h.h.h.g.c.F.0.[ ; #         ",
"            - U c.3.6.8.k.h.h.h.h.h.h.h.h.h.h.h.h.h.h.h.h.h.h.h.h.h.h.h.h.h.h.h.h.8.j.j.^ w -       ",
"              x 1.h.3.6.8.g.h.h.h.h.h.h.h.h.h.h.h.j.h.h.h.h.h.h.h.h.h.h.h.h.h.h.8.6.3.3.h.1.K 6 <   ",
"              - ( h.6.3.6.8.8.g.h.h.h.h.h.h.h.h.h.h.h.h.h.h.h.h.h.h.h.h.h.h.g.8.6.6.3.1.>.h.4.B $   ",
"                > U j.3.3.6.8.8.g.g.h.h.h.h.h.h.h.h.h.h.h.h.h.h.h.h.h.h.g.g.8.8.6.3.1.1.4.7._ *     ",
"                  k ~ h.1.3.6.6.8.8.g.g.g.h.h.h.h.h.h.h.h.h.h.h.h.h.h.g.8.8.8.6.3.1.>.2.9.D :       ",
"                  o k =.h.1.3.3.6.6.8.8.8.g.g.g.h.h.h.h.h.h.g.g.g.g.8.8.8.6.6.3.1.>.2.9.H >         ",
"                    O h *.h.4.1.3.3.6.8.8.8.8.8.8.8.8.g.g.8.8.8.8.8.6.6.6.3.3.1.>.4.9.J :           ",
"                      o j Y 9.7.1.1.3.6.6.8.8.6.8.8.8.8.8.8.6.6.6.6.6.3.3.1.1.1.9.2.( -             ",
"                          - ( :.h.4.1.3.6.6.8.6.3.3.6.6.3.3.3.3.3.3.3.1.1.>.7.9.! 7 &               ",
"                            & c I 4.h.7.3.6.w.5.1.1.1.1.1.1.3.1.1.1.>.2.7.9.:.[ ; @                 ",
"                              + & q Y :.9.h.4.>.>.>.1.1.1.1.>.2.2.7.9.4.=.F z &                     ",
"                                  @ * 6 ( U ;.2.4.7.7.7.7.9.7.4.>.~ K i h %                         ",
"                                        O * 3 q ( D S L L H F i w g % O                             "
};
