/* XPM */
static char *_c8bb926f1bf46c6a0d817958ff56fedTQzDexID9iL60uMD[] = {
/* columns rows colors chars-per-pixel */
"50 50 198 2 ",
"   c None",
".  c #2C0041",
"X  c #2E004F",
"o  c #380049",
"O  c #2E0054",
"+  c #2D005B",
"@  c #320056",
"#  c #3C0055",
"$  c #3B005D",
"%  c #32005A",
"&  c #2C0063",
"*  c #2C006B",
"=  c #330065",
"-  c #3C0064",
";  c #33006C",
":  c #3B006C",
">  c #330071",
",  c #3E0074",
"<  c #40004F",
"1  c #56004D",
"2  c #440055",
"3  c #4F0051",
"4  c #44005A",
"5  c #4B005B",
"6  c #5E005D",
"7  c #5B0C5D",
"8  c #550157",
"9  c #6F134B",
"0  c #65005A",
"q  c #6B0C5B",
"w  c #6E0B57",
"e  c #720E5B",
"r  c #6C1C54",
"t  c #6B1A5D",
"y  c #63135A",
"u  c #7D1E52",
"i  c #76155A",
"p  c #7B2A4B",
"a  c #7F354A",
"s  c #6E2354",
"d  c #782857",
"f  c #7B3351",
"g  c #430065",
"h  c #4B0064",
"j  c #45006A",
"k  c #4D016B",
"l  c #520263",
"z  c #5A0164",
"x  c #53026A",
"c  c #570962",
"v  c #480071",
"b  c #6B0C65",
"n  c #62006A",
"m  c #6A0C69",
"M  c #680365",
"N  c #691262",
"B  c #781562",
"V  c #610075",
"C  c #721D7E",
"Z  c #7E2060",
"A  c #993F2E",
"S  c #973E3B",
"D  c #B1681E",
"F  c #90422A",
"G  c #98443A",
"H  c #995C3D",
"J  c #A14720",
"K  c #AB542B",
"L  c #A55137",
"P  c #B35A28",
"I  c #BA6B25",
"U  c #B5672B",
"Y  c #A2653E",
"T  c #A76F33",
"R  c #AC783E",
"E  c #B47B39",
"W  c #CD7419",
"Q  c #CF7A18",
"!  c #C37120",
"~  c #8B354A",
"^  c #8B3742",
"/  c #933B4B",
"(  c #812C51",
")  c #882258",
"_  c #883255",
"`  c #934746",
"'  c #9B534C",
"]  c #985845",
"[  c #8A4651",
"{  c #8B4058",
"}  c #954B52",
"|  c #9F5C50",
" . c #864447",
".. c #AA5C41",
"X. c #A6534C",
"o. c #A2634B",
"O. c #AC7445",
"+. c #B27444",
"@. c #BA923D",
"#. c #BF9E38",
"$. c #DE8B0F",
"%. c #D48717",
"&. c #E48D0B",
"*. c #EF9D06",
"=. c #E5910C",
"-. c #EB9808",
";. c #F39D01",
":. c #FB9B00",
">. c #D3A319",
",. c #DCB51D",
"<. c #F4A400",
"1. c #FAA300",
"2. c #F5AC00",
"3. c #FEAB00",
"4. c #E6B00D",
"5. c #F6B400",
"6. c #FEB400",
"7. c #F6BB01",
"8. c #FFBB00",
"9. c #F8BB08",
"0. c #F6B511",
"q. c #C88B2B",
"w. c #C39224",
"e. c #C78734",
"r. c #C29A37",
"t. c #C39739",
"y. c #D39C36",
"u. c #CEA128",
"i. c #D7A82A",
"p. c #D6B62F",
"a. c #C8A135",
"s. c #D3AE32",
"d. c #D5BF30",
"f. c #D2B533",
"g. c #E6BE2A",
"h. c #F7C102",
"j. c #F8C501",
"k. c #F9C905",
"l. c #F7C40A",
"z. c #F8C70B",
"x. c #F7CA0E",
"c. c #F8CB0C",
"v. c #FED301",
"b. c #FFDB01",
"n. c #FFD80E",
"m. c #EAC314",
"M. c #F9CE12",
"N. c #F9D115",
"B. c #FBDB14",
"V. c #F9D51B",
"C. c #FAD91E",
"Z. c #FFEC03",
"A. c #FDE709",
"S. c #FFF200",
"D. c #FFFD02",
"F. c #FFF40D",
"G. c #FFF90B",
"H. c #FCE414",
"J. c #FEED14",
"K. c #FBE31D",
"L. c #FDEC1E",
"P. c #FFFF15",
"I. c #FEF51D",
"U. c #FFFE1B",
"Y. c #DFCB2B",
"T. c #E6CB26",
"R. c #ECCC29",
"E. c #E7C72A",
"W. c #EAD527",
"Q. c #F9D621",
"!. c #F9DC22",
"~. c #FADE29",
"^. c #F4DA25",
"/. c #FAE323",
"(. c #F5ED23",
"). c #FCEB23",
"_. c #FAE32B",
"`. c #FCED29",
"'. c #F1E627",
"]. c #FDF322",
"[. c #FFFC21",
"{. c #FDF22C",
"}. c #FFFE2B",
"|. c #FCEE31",
" X c #FDF534",
".X c #FDF43B",
"XX c #B98046",
"oX c #FDF343",
"OX c #FDF348",
"+X c #FCEE5E",
"@X c #FDF176",
"#X c #761B84",
"$X c #7E2699",
"%X c #FDF48C",
"&X c #FEF99B",
"*X c #FEF9B9",
"=X c #FEFBD9",
"-X c white",
/* pixels */
"                                                                                                    ",
"                                          5 5 4 V $XV #X                                            ",
"                                3 h z e _ ' +.XXY F ' ~ u M h 5                                     ",
"                            5 z d O.f.(.U.U.U.P.U.U.[.[.U.W.r.' q 2 C                               ",
"                        5 z ' d.U.P.U.U.[.[.[.[.[.[.U.U.[.P.[.}.'.t.9 # 8                           ",
"                    3 x } Y.P.U.[.[.].].].].[.[.].].].].I. XoX}.}.U.U.@.N h                         ",
"                  h m a.P.U.[.].].].].].].].].].].].].].I.OX X]. X.XU.P.(.| k                       ",
"                k { '.P.[.].].].].].].].].].].].].].].].I..XOX.XOX.XI.Z.P.P.r.n 5                   ",
"              g | P.U.{.{.].].].].].].].].].].].).U.U.U.L.).oXOXoXL.{.&X XF.D.T.m 2                 ",
"            k o.P.U.].{.{.).).).).).).).).).).).U.].d.^.U.L.L.`.).J.|.%X`.).OXP.W.M 2               ",
"          h } P.U.`.{.L.).).).).).).).).).).).U.W.d h 7 s.U.).L.).).L.Z.Z.*X-X@XD.E.n               ",
"        # Z U.U.).).).).).).).).).)./.).)./.).U.` : 0 g w ).].).).).)./.H.%X=X+XA.P.y.k             ",
"      1 m I.P.).).).).).).).).)././././././.).U.( l 0 6 0 R.U././././././.H./.K._.).P.X.g           ",
"      8 b @.U.P.).).).)././././././././././.).I.( h 0 6 0 R.U././././././.K.K./._./.I.I.B <         ",
"          j d p.P.U./././././././././././././.U.` : 0 h q /.)././././././././././._.~.P.y.h         ",
"            4 x o.L.P.)./././././././././././.I.T.r - l a.U.!././././././././././._._.L.P.) 2       ",
"                g t r.U.U.~.!././.!.!.!.!.~.~.!.U.Q.#.g.U.!.!.!.!.!.!.!.!.!.!./.~.!.~.~.P.e.h       ",
"                  2 j [ T.P.L.^.!.!.!.!.~.~.!.!.^.L.U.I.!.!.!.!.!.!.!.!.!.!.!.!.~.!.~.~.).H.i       ",
"                      $ z R I.U.!.!.!.~.~.!.!.!.!.!.!.!.!.!.!.!.!.!.!.!.!.!.!.!.!.!.!.!.~.P...$     ",
"                          g d p.P.I.^.~.!.!.!.!.!.!.!.!.!.!.!.!.!.!.!.!.!.!.!.!.!.!.!.!.~.[.i.l     ",
"                            4 h ] /.P.K.!.!.!.!.!.!.!.!.!.!.!.!.!.!.!.!.!.!.!.!.!.!.!.^.!.L.N.e     ",
"                                v N r.P.U.!.Q.!.!.!.!.!.!.!.!.!.!.!.!.!.!.!.!.!.!.!.!.!.!.C.J./ #   ",
"                                  . j [ T.P.L.Q.!.C.!.!.!.!.!.!.!.!.!.!.!.!.!.!.!.!.!.!.!.C.F...$   ",
"                                      $ z R J.P.C.C.C.!.!.!.C.C.C.C.Q.C.Q.Q.!.C.C.C.C.!.!.Q.G.E $   ",
"                                          : d i.P.C.C.C.C.C.C.C.C.C.C.C.C.C.C.C.C.C.C.C.C.C.F.e.g   ",
"                                            4 : ] J.V.C.C.C.C.C.C.C.C.C.C.C.C.C.C.C.C.C.C.C.F.q.4   ",
"                                              ; ` J.V.V.N.V.V.V.V.V.V.V.V.V.N.V.V.V.V.V.V.N.F.q..   ",
"                                          : t u.F.B.N.N.N.N.N.N.N.N.N.V.N.N.N.N.N.N.N.N.V.N.Z.D k   ",
"                                      $ k Y B.G.N.N.N.N.N.N.N.N.N.N.N.N.N.N.N.N.N.N.N.N.N.M.Z.U j   ",
"                                    : f ,.D.A.M.M.N.N.M.M.M.M.M.M.M.N.M.N.M.M.M.M.M.M.N.M.c.Z...+   ",
"                                = l E Z.S.x.x.x.x.x.x.x.x.x.x.x.x.x.x.x.x.x.x.x.x.x.M.M.c.c.b./ O   ",
"                            $ :  .m.D.n.x.c.c.c.c.c.c.c.c.c.c.c.c.c.c.c.c.c.c.c.c.c.x.c.z.c.9.q     ",
"                          = y w.Z.Z.M.x.x.x.c.c.c.c.c.c.c.c.c.c.c.c.c.c.c.c.c.c.c.c.c.z.l.b.%.h     ",
"                      - j H v.S.k.z.c.c.c.x.c.k.k.k.j.k.k.k.k.k.k.k.k.k.k.k.k.k.k.k.z.l.9.b.L &     ",
"                    ; s >.Z.b.h.j.j.j.c.c.c.c.k.j.j.j.j.j.j.j.j.j.j.j.j.j.j.j.j.j.j.l.7.j.8.e       ",
"                = l T v.Z.j.j.j.j.j.j.j.k.j.c.k.j.j.j.j.j.j.j.j.j.j.j.j.j.j.j.j.j.h.7.5.v.! :       ",
"            # : a 4.S.v.h.j.j.j.j.j.j.j.j.j.j.j.j.j.j.j.j.j.j.j.j.j.j.j.j.j.j.j.h.7.5.6.j.u +       ",
"          ; 7 I k.v.7.j.j.j.j.j.j.j.j.j.j.j.j.j.j.j.j.j.j.j.j.j.j.j.j.j.j.j.j.h.7.7.2.k.W :         ",
"      2 c G *.j.3.2.5.7.j.j.j.j.j.j.j.j.j.j.j.j.j.j.j.j.j.j.j.j.j.j.j.j.j.j.h.7.5.2.8.6.q O         ",
"      o x :.j.;.<.2.5.5.7.j.j.j.j.j.j.j.j.j.j.j.j.j.j.j.j.j.j.j.j.j.j.j.j.9.7.5.5.3.k.S >           ",
"        % i 3.3.;.<.2.5.7.7.j.j.j.j.j.j.j.j.j.j.j.j.j.j.j.j.j.j.j.j.j.h.9.7.5.2.<.k.W ,             ",
"          > ^ 8.3.;.<.2.5.5.7.7.j.j.j.j.j.j.j.j.j.j.j.j.j.j.j.j.j.h.7.7.5.5.2.<.j.=.x X             ",
"            > G 8.3.;.<.2.5.5.7.7.7.h.j.j.j.j.j.j.j.j.j.j.j.j.7.7.7.5.5.2.2.<.j.-.c +               ",
"              > S 6.6.;.<.2.2.5.5.7.7.7.7.7.7.h.h.7.7.7.7.7.7.7.7.5.2.2.<.1.j.=.c &                 ",
"                ; p ;.8.1.;.<.2.2.5.5.5.5.7.7.7.7.7.7.7.5.7.7.5.5.2.<.<.6.8.! h +                   ",
"                  & c ! 8.6.;.<.<.<.2.2.2.2.2.5.5.5.2.2.5.9.5.5.2.<.3.8.<.G : @                     ",
"                    @ : ^ $.8.6.1.;.<.<.<.<.<.<.<.<.<.<.2.0.5.2.6.j.3.I 7 *                         ",
"                        & h ` %.3.8.6.3.1.<.;.;.;.<.;.;.1.3.8.8.*.U s ; @                           ",
"                            & g s L Q ;.3.6.8.6.6.8.6.3.1.&.I ^ 7 = +                               ",
"                                O & g y p S K P P J A ~ r 8 = &                                     "
};
