/* XPM */
static char *result[] = {
/* columns rows colors chars-per-pixel */
"50 50 200 2 ",
"   c #1E0031",
".  c #250043",
"X  c #30004F",
"o  c #2E0055",
"O  c #2C005B",
"+  c #300055",
"@  c #3D0054",
"#  c #34005B",
"$  c #39005B",
"%  c #2B0065",
"&  c #2C0068",
"*  c #330064",
"=  c #3D0064",
"-  c #34006C",
";  c #3D006A",
":  c #350071",
">  c #390076",
",  c #4B004F",
"<  c #440054",
"1  c #4A0053",
"2  c #42005B",
"3  c #49005B",
"4  c #550156",
"5  c #5A025E",
"6  c #57065E",
"7  c #64015B",
"8  c #69035D",
"9  c #610F5E",
"0  c #6F1056",
"q  c #63135C",
"w  c #6A1C5B",
"e  c #6A1956",
"r  c #73115A",
"t  c #791A56",
"y  c #67044B",
"u  c #79274D",
"i  c #6F2259",
"p  c #7C2252",
"a  c #74255B",
"s  c #7A3353",
"d  c #430064",
"f  c #4B0063",
"g  c #43016C",
"h  c #4B016C",
"j  c #530161",
"k  c #5B0263",
"l  c #5A006B",
"z  c #580764",
"x  c #50007A",
"c  c #630364",
"v  c #690766",
"b  c #63006E",
"n  c #741B60",
"m  c #701565",
"M  c #640074",
"N  c #973E2F",
"B  c #9C401D",
"V  c #90412A",
"C  c #9A443A",
"Z  c #9C5C3A",
"A  c #AA4F2F",
"S  c #AA5628",
"D  c #A34D33",
"F  c #A65633",
"G  c #B45A28",
"H  c #BC6324",
"J  c #B3622B",
"K  c #B67A2F",
"L  c #A6663C",
"P  c #BA743A",
"I  c #BC7C32",
"U  c #AB743B",
"Y  c #CD7B1A",
"T  c #D37E16",
"R  c #C57B22",
"E  c #80254D",
"W  c #862F4D",
"Q  c #8B2D43",
"!  c #8A3945",
"~  c #893448",
"^  c #832B54",
"/  c #853A56",
"(  c #8A3457",
")  c #953C52",
"_  c #973C43",
"`  c #8A4648",
"'  c #974747",
"]  c #94544E",
"[  c #924B53",
"{  c #985452",
"}  c #A04E48",
"|  c #A0564C",
" . c #A7674B",
".. c #B37745",
"X. c #B57E46",
"o. c #AB7545",
"O. c #BD8B2E",
"+. c #B98A3C",
"@. c #BF9A38",
"#. c #DF8A0F",
"$. c #D98614",
"%. c #D78013",
"&. c #CB9C1F",
"*. c #E08A0D",
"=. c #EB9908",
"-. c #F39E00",
";. c #DDAE13",
":. c #EDAD0E",
">. c #F4A400",
",. c #FBA300",
"<. c #F5AC00",
"1. c #FEAB00",
"2. c #F5AA0A",
"3. c #EFBA08",
"4. c #F6B400",
"5. c #FEB400",
"6. c #F6BB01",
"7. c #FEBA00",
"8. c #E4BF18",
"9. c #F6B510",
"0. c #C58539",
"q. c #C19C39",
"w. c #D8AD23",
"e. c #DCBC2C",
"r. c #D7B42E",
"t. c #CAA532",
"y. c #CFB033",
"u. c #D4BD32",
"i. c #DBB131",
"p. c #E1BD29",
"a. c #F7C102",
"s. c #F8C501",
"d. c #F9C906",
"f. c #F7C40B",
"g. c #F8C709",
"h. c #F7CA0E",
"j. c #F8CB0C",
"k. c #FFD401",
"l. c #FFDC00",
"z. c #FED20B",
"x. c #FFDE0E",
"c. c #F5CC11",
"v. c #F9CE12",
"b. c #F5CF1C",
"n. c #F9D114",
"m. c #F9D51B",
"M. c #F9D91F",
"N. c #FFE605",
"B. c #FEEB02",
"V. c #FEE70D",
"C. c #FBE80A",
"Z. c #FFF102",
"A. c #FFFE01",
"S. c #FFF40C",
"D. c #FFFB0B",
"F. c #FDE413",
"G. c #FBE41D",
"H. c #FDEE1E",
"J. c #FDEE15",
"K. c #FFF215",
"L. c #FFFF15",
"P. c #FFF41D",
"I. c #FFFE1B",
"U. c #DEC72D",
"Y. c #EDC324",
"T. c #E2C72A",
"R. c #F3CE25",
"E. c #E5D42A",
"W. c #EFD723",
"Q. c #F9D721",
"!. c #F9DB22",
"~. c #FADD29",
"^. c #EDE228",
"/. c #FAE323",
"(. c #FCEB23",
"). c #FAE32B",
"_. c #FCEE2A",
"`. c #F7E123",
"'. c #FDF322",
"]. c #FFFC22",
"[. c #FFFF2D",
"{. c #FAF226",
"}. c #FDF531",
"|. c #FDF33D",
" X c #FEF835",
".X c #B98842",
"XX c #FDF246",
"oX c #FDF649",
"OX c #FEF841",
"+X c #FEF15C",
"@X c #FBEB4C",
"#X c #680081",
"$X c #792188",
"%X c #80289A",
"&X c #FEF99B",
"*X c #FDF589",
"=X c #FEF5A0",
"-X c #FEFBD5",
";X c white",
":X c None",
/* pixels */
":X:X:X:X:X:X:X:X:X:X:X:X:X:X:X:X:X:X:X:X:X:X:X:X:X:X:X:X:X:X:X:X:X:X:X:X:X:X:X:X:X:X:X:X:X:X:X:X:X:X",
":X:X:X:X:X:X:X:X:X:X:X:X:X:X:X:X:X:X:X:X:X:X:X:X:X:X:X:X:X:X:X:X:X:X:X:X:X:X:X:X:X:X:X:X:X:X:X:X:X:X",
":X:X:X:X:X:X:X:X:X:X:X:X:X:X:X:X:X:X:X:X:X:X:X:X:X:X:X:X:X:X:X:X:X:X:X:X:X:X:X:X:X:X:X:X:X:X:X:X:X:X",
":X:X:X:X:X:X:X:X:X:X:X:X:X:X:X:X:X:X:X:X:X:X$ 2 d $ . h g + :X:X:X:X:X:X:X:X:X:X:X:X:X:X:X:X:X:X:X:X",
":X:X:X:X:X:X:X:X:X:X:X:X:X:X:X:X:X:X@ f 7 ^ ' L P I K S F } ^ 5 = O :X:X:X:X:X:X:X:X:X:X:X:X:X:X:X:X",
":X:X:X:X:X:X:X:X:X:X:X:X:X:X:X1 d 8 ' 0.8.F.S.S.S.S.S.B.Z.N.d.:.R _ c - + :X:X:X:X:X:X:X:X:X:X:X:X:X",
":X:X:X:X:X:X:X:X:X:X:X:X:X:Xd r P b.L.I.H.M.!.M.m.m.m.v.v.h.j.k.l.k.<.J 0 - :X:X:X:X:X:X:X:X:X:X:X:X",
":X:X:X:X:X:X:X:X:X:X:X:Xd v 0.H.L.P.~.~.!.!.!.!.M.m.m.m.n.v.h.v.h.7.s.k.7.H z - :X:X:X:X:X:X:X:X:X:X",
":X:X:X:X:X:X:X:X:X:X:Xh ) `.L.'.~.).!.!.!.Q.Q.M.m.m.m.m.n.n.v.j.g.g.6.4.6.k.,.Q : :X:X:X:X:X:X:X:X:X",
":X:X:X:X:X:X:X:X:X1 l 0.I.I.!.`.~.!.!.!.!.!.!.M.Q.m.m.n.n.n.v.j.j.g.g.6.4.<.s.s.H h + :X:X:X:X:X:X:X",
":X:X:X:X:X:X:X:X1 l i.L.P./.).).!.!.!.!.!.!.M.!.Q.M.m.m.n.v.j.j.j.s.g.s.6.6.<.<.d.$.h + :X:X:X:X:X:X",
":X:X:X:X:X:X:X, b e.A.C.).).).!.`.`.!.!.!.Q.Q.M.M.m.m.n.n.v.v.j.j.g.s.j.a.6.4.4.1.d.*.h + :X:X:X:X:X",
":X:X:X:X:X:X:Xl e.D.+X@XG.).`.).~.!.!.!.!.M.!.M.M.m.m.m.n.n.n.j.s.j.s.s.a.g.6.4.<.>.s.$.g :X:X:X:X:X",
":X:X:X:X:X:Xh +.A.XX;X-X/.G.`.`.!./.!.~.!.!.W.M.M.m.m.n.n.n.n.j.j.j.s.s.d.a.a.6.4.<.,.s.J : :X:X:X:X",
":X:X:X:X:Xf [ I.D._.-X&XG.G.`./.!./.!.!.!.M.M.!.m.m.m.m.n.j.j.j.j.s.s.d.s.d.a.a.6.4.<.1.7.! & :X:X:X",
":X:X:X:X:Xv ^.L._.(.C.F.G././././.!.!.!.!.!.!.M.M.m.m.n.n.n.n.j.g.g.d.s.s.s.s.a.6.4.<.>.5.-.z X :X:X",
":X:X:X:X+ .XL.B.&X*XC.(./././.!.!.~.!.!.!.!.M.Q.M.m.m.m.v.v.v.j.d.s.s.s.s.s.a.s.a.3.3.<.>.s.J - :X:X",
":X:X:X:Xy I.I.K.|.|.G./.(././././.!.!.!.!.!.W.m.M.m.m.n.v.v.j.j.c.d.d.s.s.s.s.s.a.a.4.<.>.1.,.w o :X",
":X:X:X@ .XI.|. XJ.J.(.(./././.!./.!.!.!.!.M.!.Q.M.m.m.m.v.n.v.j.d.d.d.s.s.s.s.s.s.6.6.4.<.>.s.J * :X",
":X:X:Xv ^.[.}.oX|.(.(.(././././.!.~.!.!.!.!.Q.M.M.M.m.n.v.n.n.j.c.d.s.a.s.s.s.s.s.a.6.6.4.<.5.=.6 :X",
":X:X1 [ [.].'.|.XX_.G.(./././.!./.!.!.!.!.!.M.M.M.M.m.n.n.v.n.j.d.s.d.d.s.s.a.s.s.s.6.6.6.<.<.7.~ % ",
":X:Xf q.].OX}.oXXXH.(.(.P.P.(././.!.~.!.!.M.Q.M.M.m.m.m.n.n.j.j.c.d.s.s.s.s.s.s.s.s.a.a.6.6.4.7.H % ",
":X:X8 E.I. XoXOX_.(.I.P./.~.P.I.!.!.!.!.!.M.!.M.M.m.m.n.v.n.n.j.d.s.d.s.s.s.s.s.s.s.a.6.6.6.9.1.#.6 ",
":X:Xt '.I.P.'.P.H.I.U.u 0 0 p r.I.!.~.Q.!.!.M.!.M.m.m.n.n.n.j.j.c.d.d.s.s.s.s.s.s.s.a.6.4.3.2.-.,.e ",
":X$XW I.I.].P.'.I.`.q ; k 5 d 6 Y.P.!.!.!.!.M.!.M.m.m.n.n.z.v.j.j.s.d.s.s.s.s.s.a.s.s.a.6.<.-.-.1.~ ",
":XM ] ].].'.'.'.I.U.f 7 7 7 8 d q.I.!.!.!.!.M.M.M.m.m.m.n.n.j.j.j.s.d.d.s.s.s.s.s.s.s.6.4.<.,.>.5.V ",
":X%XV I.].].'.'.I.(.w ; 5 3 d 6 W.'.!.!.!.M.M.Q.M.K.K.m.n.v.v.j.s.j.j.s.s.s.g.s.s.s.s.a.6.4.<.-.7.V ",
":X#XZ L.].'.'.'.(.I.T.W t t ^ e.P.!.!.!.!.!.Q.Q.L.L Z D.n.v.j.j.j.j.s.s.d.s.s.s.a.s.s.6.6.<.>.-.5.G ",
":X3 .XL.'.'.'.'.(.(.I.I.(.(.I.P.~.!.!.!.!.!.Q.I.p.g - w.D.v.v.h.s.s.j.s.s.s.s.s.s.s.a.a.6.<.<.-.5.G ",
":X3 ..L.].'.'.'.'.(.(.(.'.(.(.~./.!.!.!.!.Q.G.K.s $ 2 a V.x.j.j.j.j.j.g.j.s.s.a.s.s.s.6.6.<.>.>.5.S ",
":X3 { L.].].'.'.'.(.(./././././.~.`.!.!.!.Q.L.+.g :X:X; U A.v.j.j.j.g.g.s.s.s.s.s.s.s.6.6.<.>.-.5.C ",
":X:X( I.].].'.'.'.(.(.(.(././.!./.~.`.!.Q.K.W.c :X:X:X:Xh 8.B.h.n.j.g.g.s.s.s.s.a.s.s.a.4.4.>.,.1.u ",
":X:Xr {.I.].'.'.'.(.(.(.`././././.!.~.!.!.L.{ # :X:X:X:X= ` Z.z.v.j.g.s.s.s.s.s.a.s.a.6.4.<.>.>.-.q ",
":X:Xk u.I.'.'.'.'.(.(.(././././.!.!.!.~.L.t.h :X:X:X:X:X:X; O.D.c.h.g.s.s.s.s.s.s.s.a.6.4.<.>.5.T d ",
":X:Xf X.L.].'.'.(.(.(.(././././.!./.Q.P.(.w   :X:X:X:X:X:X@ 6 c.B.g.s.s.s.s.a.s.s.s.6.6.4.>.-.7.F % ",
":X:X1 ^ I.].'.'.'.(.(.(.(././.`./.`.!.L.Z x :X:X:X:X:X:X:X:X- ] B.d.g.s.s.s.s.s.s.a.6.4.<.>.,.1.u o ",
":X:X:Xk U.I.'.'.'.(.(.(.(./././.!.!.I.e.3 :X:X:X:X:X:X:X:X:X:Xg &.Z.s.s.s.s.s.s.s.a.4.4.<.>.5.$.d :X",
":X:X:X3  .I.].].'.'.(.(./././././.(.L./ d :X:X:X:X:X:X:X:X:X:X$ i l.k.s.s.s.s.s.a.6.4.<.>.-.7.C % :X",
":X:X:X:Xc E.I.'.'.(.(.(.(./././.`.I.+.d :X:X:X:X:X:X:X:X:X:X:X:X- L Z.s.s.s.s.s.6.6.<.<.>.5.=.f :X:X",
":X:X:X:Xd { L.P.{.'.(.(.(.(././.I.W.c :X:X:X:X:X:X:X:X:X:X:X:X:X:Xh ;.B.a.s.s.a.4.4.<.>.-.7._ & :X:X",
":X:X:X:X:Xl y.L.{.{.H.(.(.(.`.(.I.] = :X:X:X:X:X:X:X:X:X:X:X:X:X:X* s l.k.s.6.4.4.<.>.-.7.Y ; :X:X:X",
":X:X:X:X:X1 m (.L._.{.(.(.(./.I.t.h :X:X:X:X:X:X:X:X:X:X:X:X:X:X:X:X- K Z.6.4.4.<.>.-.5.,.q # :X:X:X",
":X:X:X:X:X:Xf { L.I._.(.(.(.P.P.a < :X:X:X:X:X:X:X:X:X:X:X:X:X:X:X:X:Xz 3.d.<.<.<.>.,.7.! & :X:X:X:X",
":X:X:X:X:X:X:Xh o.L.P.'.(._.L.o.g :X:X:X:X:X:X:X:X:X:X:X:X:X:X:X:X:X:X* ` k.1.>.-.,.7.D : :X:X:X:X:X",
":X:X:X:X:X:X:X:Xh ..L.I.(.L.U.l :X:X:X:X:X:X:X:X:X:X:X:X:X:X:X:X:X:X:X:X; R d.-.1.7.A > :X:X:X:X:X:X",
":X:X:X:X:X:X:X:X:Xh  .I.L.I./ 2 :X:X:X:X:X:X:X:X:X:X:X:X:X:X:X:X:X:X:X:X# q ,.s.5.C : :X:X:X:X:X:X:X",
":X:X:X:X:X:X:X:X:X:Xh ( I.q.h :X:X:X:X:X:X:X:X:X:X:X:X:X:X:X:X:X:X:X:X:X:X- F 1.E - :X:X:X:X:X:X:X:X",
":X:X:X:X:X:X:X:X:X:X:X3 w n :X:X:X:X:X:X:X:X:X:X:X:X:X:X:X:X:X:X:X:X:X:X:X:X6 v * :X:X:X:X:X:X:X:X:X",
":X:X:X:X:X:X:X:X:X:X:X:X4 4 :X:X:X:X:X:X:X:X:X:X:X:X:X:X:X:X:X:X:X:X:X:X:X:X< 2 :X:X:X:X:X:X:X:X:X:X",
":X:X:X:X:X:X:X:X:X:X:X:X:X:X:X:X:X:X:X:X:X:X:X:X:X:X:X:X:X:X:X:X:X:X:X:X:X:X:X:X:X:X:X:X:X:X:X:X:X:X"
};
