/* XPM */
static char *f82f58d1347248a4e6893fb0c6d622e6iHrxPQvHr1VdFNCI[] = {
/* columns rows colors chars-per-pixel */
"50 50 167 2 ",
"   c None",
".  c #380037",
"X  c #44003F",
"o  c #20004B",
"O  c #2E0058",
"+  c #1B007C",
"@  c #35006E",
"#  c #3C006B",
"$  c #290075",
"%  c #240079",
"&  c #360071",
"*  c #3E0074",
"=  c #470145",
"-  c #4A0045",
";  c #4E014A",
":  c #53014C",
">  c #5D014D",
",  c #560347",
"<  c #4D0052",
"1  c #4C005D",
"2  c #550054",
"3  c #5B0155",
"4  c #52005F",
"5  c #5E045D",
"6  c #5F0B59",
"7  c #6B034D",
"8  c #740447",
"9  c #7E0442",
"0  c #761749",
"q  c #7D174B",
"w  c #640456",
"e  c #6B0454",
"r  c #670856",
"t  c #690A55",
"y  c #63045C",
"u  c #68095C",
"i  c #720B50",
"p  c #671C53",
"a  c #470064",
"s  c #4C0064",
"d  c #45006A",
"f  c #4B006C",
"g  c #540063",
"h  c #5A0063",
"j  c #53016C",
"k  c #5A006C",
"l  c #440173",
"z  c #490073",
"x  c #540073",
"c  c #590579",
"v  c #600062",
"b  c #6A0069",
"n  c #712871",
"m  c #BE0C1E",
"M  c #87043B",
"N  c #991637",
"B  c #AF0F25",
"V  c #A8092A",
"C  c #B40E24",
"Z  c #AD1128",
"A  c #B31126",
"S  c #BA1221",
"D  c #BC1C23",
"F  c #8F253C",
"G  c #9B2A37",
"H  c #962739",
"J  c #9A2638",
"K  c #983C37",
"L  c #95363C",
"P  c #BC2623",
"I  c #B02F28",
"U  c #AC362E",
"Y  c #B63728",
"T  c #B43C2A",
"R  c #A22933",
"E  c #A13231",
"W  c #DA0C0D",
"Q  c #CD0D14",
"!  c #C5171C",
"~  c #C7181B",
"^  c #C91A1A",
"/  c #E30F0A",
"(  c #FB0F00",
")  c #ED1405",
"_  c #E71808",
"`  c #F31501",
"'  c #FE1500",
"]  c #F51B01",
"[  c #FE1C00",
"{  c #EC2906",
"}  c #F52301",
"|  c #FF2500",
" . c #F62C02",
".. c #FF2B00",
"X. c #F73502",
"o. c #FD3400",
"O. c #F73C02",
"+. c #FA3C02",
"@. c #C13D22",
"#. c #9B4236",
"$. c #BC4024",
"%. c #B1462D",
"&. c #AC4730",
"*. c #CC471C",
"=. c #D04F1A",
"-. c #D84915",
";. c #CC521E",
":. c #D25017",
">. c #D95416",
",. c #D75D16",
"<. c #ED4007",
"1. c #F74203",
"2. c #F94502",
"3. c #F74903",
"4. c #F84C03",
"5. c #ED540A",
"6. c #EF5C09",
"7. c #F85404",
"8. c #FB5B03",
"9. c #CD671F",
"0. c #D96214",
"q. c #D97817",
"w. c #EF6309",
"e. c #EE6909",
"r. c #E5610F",
"t. c #FC6303",
"y. c #FD6B02",
"u. c #F16E0A",
"i. c #EC750C",
"p. c #FD7303",
"a. c #FC7B04",
"s. c #F97308",
"d. c #FA7C08",
"f. c #F2760A",
"g. c #E37D13",
"h. c #C35C21",
"j. c #C26024",
"k. c #810B40",
"l. c #801948",
"z. c #EA870C",
"x. c #FB8305",
"c. c #FC8A05",
"v. c #F98608",
"b. c #FB8C08",
"n. c #FE9301",
"m. c #FF9B00",
"M. c #FD9108",
"N. c #FA8710",
"B. c #FF8910",
"V. c #FFA200",
"C. c #FFAD00",
"Z. c #FFB100",
"A. c #FFB900",
"S. c #FA8F34",
"D. c #FBA44C",
"F. c #FCAD62",
"G. c #0C0083",
"H. c #894A8A",
"J. c #9A689A",
"K. c #FDBE9B",
"L. c #FDC08E",
"P. c #FDD5AA",
"I. c #FEDEBC",
"U. c #FEE0CE",
"Y. c #FDE6D0",
"T. c white",
"R. c #FFFAF4",
/* pixels */
"                                                                                                    ",
"                                                                                                    ",
"                                                                                                    ",
"                                                                                                    ",
"                                                                                                    ",
"                                                                                                    ",
"                                                                                                    ",
"                                                                                                    ",
"                                            : 2 2 2 2 :                                             ",
"                                      3 f z j h v v h f z g >                                       ",
"                                  3 x f q &.9.g.g.g.q.j.L y z h                                     ",
"                                v l l.0.n.C.V.V.V.V.V.Z.Z.M.%.g x ,                                 ",
"                              k f U x.c.x.v.b.b.b.b.b.b.M.V.A.g.6 x >                               ",
"                            b l I a.B.Y.P.x.x.b.b.b.b.b.b.b.b.Z.z.5 x                               ",
"                          , z N t.8.S.T.R.N.a.v.v.v.b.b.b.b.b.b.C.q.j h                             ",
"                          x e 2.8.8.y.F.D.a.x.x.x.v.v.v.b.b.b.b.c.C.#.l :                           ",
"                        : z D 2.O.U.I.7.y.x.d.d.d.x.x.x.v.v.v.v.v.m.z.h 4                           ",
"                        g e  .+.2.K.L.y.d.d.d.d.d.d.d.x.x.x.x.x.v.x.m.L z                           ",
"                        z N o.O.4.3.8.s.d.d.d.d.d.d.d.d.d.d.d.d.x.x.m.h.f :                         ",
"                      : f D o.X.3.8.y.s.a.x.c.a.s.s.d.d.d.d.x.n.c.d.c.i.y 1                         ",
"                      ; j ^ ..X.2.8.t.s.a.;.;.a.a.s.s.s.s.x.i.%.0.x.x.f.t 4                         ",
"                      = x ~ ..X.1.7.t.a.T @ @ U a.s.s.s.a.p.0 $ a ,.n.f.t 1                         ",
"                      = j ~ ..X.O.7.t.p.p & @ p p.p.y.y.a.,.# g % K n.u.r 1                         ",
"                      2 s ~ .. .O.4.8.p.$.# # T p.y.a.a.p.p.F @ w r.x.e.w 1                         ",
"                      2 s ~ .. .O.4.8.t.p.>.>.p.y.a.*.=.a.p.s.:.e.a.p.e.w 1                         ",
"                      2 f ! .. .X.3.7.8.t.p.p.y.a.Y % $ @.a.p.p.p.y.p.w.w 1                         ",
"                      2 f S .. .X.3.7.8.t.t.t.y.G + H F + G y.y.t.t.y.w.w 1                         ",
"                      2 f S | } X.2.4.7.8.8.y.E G.R a.p.J + $.p.t.t.y.6.w 1                         ",
"                      : d S | }  .O.3.7.7.8.t.*.@.y.8.t.y.-.5.t.8.8.t.6.w 1                         ",
"                      : f S | }  .X.2.4.7.7.7.8.y.8.7.7.8.t.8.7.8.8.t.5.w 1                         ",
"                        d P ..] }  .O.3.7.7.7.7.7.7.7.7.7.7.7.7.7.7.8.5.w 1                         ",
"                        d P | ] }  .X.1.3.7.7.7.7.7.7.7.7.7.7.7.7.7.8.5.w 1                         ",
"                      = z S [ ] ] }  .O.1.4.7.4.4.4.4.4.4.7.4.4.7.7.8.<.w 1                         ",
"                      . f S [ ] ] ] }  .X.2.4.4.4.4.4.4.4.3.2.O.O.7.8.{ w 1                         ",
"                      n O A [ ] ] ] } }  .O.3.3.3.4.3.3.2.1.+.X. .X.o.) w 1                         ",
"                      J.o B [ ` ` [ [ ] }  .2.3.2.O.O.O.O.X.o...} ] ' ) w 1                         ",
"                      H.O B [ ' [ m 8 / [ ] O.3.o... . ... .k.Z | [ ' ) 3 s                         ",
"                        c i ` [ Q a + C [ ` ] | ) } | } | A + # V ' / 9 k <                         ",
"                        ; c u M s j d V ' ' ' / 1 8 [ [ ) 3 s g d w g z 5                           ",
"                          : j l 1 X 4 g m ( W w l l 9 Q 7 z :   < s 1 =                             ",
"                                    = k f w f f - ; f * j :                                         ",
"                                        < 1 <         ;                                             ",
"                                                                                                    ",
"                                                                                                    ",
"                                                                                                    ",
"                                                                                                    ",
"                                                                                                    ",
"                                                                                                    ",
"                                                                                                    ",
"                                                                                                    "
};
