/* XPM */
static char *_1312sa1710629841[] = {
/* columns rows colors chars-per-pixel */
"50 51 192 2 ",
"   c None",
".  c #2D1B2D",
"X  c #311C2E",
"o  c #3D1C2D",
"O  c #331F30",
"+  c #362435",
"@  c #3B2534",
"#  c #3C2A37",
"$  c #3E2D3C",
"%  c #3C273A",
"&  c #760A1D",
"*  c #7B0D1D",
"=  c #710719",
"-  c #76101D",
";  c #48192A",
":  c #5B1326",
">  c #521C2C",
",  c #521628",
"<  c #6B0D21",
"1  c #7E0E21",
"2  c #661626",
"3  c #781527",
"4  c #761926",
"5  c #621D31",
"6  c #7E1D31",
"7  c #44202F",
"8  c #432432",
"9  c #4D2331",
"0  c #432D3B",
"q  c #4C2C3D",
"w  c #532E3B",
"e  c #5D2737",
"r  c #44313E",
"t  c #48323F",
"y  c #54323D",
"u  c #5D333E",
"i  c #6A2938",
"p  c #7C2934",
"a  c #742836",
"s  c #62323D",
"d  c #75353E",
"f  c #412D40",
"g  c #433541",
"h  c #4A3442",
"j  c #453C45",
"k  c #4A3A45",
"l  c #4C3E48",
"z  c #523542",
"x  c #543B44",
"c  c #543C4A",
"v  c #7C3B41",
"b  c #494147",
"n  c #4C434B",
"m  c #56424A",
"M  c #59414C",
"N  c #524451",
"B  c #5C4453",
"V  c #6B4247",
"C  c #664D5C",
"Z  c #694D5D",
"A  c #6A4354",
"S  c #774E5C",
"D  c #69505E",
"F  c #605462",
"G  c #6C5363",
"H  c #705565",
"J  c #755C6E",
"K  c #7A5D6D",
"L  c #7F5763",
"P  c #765D70",
"I  c #7A5F71",
"U  c #7D6375",
"Y  c #800F1F",
"T  c #820E21",
"R  c #8D0F23",
"E  c #8C1925",
"W  c #861D2A",
"Q  c #871725",
"!  c #941425",
"~  c #951D26",
"^  c #941D2A",
"/  c #9B1124",
"(  c #A51527",
")  c #AB152A",
"_  c #AC1C29",
"`  c #A61B28",
"'  c #B21E2C",
"]  c #A81F31",
"[  c #81252E",
"{  c #972229",
"}  c #9D222E",
"|  c #9D2A2C",
" . c #932D2F",
".. c #8C2D33",
"X. c #9A2232",
"o. c #962E35",
"O. c #962633",
"+. c #8D3033",
"@. c #84343B",
"#. c #8C343B",
"$. c #8E3A3F",
"%. c #943136",
"&. c #9C353A",
"*. c #9E3E3D",
"=. c #9D3033",
"-. c #A1242D",
";. c #AC222A",
":. c #AB2C2E",
">. c #B5232D",
",. c #B9252F",
"<. c #B52A2D",
"1. c #BB2B2F",
"2. c #AD312E",
"3. c #B7312F",
"4. c #A12434",
"5. c #A72B32",
"6. c #AC2E34",
"7. c #BA2630",
"8. c #B32D35",
"9. c #BD2A31",
"0. c #B72430",
"q. c #A63433",
"w. c #AB3534",
"e. c #A93A3C",
"r. c #B33135",
"t. c #BD3232",
"y. c #BC3D34",
"u. c #B33238",
"i. c #BB3E38",
"p. c #C02C31",
"a. c #C43433",
"s. c #C93735",
"d. c #C63B34",
"f. c #CC3C36",
"g. c #CE3F38",
"h. c #D03E38",
"j. c #A3423F",
"k. c #BB473C",
"l. c #CE4037",
"z. c #C24339",
"x. c #CB4439",
"c. c #CC4A3D",
"v. c #D24239",
"b. c #D54A3B",
"n. c #D7493B",
"m. c #823C42",
"M. c #803540",
"N. c #894245",
"B. c #A44342",
"V. c #A64843",
"C. c #AA4944",
"Z. c #A84742",
"A. c #B94842",
"S. c #825663",
"D. c #845864",
"F. c #8B636E",
"G. c #826576",
"H. c #8E6471",
"J. c #846779",
"K. c #85697B",
"L. c #8A6B7D",
"P. c #806877",
"I. c #CE5040",
"U. c #8E6F83",
"Y. c #906F86",
"T. c #8E7183",
"R. c #917285",
"E. c #937489",
"W. c #997589",
"Q. c #947989",
"!. c #9A7A8D",
"~. c #9D7D92",
"^. c #A07F92",
"/. c #99808F",
"(. c #A28296",
"). c #A58499",
"_. c #A8869A",
"`. c #A78A9D",
"'. c #AA899E",
"]. c #AF8CA2",
"[. c #B18EA4",
"{. c #AE92A4",
"}. c #B391A6",
"|. c #B594A9",
" X c #B997AC",
".X c #BB99AE",
"XX c #B799AB",
"oX c #BE9EB2",
"OX c #C3A4B6",
"+X c #CCADBF",
"@X c #CFB2C4",
"#X c #D2B4C5",
/* pixels */
"                                                                                                    ",
"                                                                                                    ",
"                                                                                                    ",
"                                                                                                    ",
"                                                                                                    ",
"                                                OXOX  #X                                            ",
"                                            !.~.'.|. X]. X@X                                        ",
"                                          T.T.T.U.!.[.].]..X#X                                      ",
"                                      P.Y.U.U.U.U.E.'.[.].].[..X|.                                  ",
"                                    T.L.L.U.Y.Y.U.K.R.'.].].[.[.'.`.                                ",
"                                  P P T.J.U.Y.U.C h t Z ^.].'._.E.R.~.                              ",
"                                P J J G.Q.I Z h @ , , @ t K !.U.U.U.Y.(.                            ",
"                              J J J J P T.l 0 7 < * = < ; # k G.Y.Y.Y.R.`.                          ",
"                            J J J P J P C r 5 R T * & * & , @ c J.U.U.U.Q.{.                        ",
"                            U J J J J B q p / ( ( / & * 1 & : @ x L.Y.U.Y.|.                        ",
"                          [.OXL.H J B r 6 ' ( ) ) _ / R T * 1 : @ B U.Y.~.[.oX                      ",
"                        ].].|..XR.N t a ) ) _ ) ) _ ( ) ! 1 1 1 : # Z L.].[.[.#X                    ",
"                        [.].[.[.~.# e X.X.] X.] ) _ ( ' ] W 3 3 3 ; + L.[.'.].OX                    ",
"                      [.].].'.[.J 0 $ 0 k j b M 4._ ) 4.M j g + + X + M _.[.[.[.+X                  ",
"                      ].].].[.R.q 0 0 f f k j x O.>._ O.x j k $ X . . @ K '.'.[.}.                  ",
"                    !.[.[.[._.c i } ^ -.X.-.^ ;.' >.` ' 4.^ -.^ ^ 4 3 , q ^.].].[.}.                ",
"                    '._.'.'.K w ] 0._ >.0.' _ ,.,.>._ ,.,._ ' 7.>.~ Q Q 7 H '.].'.].                ",
"                    E.}.].T.h a >.7._ ,.,.,._ ,.,.>._ ,.,._ p.7.7.;.~ E 2 g K.!.R.~.                ",
"                    T.U.R.G.0 6.,.7.;.7.p.7.' ,.,.,._ p.,.' 7.0.<.;.;.E E O B U.U.Q.{.              ",
"                  E.U.U.U.H i 7.9.9.;.9.9.p.;.7.p.,.;.1.1.>.<.<.7.;.7.} E > c T.U.U.).              ",
"                  T.U.U.U.B i 8.8.r.w.u.u.u.5.r.p.1.>.p.9.5.6.8.r.-.r.} [ > t K.Y.T.Q.              ",
"                  T.T.U.U.h q h z z h x c c M V w.<.>.r.V m c M x k y 0 o O r G.U.U.R.              ",
"                  U K.K.K.h $ % $ $ f g k j j b &.1.>.&.b j j g g r $ + . O 0 K K.L.L.              ",
"              Q.U.K.U.U.R.h w =.o.o...o...&.%.w.a.t.,.a.w...%.%.%...o.6 4 ; r U K.R.Q.Q./.          ",
"              U J P J J U c s s.a.a.9.s.t.a.<.@.v t.<.d @.<.t.a.a.1.a.:.{ 9 t J P P P J K.          ",
"              U J J P J J c s s.a.a.9.s.t.d.=.m F $...F N ..a.s.a.t.a.:. .9 r J J P P J U           ",
"              P P J J P P z x s.f.d.t.s.s.a.v g k m.@.k g v d.s.s.d.d.:.{ 9 0 J J P P P J           ",
"                  U G.K.U $ y f.g.s.a.f.f.f.v e.B.N.$.j.j.m.f.f.f.f.f.:.| 8 # K.R.E.T.G             ",
"                  Q.U.Y.Q.c y h.g.g.d.f.f.h.w.v v i.r.v v q.h.f.h.f.h.2.| 8 l [.}.[..X              ",
"                  R.T.U.R.c y v.f.f.d.l.v.l.d.l.f.l.a.v.l.d.v.l.v.d.f.2.| 8 c ].].].}.              ",
"                  U.U.U.L.h y v.v.v.d.v.v.v.l.v.v.f.d.v.v.f.v.v.f.d.v.2.| 8 h _.'.'.'.              ",
"              oX.X X.X.X.XB r j.j.j.*.B.V.B.V.A.b.v.l.n.k.j.V.V.Z.*.j.@.p @ c (.~.^.(.`.`.          ",
"              ].].].].].[.H h % 0 $ r g j j b n C.b.x.j.n b j j r r $ + . # B T.R.Y.T.U.E.          ",
"              ].].].].].].Z r q q w y y z x x V x.b.x.c.V x y u y t y 8 o # x T.U.Y.T.Y.T.          ",
"              '.`.`.).'.].M r k.x.c.d.c.c.x.d.b.b.c.l.n.b.y.c.c.x.y.x.2. .@ k K.T.U.T.R.E.          ",
"          R.R.U.U.(.I P U C r k.c.c.y.c.c.c.z.c.c.k.z.c.c.y.c.c.c.y.c.q...% c J J I R.T.R.E.W.      ",
"          U.U.Y.U.R.P J J B Z L D.D.S.D.D.H.H.H.H.H.F.H.H.H.D.S.D.S.D.S A c c P J J K.U.U.Y.U.      ",
"          R.R.E.R.U.U J J K L.U.U.R.U.R.!._.`.(.(.`.(.`.`.(.(.W.W.W.W.W.W.R.G.G.K.U G.T.T.U.L.      ",
"                                                                                                    ",
"                                                                                                    ",
"                                                                                                    ",
"                                                                                                    ",
"                                                                                                    ",
"                                                                                                    ",
"                                                                                                    ",
"                                                                                                    "
};
