/* XPM */
static char *ec39dcb7b8e449c3df0c62b86b10c582LgkCkYlntu7veL4R[] = {
/* columns rows colors chars-per-pixel */
"50 53 186 2 ",
"   c None",
".  c #3A2B35",
"X  c #3D2D3B",
"o  c #3E323E",
"O  c #422E3C",
"+  c #4C2E3B",
"@  c #502F3C",
"#  c #582A38",
"$  c #5C2937",
"%  c #43313E",
"&  c #48313D",
"*  c #55303F",
"=  c #672932",
"-  c #662D3B",
";  c #762433",
":  c #702F3C",
">  c #7C2135",
",  c #6B393E",
"<  c #70303D",
"1  c #7A343D",
"2  c #75393F",
"3  c #3F3240",
"4  c #412E40",
"5  c #433442",
"6  c #4B3442",
"7  c #443A45",
"8  c #4A3D45",
"9  c #463B49",
"0  c #4A3D4B",
"q  c #583742",
"w  c #523943",
"e  c #5C3B45",
"r  c #563D4C",
"t  c #6E3542",
"y  c #653D46",
"u  c #6B3A44",
"i  c #743B44",
"p  c #4C454C",
"a  c #4D484E",
"s  c #51444B",
"d  c #5B434D",
"f  c #51494F",
"g  c #5D4045",
"h  c #4E4651",
"j  c #4E4B52",
"k  c #524654",
"l  c #5E4554",
"z  c #524C54",
"x  c #5B4A56",
"c  c #574E59",
"v  c #594F5B",
"b  c #555057",
"n  c #575158",
"m  c #59525B",
"M  c #6B4047",
"N  c #6D454C",
"B  c #62434D",
"V  c #744244",
"C  c #7B4445",
"Z  c #76434C",
"A  c #6A4756",
"S  c #6F4D50",
"D  c #664D5C",
"F  c #7D4850",
"G  c #744E59",
"H  c #674F60",
"J  c #6C5565",
"K  c #685763",
"L  c #755C6F",
"P  c #795B6C",
"I  c #775F71",
"U  c #7C5F70",
"Y  c #6B616A",
"T  c #72646F",
"R  c #756271",
"E  c #7B6473",
"W  c #971729",
"Q  c #971A2C",
"!  c #8B1F33",
"~  c #811D32",
"^  c #A51427",
"/  c #A71728",
"(  c #A9162A",
")  c #A31A2C",
"_  c #AC192A",
"`  c #B01F2B",
"'  c #9A222E",
"]  c #96212D",
"[  c #8E2233",
"{  c #8C2838",
"}  c #882B37",
"|  c #962533",
" . c #932A37",
".. c #9B2C35",
"X. c #982C38",
"o. c #9E2735",
"O. c #83343B",
"+. c #8B3B3F",
"@. c #8C353B",
"#. c #943134",
"$. c #94353D",
"%. c #9A3138",
"&. c #9A383B",
"*. c #AF202B",
"=. c #A3212F",
"-. c #B4232D",
";. c #B9242F",
":. c #B7282F",
">. c #AA2630",
",. c #AE2D32",
"<. c #BB2731",
"1. c #B62D32",
"2. c #BC2A31",
"3. c #B32631",
"4. c #A83D37",
"5. c #A3353A",
"6. c #A33C3B",
"7. c #A93536",
"8. c #BB3434",
"9. c #BA3D3A",
"0. c #B63836",
"q. c #C33334",
"w. c #C63A36",
"e. c #CA3C36",
"r. c #CC3F38",
"t. c #95413D",
"y. c #A5423D",
"u. c #AA443D",
"i. c #BB423C",
"p. c #B8493F",
"a. c #B0443C",
"s. c #CD4236",
"d. c #CD443A",
"f. c #C5473C",
"g. c #D14339",
"h. c #D84C3C",
"j. c #D04437",
"k. c #972E41",
"l. c #833C42",
"z. c #903A4E",
"x. c #8A494D",
"c. c #964443",
"v. c #8C4F56",
"b. c #954A5B",
"n. c #A04A47",
"m. c #BE4A44",
"M. c #875A67",
"N. c #8D576B",
"B. c #826575",
"V. c #85697C",
"C. c #8A6B7D",
"Z. c #86677B",
"A. c #956277",
"S. c #80727D",
"D. c #8E6F83",
"F. c #8E7385",
"G. c #927286",
"H. c #957589",
"J. c #9B7689",
"K. c #977B8E",
"L. c #987A8D",
"P. c #9B7587",
"I. c #9E7E93",
"U. c #A07287",
"Y. c #A07F93",
"T. c #9F8095",
"R. c #A18295",
"E. c #A48599",
"W. c #A78B9D",
"Q. c #AA8A9D",
"!. c #AF8CA2",
"~. c #AF8DA2",
"^. c #AF8CA1",
"/. c #AF8CA2",
"(. c #B18FA4",
"). c #AF94A5",
"_. c #B292A6",
"`. c #B394A7",
"'. c #B595A9",
"]. c #B999AC",
"[. c #BE9FB1",
"{. c #C6A5B9",
"}. c #C7A8BA",
"|. c #C6A7B9",
" X c #CCACC0",
".X c #CFB3C4",
/* pixels */
"                                                                                                    ",
"                                                                                                    ",
"                                                                                                    ",
"                                                                                                    ",
"                                                                                                    ",
"                                                                                                    ",
"                                                                                                    ",
"                                          ].[.}.{.{.}.                                              ",
"                                      G.G.G.H._.~.~._. X                                            ",
"                                    F.D.D.D.D.R.~.~.~.`.{..X                                        ",
"                                  C.D.D.D.D.D.H./.~.~.~.~.~._.                                      ",
"                              E F.Z.D.D.D.D.C.D C.Q.~.~.~.~.R.T.                                    ",
"              z *           I L L K.B.D.C.J 6 . O r D.Q.~.I.D.D.H.            r b                   ",
"              z >         I L L L V.F.D 6 %       6 O D B.C.D.D.D.I.        ; t b                   ",
"              z ! ~     R L L L L E E . X X 5 3 5 o 5 X X U D.D.D.G.E.      W t z                   ",
"              z ! W     L L L L L J 6     5       X 0   O 6 B.D.D.D.G.W.  ; ^ t z                   ",
"              k [ ^ b.W.L L L L H 6       7         p     % w V.D.D.G._.[.Q ( t z                   ",
"              k [ _ k.(._.L L H 6 8       7         p       O r D.D.Y.~.A.) ( t z                   ",
"              z [ _ ) U.].'.D 6 5 k k k 0 0 v c c 0 k m m m 0 O l C.~.~.z./ _ t z                   ",
"              k { | | N.~.(.x X . % X 5 o X 7 7 7 5 5 9 9 9 o 7 . B.~.Q.} [ o.t z                   ",
"              k i p 5 r ~.L.6   o         7         h       %     d R.D.O 7 B u z                   ",
"              k < 8 5 X R.l     o         9         h       5     % P J O 7 q u z                   ",
"              k  .' ' Q A 6     3         9       7 h       5       6 O.' ] =.t j                   ",
"              k  .` -.-.- 4 5 5 5 7 7 7 7 9 9 9 0 9 p p p p 0 p h h 6 | -.-.-.i j                   ",
"              k X.*.;.-.}       . 7       o       o 7       o p     q >.-.-.;.i j                   ",
"              k X.-.<.-.o.      o         9         h       5         3.-.-.<.i h                   ",
"              f X.-.2.:.,.                                            2.-.-.2.i z                   ",
"            Y f %.-.2.2.1.                                          o.2.-.-.2.i m                   ",
"            R h %.5.$.1 -                                             : O.$.0.i m                   ",
"            J a l.s 5 % X                                             X 5 7 N i b                   ",
"          K.E a 2 8 6 + $                                             # & 7 e i m E.E.              ",
"        V.L K p $.#.,.8.8.                                            q.1...%.i c I E               ",
"        L L K a i A 5.q.8.                                            q.8.x.y N z L L               ",
"        L L K p d m u 8.9.                                            q.5.k x d z L L               ",
"        L L H p Z + 1 0.9.                                            w.&.= e M k J J               ",
"            Y p l.O.+.8.9.                                            e.6.@.l.V b                   ",
"            T p 6.#.7.e.9.                                            e.w.#.0.C m                   ",
"            T p 6.e.r.e.9.                                            r.e.e.r.C n                   ",
"            S.p 6.e.s.e.9.                                            r.e.e.g.C b                   ",
"        '.~.F.p y.s.d.y.2                                             +.i.e.g.C b L.L.              ",
"        ~.~.F.p u.n.y 5 O                                             O w C m.C c F.D.              ",
"        Q./.F.p x.s 5 O @                                             + 5 7 S C c D.D.              ",
"    ).`.Q.E.F.p V 8 , 4.a.                                            i.O.w g V n L.L.W.W.          ",
"    F.D.D.D.E p y.9.h.j.u.                                            f.s.s.f.C c D.D.D.D.I.        ",
"    D.D.D.D.E p u.j.f.c.M.J.J.J.J.J.Y.(.(.(.(.(.(.(.(.(.H.P.J.J.J.J.C.v.u.d.h.C c F.D.D.D.F.        ",
"    G.G.H.H.E p y.t.G U Z.Z.C.C.D.D.I.Y.I.I.I.I.I.Y.I.I.Y.J.J.J.J.J.J.H.B.F p.C k C.D.D.V.C.        ",
"              a 8                                                             s a                   ",
"                                                                                                    ",
"                                                                                                    ",
"                                                                                                    ",
"                                                                                                    ",
"                                                                                                    ",
"                                                                                                    "
};
