/* XPM */
static char *_f34a103a1af443ff004a3c4860945d9fCUEyjlpfn22SzzD[] = {
/* columns rows colors chars-per-pixel */
"50 50 200 2 ",
"   c None",
".  c #2A0043",
"X  c #2E0054",
"o  c #2B005D",
"O  c #320056",
"+  c #3A0055",
"@  c #34005C",
"#  c #3C005B",
"$  c #2C0063",
"%  c #2F006A",
"&  c #350066",
"*  c #3C0065",
"=  c #33006D",
"-  c #3B006C",
";  c #350072",
":  c #45004F",
">  c #420053",
",  c #4B0055",
"<  c #45005B",
"1  c #4B005D",
"2  c #560151",
"3  c #53025C",
"4  c #5E005D",
"5  c #5E0E5C",
"6  c #5E105F",
"7  c #64005A",
"8  c #690259",
"9  c #640A5C",
"0  c #6B0B5B",
"q  c #64135C",
"w  c #6A1858",
"e  c #731356",
"r  c #791B59",
"t  c #7D2948",
"y  c #7D384D",
"u  c #752C57",
"i  c #7B2855",
"p  c #7F315A",
"a  c #440065",
"s  c #4B0064",
"d  c #43006A",
"f  c #4B006B",
"g  c #530164",
"h  c #5B0465",
"j  c #52006B",
"k  c #5B006E",
"l  c #4A0F7A",
"z  c #56017C",
"x  c #630263",
"c  c #6B0A65",
"v  c #750E60",
"b  c #6E1562",
"n  c #741865",
"m  c #630079",
"M  c #7B2460",
"N  c #8B2F22",
"B  c #802634",
"V  c #953F3A",
"C  c #95433E",
"Z  c #96593E",
"A  c #A14B2F",
"S  c #AF5B2D",
"D  c #A54C36",
"F  c #A95931",
"G  c #A55331",
"H  c #A26027",
"J  c #B56526",
"K  c #A8623D",
"L  c #B46A32",
"P  c #A97034",
"I  c #B17B36",
"U  c #BA7538",
"Y  c #C56C1F",
"T  c #CC7F1B",
"R  c #C6751E",
"E  c #D57F14",
"W  c #C16922",
"Q  c #832C4C",
"!  c #812C47",
"~  c #833344",
"^  c #82334A",
"/  c #8C3747",
"(  c #903240",
")  c #812B51",
"_  c #8C2B53",
"`  c #8A3658",
"'  c #8D4646",
"]  c #984A48",
"[  c #954A52",
"{  c #985552",
"}  c #AA5C41",
"|  c #9F624B",
" . c #A46846",
".. c #A86A48",
"X. c #B16446",
"o. c #AC7346",
"O. c #AE7248",
"+. c #B17645",
"@. c #B7863E",
"#. c #B7822A",
"$. c #D78515",
"%. c #E48E0B",
"&. c #E6940B",
"*. c #F39D00",
"=. c #F49401",
"-. c #D2A31B",
";. c #F5A400",
":. c #FBA400",
">. c #F5AC00",
",. c #FDAC00",
"<. c #F6B400",
"1. c #FEB400",
"2. c #F6BC01",
"3. c #FFBC00",
"4. c #F5B709",
"5. c #E2B510",
"6. c #F5B211",
"7. c #C78A2A",
"8. c #C5972E",
"9. c #C48431",
"0. c #CC9933",
"q. c #D8AB2C",
"w. c #D9BA2C",
"e. c #D7B328",
"r. c #C9A736",
"t. c #DAA730",
"y. c #D5B431",
"u. c #F7C103",
"i. c #F8C501",
"p. c #F9C905",
"a. c #F7C30A",
"s. c #F8C70B",
"d. c #F7CB0E",
"f. c #F8CB0C",
"g. c #FFD202",
"h. c #FFDA01",
"j. c #FBD70E",
"k. c #F9CF12",
"l. c #F7CA11",
"z. c #EFDD1D",
"x. c #F9D115",
"c. c #F9D51B",
"v. c #FAD91E",
"b. c #F7DE1C",
"n. c #E9C515",
"m. c #FEE301",
"M. c #FEEB03",
"N. c #FEED0A",
"B. c #FBE30F",
"V. c #FFF200",
"C. c #FFFE01",
"Z. c #FFF20C",
"A. c #FFFA0C",
"S. c #FCE514",
"D. c #FFEC14",
"F. c #FEE61E",
"G. c #FDED1D",
"H. c #F5E61E",
"J. c #FFFF15",
"K. c #FEF41D",
"L. c #FFFE1B",
"P. c #FFF615",
"I. c #E2CC2B",
"U. c #EBCC2B",
"Y. c #EAD626",
"T. c #F8D622",
"R. c #F9DC22",
"E. c #FADE29",
"W. c #F2D525",
"Q. c #ECE025",
"!. c #FBE323",
"~. c #FCEB23",
"^. c #FAE32B",
"/. c #FCEE2F",
"(. c #F4ED24",
"). c #FDF222",
"_. c #FEF622",
"`. c #FDF125",
"'. c #FDF422",
"]. c #FFFC22",
"[. c #FDFD2B",
"{. c #FDF229",
"}. c #FDF533",
"|. c #FDF33B",
" X c #AF8143",
".X c #B98B40",
"XX c #C59441",
"oX c #FDF545",
"OX c #FDF54B",
"+X c #FCED54",
"@X c #FDF05B",
"#X c #FDF37C",
"$X c #501385",
"%X c #6E0E82",
"&X c #6E1582",
"*X c #74158E",
"=X c #FDF180",
"-X c #FEF9A4",
";X c #FEF9C3",
":X c white",
/* pixels */
"                                                                                                    ",
"                                                                                                    ",
"                                                                                                    ",
"                        >                                                 2 2                       ",
"                    @ g h                                                 c b <                     ",
"                  % q =.G =                                             a  XL.` f                   ",
"                % ! :.i.:.q @                                         : b ~.J.L. .f                 ",
"              ; ( 1.1.=.i.T -                                         f r.J.~.L.J.+.f               ",
"            = ~ 1.,.*.;.>.p.' &                                     a [ L.).~.~.L.J.O.f             ",
"          o r ,.,.*.;.;.>.p.2.6 +                                   x Y.L.~.~.~.~.].J.{ s           ",
"          f %.1.*.;.;.<.<.2.V.#.;                                 d @.J.!.~.~.~.~.`.L.K.n ,         ",
"        = J 3.*.;.;.<.<.2.i.p.m.y &                             < p K.).!.~.~.~.~.`.{.J.y.k         ",
"      o i 1.:.;.;.<.2.2.i.i.u.m.5.j                             j w.L.R.!.!.~.~.~.`.`.].J.| s       ",
"      d T 3.*.;.>.<.2.i.i.i.i.i.V.P =                         *  .J.!.!.!.!.~.~.~.~.).).L.Q.c       ",
"    o ^ 1.;.;.>.<.2.u.i.i.i.i.i.g.m.u @                     < w G.K.R.!.!.!.~.~.~.~.).)._.J.O.1     ",
"    * R 3.*.;.<.2.2.i.i.i.i.i.i.u.M.-.d                     # r.J.E.!.!.!.!.!.~.~.~.)._._.L.Y.x     ",
"    q ;.:.;.>.<.2.i.i.i.i.i.i.i.i.p.V.Z =                 z ~ J.!.R.!.!.!.!.!.~.~.~.).)._.].L.` ,   ",
"  $ C 1.*.;.>.2.2.i.i.i.i.i.i.i.i.s.m.k.q #               g U.L.E.R.R.!.!.!.!.~.~.~.).)._._.J..Xs   ",
"  & W 1.;.;.<.2.u.i.i.i.i.i.i.i.i.f.l.A.8.d             d @.J.E.R.R.R.!.!.!.!.~.~.~.).)._._.L.I.x   ",
"  3 %.,.;.;.<.2.i.i.i.i.i.i.i.i.p.f.d.x.V.' &         O p P.F.E.R.R.R.!.!.!.!.~.~.~.).)._._.L.].i   ",
"  w :.:.;.>.<.2.i.i.i.i.i.i.i.i.f.f.d.d.M.n.h         j w.J.T.R.R.R.R.!.!.!.!.~.~.~.).)._._.].L.[ , ",
"o ! ,.;.;.>.<.2.i.i.i.i.i.i.i.p.f.f.d.f.l.C.I -     * | J.R.R.R.R.R.R.!.!.!.!.~.~.~.).)._._.].L.O.1 ",
"o V 1.;.;.>.2.2.i.i.i.i.i.i.i.f.f.f.f.f.d.j.N.u #   q b.G.R.R.R.R.R.R.!.!.~.~.~.~.~.).)._._.].J.@.1 ",
"& A 1.;.;.>.2.2.i.i.i.i.i.i.i.p.p.p.p.f.d.l.A.e.d = 8.J.T.R.R.R.R.R.R.K.L.K.L.L.L.~.~.)._._.].L.XX< ",
"$ G 1.;.;.>.2.2.i.i.i.i.i.i.i.i.i.p.f.d.d.k.x.A.K ' P.v.R.R.R.R.R.E.K.W.] ) ) / I.L.~.)._._.].J.I m ",
"$XN 1.;.;.>.<.2.i.i.i.i.i.i.i.i.i.p.f.d.d.k.k.c.D.D.b.T.R.R.R.R.R.~.~.i - s g - w !.L.)._.].].J.H *X",
"l B 1.;.;.>.<.2.i.i.i.i.i.i.i.i.i.p.f.d.d.k.x.c.c.c.c.v.R.R.R.R.R.L.y.s 7 7 7 8 a r.L.)._._.].]...k ",
"  i ,.:.*.;.<.2.i.i.i.i.i.i.i.i.i.p.f.d.d.k.x.x.c.c.c.R.R.R.R.R.R.K.W.5 a 4 4 s g U.L.)._._.].L.] %X",
"  q =.:.>.<.<.2.i.i.i.i.i.i.i.i.i.p.f.d.d.k.x.x.c.c.c.v.R.R.R.R.R.R.L.y.e 7 7 8 0.L.G.K.K.K.].L.Q   ",
"  a E ,.6.2.2.2.i.i.i.i.i.i.i.i.i.p.f.f.d.k.x.c.c.c.c.v.R.R.R.R.R.R.R.L.~.U.U.~.L.G.~.|.oX}.L.(.v   ",
"  $ S 3.>.<.2.2.i.i.i.i.i.i.i.i.i.p.f.d.d.k.x.c.c.c.c.v.v.R.R.R.R.R.R.R.~.L.L._.~.G.|.OX}.oX].y.g   ",
"  o t 1.<.<.<.2.2.i.i.i.i.i.i.i.i.p.f.d.d.k.x.c.c.c.c.c.v.R.R.R.R.R.R.!.!.!.!.~.~.~.oX|._._.[. .1   ",
"    1 &.3.>.<.2.2.i.i.i.i.i.i.i.i.p.f.d.d.k.x.c.c.c.c.v.R.R.R.R.R.R.R.R.!.!.!.~.~.~.|.OX}.[.[.r     ",
"    $ F i.;.>.<.2.2.i.i.i.i.i.i.i.p.f.d.d.k.x.c.c.c.c.v.R.R.R.R.R.R.R.R.!.!.!.~.~.G.G.|.|.].r.,     ",
"      q ;.,.;.>.<.2.i.i.i.i.i.i.i.p.f.d.d.k.x.c.c.c.c.v.R.R.R.R.R.R.R.!.!.!.!.~.G./.}.K.L.J.t &X    ",
"      % F 3.;.;.<.2.2.i.i.i.i.i.i.p.f.d.d.k.x.x.c.c.c.v.R.R.R.R.R.R.R.!.!.!.!.~.M.#X-XN.J.r.>       ",
"        g &.1.;.>.<.2.i.i.i.i.i.i.p.f.d.d.k.x.c.c.c.c.v.R.R.R.R.R.R.!.!.!.!.!.S.m.~.|.L.L.M 3       ",
"        $ ^ 3.>.;.<.2.2.i.i.i.i.i.p.f.f.d.k.x.c.c.c.c.R.R.R.R.R.R.R.R.!.!.!.S.=X;X/.Z.J.o.f         ",
"          ; J i.;.>.<.2.2.i.i.i.i.p.f.f.d.k.x.c.c.c.c.R.R.R.R.R.R.R.R.!.!.!.S.;X:X@XC.y.j           ",
"            d $.i.;.>.<.2.u.i.i.i.p.f.f.d.k.x.c.c.c.c.v.R.R.R.R.R.R.R.!.!.!.F.+X#XJ.z.c ,           ",
"            O s $.i.;.>.<.2.u.i.i.f.f.f.d.k.x.c.c.c.c.c.R.R.R.R.R.R.R.R.!.^.^.B.C.H.n <             ",
"              X f $.p.,.>.<.2.u.i.p.f.f.k.x.x.c.c.c.c.c.R.R.R.R.R.R.R.^.^.!.~.J.W.n <               ",
"                X f W p.3.>.<.2.a.p.f.d.d.k.x.x.c.c.c.v.R.R.R.R.R.R.E.^.R.K.J.y.c <                 ",
"                    ; ( ,.g.3.<.2.a.p.f.d.x.x.c.c.c.c.v.R.R.R.R.R.E.E.~.J.L.X.j :                   ",
"                      & 9 Y 3.g.i.2.a.s.f.k.x.c.c.c.R.R.R.R.R.E.E.~.J.J.t.r d                       ",
"                        X - e J <.h.h.g.f.f.k.x.c.c.c.c.R.v.F.].J.S.0._ g >                         ",
"                            O - 0 D $.4.h.M.M.N.N.Z.Z.A.A.Z.c.q.K r s <                             ",
"                                  $ a 9 / } L J 7.7.9.U } ] e g *                                   ",
"                                        O @ d f . # s # # +                                         ",
"                                                                                                    "
};
