/* XPM */
static char *_bb45d6f3b5a464bdb11ef417f763caaoYaeh44i9wV13hcT[] = {
/* columns rows colors chars-per-pixel */
"50 50 203 2 ",
"   c None",
".  c #42003D",
"X  c #1D0048",
"o  c #2D004E",
"O  c #32004E",
"+  c #2D0054",
"@  c #2C005B",
"#  c #310053",
"$  c #33005C",
"%  c #3E005C",
"&  c #3B0053",
"*  c #2C0063",
"=  c #2D006D",
"-  c #350162",
";  c #390064",
":  c #35006B",
">  c #3E026D",
",  c #360070",
"<  c #4C0044",
"1  c #47004A",
"2  c #49004B",
"3  c #51004D",
"4  c #4B0054",
"5  c #4B015D",
"6  c #42005A",
"7  c #540052",
"8  c #5C005E",
"9  c #5A055C",
"0  c #7A1E4E",
"q  c #72194F",
"w  c #64005A",
"e  c #680B56",
"r  c #750C5B",
"t  c #6A1252",
"y  c #6E1C5A",
"u  c #741A53",
"i  c #78155A",
"p  c #7F274C",
"a  c #7D2552",
"s  c #450064",
"d  c #4C0065",
"f  c #43026B",
"g  c #4D006A",
"h  c #530263",
"j  c #5C0163",
"k  c #53006A",
"l  c #59016B",
"z  c #570961",
"x  c #670765",
"c  c #6E1366",
"v  c #781961",
"b  c #601172",
"n  c #993D38",
"m  c #AE521F",
"M  c #B75A1A",
"N  c #95423F",
"B  c #9D4D3A",
"V  c #A84F2F",
"C  c #AC532D",
"Z  c #A64A32",
"A  c #A2553B",
"S  c #A55B3B",
"D  c #A75837",
"F  c #B85E27",
"G  c #B6672A",
"H  c #BC762A",
"J  c #BE7827",
"K  c #AD6839",
"L  c #AE7A3E",
"P  c #B77737",
"I  c #A3622A",
"U  c #C46B1E",
"Y  c #CC6E19",
"T  c #D67B13",
"R  c #D57914",
"E  c #CA791E",
"W  c #C06722",
"Q  c #872E48",
"!  c #8A3445",
"~  c #85344D",
"^  c #8B3A4B",
"/  c #8B3544",
"(  c #923F44",
")  c #812D51",
"_  c #84235A",
"`  c #8C3454",
"'  c #8C3A51",
"]  c #903953",
"[  c #984A4A",
"{  c #9B5649",
"}  c #914552",
"|  c #8C524A",
" . c #A25D43",
".. c #9F604C",
"X. c #A56244",
"o. c #AC6F43",
"O. c #AA6549",
"+. c #A96541",
"@. c #AB7041",
"#. c #B47C43",
"$. c #BF8934",
"%. c #B5813C",
"&. c #DA810F",
"*. c #DB8512",
"=. c #D1881A",
"-. c #CF921F",
";. c #D1941D",
":. c #D7951A",
">. c #CA881D",
",. c #E98F0B",
"<. c #F49E00",
"1. c #FA9C00",
"2. c #EB9209",
"3. c #DBA316",
"4. c #DCA61C",
"5. c #E4AA0E",
"6. c #F4A300",
"7. c #FBA300",
"8. c #F5AB00",
"9. c #FEAB00",
"0. c #F5AB08",
"q. c #F6B300",
"w. c #FEB400",
"e. c #F6BC01",
"r. c #FEBB00",
"t. c #E3AC13",
"y. c #E1AD1B",
"u. c #E8B618",
"i. c #F6B910",
"p. c #C68729",
"a. c #CF9423",
"s. c #D49C25",
"d. c #C38D34",
"f. c #C68F3D",
"g. c #C99839",
"h. c #DAA927",
"j. c #D5B42E",
"k. c #DFBA2D",
"l. c #DBB52B",
"z. c #CFAA34",
"x. c #D6AD32",
"c. c #D2A330",
"v. c #D8B734",
"b. c #E2B222",
"n. c #F7C101",
"m. c #F8C501",
"M. c #FBCA03",
"N. c #F7C50B",
"B. c #F9C40A",
"V. c #F8CB0C",
"C. c #FEDA02",
"Z. c #FCD60E",
"A. c #FFD400",
"S. c #EFC214",
"D. c #F9CF12",
"F. c #F4C716",
"G. c #F9D115",
"H. c #F9D51B",
"J. c #F9D91F",
"K. c #FCDD15",
"L. c #FFE503",
"P. c #FEEB02",
"I. c #FCE30C",
"U. c #FBEB0A",
"Y. c #FFFF04",
"T. c #FFFC0D",
"R. c #FEF300",
"E. c #FFE312",
"W. c #FFEB13",
"Q. c #FCE31A",
"!. c #FCEB1C",
"~. c #FFF314",
"^. c #FFFE15",
"/. c #FEF41E",
"(. c #FFFE1B",
"). c #ECCB25",
"_. c #E7C929",
"`. c #F9DB22",
"'. c #FADF2A",
"]. c #F5D824",
"[. c #FBE323",
"{. c #FCEB23",
"}. c #FAE32A",
"|. c #FDF322",
" X c #FFFB21",
".X c #FDF32B",
"XX c #FFFF2A",
"oX c #FCED3A",
"OX c #FDF235",
"+X c #FEF63B",
"@X c #BE8940",
"#X c #C49441",
"$X c #FDEF46",
"%X c #FDF343",
"&X c #FDF44C",
"*X c #FCEF6E",
"=X c #FDF56E",
"-X c #FDF078",
";X c #690B81",
":X c #FEF780",
">X c #FCF490",
",X c #FEF8A3",
"<X c #FFFEF9",
/* pixels */
"                                                                                                    ",
"                                                                                                    ",
"                                          9 b l ;Xl h d h 9                                         ",
"                                  3 5 h r ~ { o.I %.#X@XO.] r h s 7                                 ",
"                              4 d r X.j.|.(.(. X^.^.^.(.(.(.|.v.o.i h 5                             ",
"                          7 d _ z.XXXXXX(. X X X X X X X X X(.(.^.(.v.` k 4                         ",
"                        s x g.^.(.XX X+X+X/.|.|.|.|. X X X X|.|. X(.^.(.v.v s                       ",
"                    3 g [ |.T.^.+X+X.XOX%X|.|.|.|.|.|.|.|.|.|.|.|.|.|. X^.(.O.k 2                   ",
"                  1 k f.^.(.|.|..X&X%X&XOX/.|.|.|.|.|.|.|.|.|.|.|.|.|.|.|.(.^.x.j 4                 ",
"                1 l x.Y.R.U.,X=XP.OX%XOX{.|././.|.|.|.|.{.{.{.|.|.|.|.|.|..X|.^._.x 4               ",
"              < l x.Y.:X>X!.$XoX!.!.{.!.{.{.{.{.{.{.{.{.{.{.{.{.{.{.{.{.{.|.|.|.^._.j 1             ",
"              g g.T.!.<X<XoXI.!.{.{.{.{.|.{.{.{.{.{.{.{.{.{.{.{.{.{.{.{.{.{.{.{.|.^.v.l <           ",
"            s ..^.{.Q.*X-XQ.[.[.[.[.[.|.[.[.[.[.{.{.{.{.[.[.{.{.{.{.{.{.{.{.{.{.!.{.^.#.h           ",
"          1 v !.(.}.}.I.I.[.[.[.[.[.[./.}.[.[.[.[.[.[.[.[.[.[.[.[.[.[.[.{.{.{.I.}.}./.(.c 7         ",
"          k z.^.'.}.}.[.[.[.[.[._.L k.{.[.[.[.[.[.[.[.[.[.[.[.[.x.X.].[.[.[.[.[.}.}.'.(.j.j         ",
"        % } ^.[.}.}.[.}.}.[.[._.h j d k.{.}.[.[.[.[.[.[.[.[.'.g.d 8 h `.[.[.[.}.[.}.}.[.^.{ %       ",
"        h j.(.'.}.[.}.}.`.`.`.^ 8 w 8 u [.}.}.`.`.[.[.}.}.[.%.9 w w 8 L [.[.`.'.'.[.}.'.(.l.h       ",
"      6 ` ~.[.'.`.'.'.`.`.`.`.~ w w w a `.[.{.!.{.`.`.`.'.'.{ w w w w X.`.`.`.`.'.'.J.'.}.^.' &     ",
"      6 $.^.'.'.`.'.'.`.`.`.`.) w w 8 a `.`.`.`.`.`.`.`.`.'.o.w w w 8 o.`.`.`.`.`.`.`.'.'.^.$.s     ",
"      8 _.|.`.`.`.`.`.`.`.`.`.x.s w s d.`.`.`.`.`.`.`.`.`.`.).X.d w s ).`.`.`.`.`.`.`.`.`.|.).w     ",
"      ) Q.[.`.`.`.`.`.`.`.`.`.`.c.| d.`.`.`.`.`.`.`.`.`.`.`.`.`.K ~ l.`.`.`.`.`.`.`.`.`.`.'.~.^     ",
"    %  .T.`.`.`.`.`.`.`.`.`.`.`.`.`.`.`.`.`.`.`.`.`.`.`.`.`.`.`.`.`.`.`.`.`.`.`.`.`.`.`.`.`.T.+.%   ",
"    % P T.`.`.`.`.`.`.`.`.`.`.`.`.`.`.`.`.`.`.`.J.`.`.`.`.`.`.`.`.`.`.`.J.`.`.`.`.`.`.`.`.`.~.d.6   ",
"    5 s.~.J.J.`.`.`.`.`.`.`.J.`.`.J.J.J.`.`.`.`.`.J.`.J.`.`.`.J.J.J.`.`.J.`.`.`.`.J.`.`.`.`.W.h.5   ",
"    8 b.W.J.J.J.J.J.J.J.J.J.J.J.J.J.J.J.J.J.J.J.J.!.Q.H.J.J.J.J.J.J.J.J.J.J.J.J.J.J.J.J.J.J.W.b.8   ",
"    7 u.E.J.J.J.J.J.J.J.J.J.J.J.J.J.J.J.J.J.J.J.J.J.J.K.H.J.J.J.J.J.J.J.J.J.J.J.J.J.J.J.J.J.E.u.8   ",
"    . u.E.H.J.H.H.H.H.H.H.H.H.H.H.H.H.H.H.H.H.H.H.H.H.K.H.G.H.H.H.H.H.H.H.H.G.G.H.H.H.H.H.H.E.u..   ",
"    4 3.I.G.H.G.G.G.G.G.G.G.G.G.G.G.G.G.G.G.G.G.G.K.K.G.G.G.G.G.G.G.G.G.G.G.G.G.G.G.G.G.H.G.I.3.2   ",
"    k -.L.D.G.G.G.G.G.G.G.F.S h.G.G.G.G.G.G.G.G.G.G.G.G.G.G.G.G.G.G.G.F.S h.G.G.G.G.G.G.G.D.L.s.h   ",
"    ; P P.V.G.G.G.D.D.D.D.( Q y.D.D.D.D.D.D.D.D.D.D.D.D.Z.S.D.D.D.D.D.D.A ! D.D.D.D.D.D.G.V.L.p.%   ",
"    $ A L.N.V.V.V.V.V.V.V.a.4.e p.V.V.V.V.V.V.V.V.V.V.V.N.C.Z.V.V.V.S.0 P y.V.V.V.V.V.V.V.N.L.S $   ",
"      p M.V.V.V.V.V.V.V.V.V.V.p.w ! ;.V.V.V.V.V.V.V.V.V.V.V.D.D.t.K w Q V.V.V.V.V.V.V.V.V.B.A.~     ",
"      h 5.M.N.V.V.V.V.V.V.V.V.V.-.w w e N H ;.3.t.u.t.y.:.p.A 0 w w N V.V.V.V.V.V.V.M.V.N.M.5.j     ",
"      ; J C.e.B.M.M.M.M.M.B.B.M.M.t.! w w w w w w w w w w w w w e J M.M.N.M.M.B.M.B.M.B.e.C.J ;     ",
"      $ ~ M.e.e.B.M.m.M.m.M.m.m.M.M.M.;./ w w w w w w w w w 0 G n.M.M.M.M.5.M.M.m.m.n.e.e.M.~ +     ",
"        d :.M.q.e.B.M.m.m.m.m.m.m.m.m.m.m.e.>.G A B B D J t.m.m.m.m.m.n.M.C.M.m.m.B.e.q.M.:.d       ",
"        * ^ M.q.e.e.B.m.m.m.m.m.m.m.m.m.m.m.m.m.m.M.m.M.m.m.m.m.m.m.m.m.m.m.m.M.B.e.e.q.M.[ *       ",
"          f =.M.8.q.e.B.m.m.m.m.m.m.m.m.m.m.m.M.m.m.m.m.m.m.m.m.m.m.m.m.m.m.m.m.n.e.8.M.=.s         ",
"          # y w.w.q.q.e.n.m.m.m.m.m.m.m.m.m.m.m.m.m.m.m.m.m.m.m.m.m.m.m.m.m.m.m.e.q.w.r.i +         ",
"            : B M.8.8.q.e.e.n.m.m.m.m.m.m.m.m.m.m.m.m.m.m.m.m.m.m.m.m.m.m.M.m.e.q.8.m.G *           ",
"              > E M.6.8.q.e.e.e.n.m.m.m.m.m.m.m.m.m.m.m.m.m.m.m.m.n.n.n.n.e.q.8.<.r.*.g X           ",
"              o g *.M.6.8.q.q.e.e.e.n.n.n.m.m.m.m.m.m.m.m.m.n.n.e.e.e.q.q.8.6.<.w.,.z o             ",
"                + g *.M.8.6.8.q.q.e.e.e.e.e.n.n.n.n.n.n.n.e.e.e.e.q.q.8.8.6.<.r.2.z @               ",
"                  + f U m.w.6.8.8.q.e.e.e.e.e.e.e.e.e.e.e.e.q.q.q.8.8.6.<.9.r.R z @                 ",
"                    O , n 9.m.7.6.8.q.e.e.q.8.q.q.q.q.q.q.q.8.8.8.6.6.6.r.w.Z > +                   ",
"                        = e Y w.r.w.8.q.i.0.6.6.8.8.8.8.6.6.6.6.6.7.w.r.T u =                       ",
"                          $ : p R 9.M.r.9.6.<.6.6.6.6.6.6.6.7.w.r.9.T Q > @                         ",
"                              @ ; t Z T 1.9.w.w.w.w.w.w.r.9.7.&.C q ; *                             ",
"                                  # * s t Q D m M U W F V / t s * @                                 ",
"                                        # @ @ > f ; - - * @ +                                       "
};
