/* XPM */
static char *f56f599de2f74dd8beb9ae7b91a010f6yhJ38Xb8Hl157ppK[] = {
/* columns rows colors chars-per-pixel */
"50 50 132 2 ",
"   c None",
".  c #001731",
"X  c #031A33",
"o  c #081E37",
"O  c #0D233B",
"+  c #12273F",
"@  c #122840",
"#  c #1C3047",
"$  c #24374E",
"%  c #2A3D53",
"&  c #2D4055",
"*  c #314459",
"=  c #38495E",
"-  c #4B5B6E",
";  c #574C7D",
":  c #5B4B79",
">  c #6C496D",
",  c #754867",
"<  c #624A74",
"1  c #516173",
"2  c #5A6979",
"3  c #E43C1B",
"4  c #E83C18",
"5  c #CC3F2C",
"6  c #D73E23",
"7  c #DB3E21",
"8  c #D03F29",
"9  c #AF423F",
"0  c #BF4135",
"q  c #B4423C",
"w  c #E8411E",
"e  c #E54222",
"r  c #E94623",
"t  c #EA4927",
"y  c #EA4D2C",
"u  c #E54F31",
"i  c #EB5233",
"p  c #EB5738",
"a  c #EC5A3C",
"s  c #9C444C",
"d  c #A74345",
"f  c #A14349",
"g  c #EE6E53",
"h  c #EF7359",
"j  c #F18A75",
"k  c #F28D79",
"l  c #2F4F97",
"z  c #314F96",
"x  c #394E90",
"c  c #25509E",
"v  c #29509B",
"b  c #1F51A2",
"n  c #2354A3",
"m  c #2959A6",
"M  c #2E5CA8",
"N  c #315FA9",
"B  c #3562AB",
"V  c #3966AD",
"C  c #3D69AE",
"Z  c #404E8C",
"A  c #4E4C82",
"S  c #677484",
"D  c #6A7887",
"F  c #436DB1",
"G  c #4C74B5",
"H  c #577CB9",
"J  c #597EBA",
"K  c #778391",
"L  c #788492",
"P  c #7D8896",
"I  c #5E82BC",
"U  c #6487BF",
"Y  c #6D8EC2",
"T  c #7292C5",
"R  c #7D9AC9",
"E  c #8994A0",
"W  c #959FA9",
"Q  c #99A2AD",
"!  c #9EA6B0",
"~  c #ABB3BB",
"^  c #F39480",
"/  c #F49E8C",
"(  c #F5A897",
")  c #F5AB9B",
"_  c #F4A493",
"`  c #F6AFA0",
"'  c #F6B2A4",
"]  c #F7B8AA",
"[  c #F7BCB0",
"{  c #F8C6BC",
"}  c #829ECB",
"|  c #86A1CD",
" . c #8CA6CF",
".. c #8FA8D1",
"X. c #95ADD3",
"o. c #98AFD4",
"O. c #9CB2D6",
"+. c #B9BFC6",
"@. c #B5BCC4",
"#. c #A6BADA",
"$. c #ACBFDD",
"%. c #BAC0C7",
"&. c #B1C2DF",
"*. c #B7C7E1",
"=. c #BAC9E2",
"-. c #C1C6CD",
";. c #C4C9CF",
":. c #C6CBD1",
">. c #CDD1D7",
",. c #F9CAC1",
"<. c #FAD4CC",
"1. c #C2CFE6",
"2. c #C2D0E6",
"3. c #C7D4E8",
"4. c #CAD6E9",
"5. c #CDD9EB",
"6. c #DADEE2",
"7. c #D2DDED",
"8. c #DEE1E4",
"9. c #D9E2EF",
"0. c #DCE4F1",
"q. c #E1E3E6",
"w. c #E4E6E9",
"e. c #E0E7F2",
"r. c #E7ECF5",
"t. c #EAEEF5",
"y. c #EEF0F3",
"u. c #EFF3F8",
"i. c #F3F4F5",
"p. c #F4F6FA",
"a. c #F7F8FA",
"s. c #FEFEFF",
/* pixels */
"            4 4                           b b b b b b b b                                           ",
"            4 4                     b b b b b b b b b b b b b b                   4 4               ",
"            4 4                 b b b b b b b b b b b b b b b b b                 4 4 4             ",
"          4 4 r               b b b b b b b b b b b b b b b b b b b b             4 4 4             ",
"          i h ' )           b b b b b b b b b b b b b b b b b b b b b b           j r 4             ",
"          <.] g 4 r       b b b b b b b b b b b b b b b b b b b b b b b         y ' <._             ",
"          t 4 4 4 j (   b b b b b b b b b b b b b b b b b b b b b b b b b     ^ 4 4 a j             ",
"          4 4 4 y ,.u ; b b b b b b b b b b b b b b b b b b b b b b b b b z i <.p 4 4 4             ",
"            4 r { j q v b b b b b b b b b b b b b b b b b b b b b b b b b c 0 k ) 4 4 4             ",
"            g [ / e : b b b b b b b b b b b b b b b b b b b b b b b b b b b , r ] / w 4             ",
"              h 4 5 v b b b b b b b b b b b b b b b b b b b b b b b b b b b x 7 w ` <.              ",
"              4 4 s b b b b n F Y T J m b b b b b b b b b m J T Y C b b b b n 9 4 4                 ",
"                4 > b b b F 7.s.s.s.s.r.Y b b b b b b b T p.s.s.s.s.1.B b b b ; 4 4                 ",
"                  v b b B r.s.s.s.s.s.s.s.U b b b b b  .a.s.s.s.s.s.s.0.V b b v q                   ",
"                  b b b 5.s.s.s.;.D %.s.s.0.C b b b F p.s.s.a.L P i.s.s.#.b b b b                   ",
"                  b b G s.s.s.s.~ . X E s.s.o.b b n X.s.s.s.a.& . # >.s.a.M b b b                   ",
"                b b b } s.i.+.-.= . . @ y.s.4.n b N 3.s.6.:.Q O . . 2 s.s.H b b b b                 ",
"                b b b X.s.6.O . . . . . +.s.9.m b V 0.s.W X . . . . % a.s.Y b b b b b               ",
"              b b b b  .s.8.+ . . . . . :.s.7.n b B 7.s.! . . . . . * a.s.U b b b b b               ",
"          b b b b b b U s.a.- . . . . % a.s.&.b b m $.s.q.o . . . . K s.s.C b b b b b               ",
"          b b b b b b m r.s.w.1 . . % :.s.u.I b b b I a.s.~ $ . o S y.s.4.n b b b b                 ",
"            b b b b b b Y a.s.t.-.%.q.s.s.O.m b b b m =.s.s.6.@.:.p.s.p.I b b b b b b               ",
"            b b b b b b n } p.s.s.s.s.s.&.M b b b b b C &.s.s.s.s.s.r.T n b b b b b b               ",
"            b b b b b b b b V O.5.7.*.H b b b b b b b b b U =.7.5.o.B b b b b b b b b               ",
"          b b b b b b b n b b b b b b b b b b b b b b b b b b b b b m F b b b b b                   ",
"            b b b b b b 2.#.F n b b b b b b b b b b b b b b b N Y =.p.4.n b b b b                   ",
"                b b b b e.s.s.0.&.R H B n b b b m B G Y ..*.0.s.s.s.s.0.m b b b b b                 ",
"              b b b b b 0.s.s.s.r.s.s.s.s.p.a.a.s.s.s.s.s.s.y.2.s.s.s.7.m b b b b b b b             ",
"            b b b b b b $.s.s.p.T s.s.s.s.5.s.s.s.p.7.s.s.s.9.G 2.s.a.| b b b b b b b b b           ",
"          b b b b b b b V =.7.R b 4.s.s.0.U p.s.s.7.I r.s.s...b B | T m b b b b b     b b b         ",
"        b b b   b b b b b n n b b B R | B n Y 7.5.G b C Y H m b b b b b b b b b b       b b b       ",
"        b b     b b b b b b b b b b b b b b b m n b b b b b b b b b b b b b b b b         b b       ",
"      b b b     b b b b b b b b b b b b b b b b b b b b b b b b b b b b b b b b b         b b b b   ",
"      b b       b b b b b b b b b b b b b b b b b b b b b b b b b b b b b b b b b   b b b b b b b b ",
"      b b b b b b b b b b b b b b b b b b b b b b b b b b b b b b b b b b b b b b   b b b b b b b b ",
"  b b b b b b b b b b b b b b b b b b b b b b b b b b b b b b b b b b b b b b b b   b b b b b b b b ",
"b b b b b b b b b b b b b b b b b b b b b b b b b b b b b b b b b b b b b b b b b   b b b b b b     ",
"b b b b b b b   b b b b b b b b b b b b b b b b b b b b b b b b b b b b b b b b b       b b b b     ",
"b b b b b b b   b b b b b b b b b b b b b b b b b b b b b b b b b b b b b b b b b         b b b     ",
"  b   b b b b   b b b b b b b b b b b b b b b b b b b b b b b b b b b b b b b b b           b       ",
"        b b     b b b b b b b b b b b b b b b b b b b b b b b b b b b b b b b b b b                 ",
"                b b b b b b b b b b b b b b b b b b b b b b b b b b b b b b b b b b                 ",
"                b b b b b b b b b b b b b b b b b b b b b b b b b b b b b b b b b b                 ",
"                b b b b b b b b b b b b b b b b b b b b b b b b b b b b b b b b b b                 ",
"                b b b b b b b b b b b b b b b b b b b b b b b b b b b b b b b b b v                 ",
"              6 , b b b b b b b b b b b b b b b b b b b b b b b b b b b b b b b n d 7 4             ",
"            4 4 3 A b b b b b b b b b b b                     b b b b b b b b b Z 4 4 4 4           ",
"          4 4 4 4 f n b b b b b b b b b b                     b b b b b b b b b < 4 4 4 4           ",
"          4 4 4 4 8 l b b b b b b b b b b                     b b b b b b b b b > 4 4 4 4 4         ",
"        4 4 4 4 4 5 l b b b b b b b b b b                         b b b b b b b                     "
};
