/* XPM */
static char *_f060ccd3e024949c45ffa86288a31ef0wVfPxNaspecGWH9[] = {
/* columns rows colors chars-per-pixel */
"50 50 236 2 ",
"   c None",
".  c #2E6C35",
"X  c #346F35",
"o  c #347235",
"O  c #3A7635",
"+  c #377835",
"@  c #3E5C32",
"#  c #7B4329",
"$  c #71512C",
"%  c #6E532C",
"&  c #437C34",
"*  c #487B36",
"=  c #536F35",
"-  c #7C782E",
";  c #667A34",
":  c #706F31",
">  c #515A30",
",  c #AC3B1D",
"<  c #8B3D26",
"1  c #983824",
"2  c #A33A24",
"3  c #B43121",
"4  c #CC241C",
"5  c #CC2C1A",
"6  c #C4261D",
"7  c #D32C19",
"8  c #D62F17",
"9  c #C73419",
"0  c #D73116",
"q  c #D23618",
"w  c #9E5C1F",
"e  c #AB481E",
"r  c #B84B1C",
"t  c #B9541B",
"y  c #AB531D",
"u  c #AB611F",
"i  c #9E4A22",
"p  c #995824",
"a  c #A24724",
"s  c #A45421",
"d  c #BE5F2A",
"f  c #956824",
"g  c #8A7728",
"h  c #8D742B",
"j  c #BC622C",
"k  c #BC673A",
"l  c #BE693B",
"z  c #BE6731",
"x  c #AE7230",
"c  c #C7471A",
"v  c #CE561B",
"b  c #CC591B",
"n  c #C5561B",
"m  c #D15C1A",
"M  c #D76B15",
"N  c #DE6A15",
"B  c #D3621A",
"V  c #D6691B",
"C  c #D86D1A",
"Z  c #DA6514",
"A  c #D97313",
"S  c #DD791D",
"D  c #DB751A",
"F  c #D36E16",
"G  c #E06E16",
"H  c #E06F18",
"J  c #E17215",
"K  c #E47B14",
"L  c #E17319",
"P  c #E37B1C",
"I  c #C55C24",
"U  c #C05F28",
"Y  c #C75620",
"T  c #C1692E",
"R  c #C96429",
"E  c #D46D23",
"W  c #D56828",
"Q  c #CB742E",
"!  c #C6732F",
"~  c #DD7D23",
"^  c #D67726",
"/  c #C46C31",
"(  c #C46B38",
")  c #C77232",
"_  c #CB7A33",
"`  c #C87738",
"'  c #D57738",
"]  c #D46C32",
"[  c #E07C28",
"{  c #C37241",
"}  c #CA7A44",
"|  c #4D8334",
" . c #438435",
".. c #538534",
"X. c #558933",
"o. c #5C8D32",
"O. c #598638",
"+. c #459238",
"@. c #4B9437",
"#. c #5A9A34",
"$. c #76862C",
"%. c #78952C",
"&. c #768434",
"*. c #689832",
"=. c #719831",
"-. c #69942E",
";. c #75A92E",
":. c #7BAC2C",
">. c #75A52E",
",. c #7CB22B",
"<. c #6BA331",
"1. c #66A032",
"2. c #73A531",
"3. c #79A832",
"4. c #6FA72F",
"5. c #798E40",
"6. c #A9A11E",
"7. c #889628",
"8. c #8F8F32",
"9. c #A88838",
"0. c #81A22A",
"q. c #81AD2B",
"w. c #89A92B",
"e. c #8DB627",
"r. c #84B12A",
"t. c #8AB329",
"y. c #8AAA35",
"u. c #98A535",
"i. c #94B52A",
"p. c #A7A738",
"a. c #B8A237",
"s. c #A8B33D",
"d. c #938A1E",
"f. c #D98B1B",
"g. c #D9910C",
"h. c #E49A0B",
"j. c #E68413",
"k. c #EA8C13",
"l. c #E7841A",
"z. c #EC9012",
"x. c #EC941B",
"c. c #E99B18",
"v. c #F09E14",
"b. c #EAA608",
"n. c #F2B705",
"m. c #EAA816",
"M. c #F1A316",
"N. c #F4AC17",
"B. c #EFB41A",
"V. c #F5B117",
"C. c #F5B21B",
"Z. c #F2BB17",
"A. c #EFB20A",
"S. c #D18337",
"D. c #D98C3B",
"F. c #D78737",
"G. c #CB9539",
"H. c #DC923C",
"J. c #D89639",
"K. c #D68E33",
"L. c #E48523",
"P. c #E58925",
"I. c #E38B2C",
"U. c #E0852A",
"Y. c #E69827",
"T. c #E28D33",
"R. c #E38534",
"E. c #ED9E3D",
"W. c #E7973A",
"Q. c #F09F20",
"!. c #D8A03B",
"~. c #CCA13A",
"^. c #E7A626",
"/. c #EDB323",
"(. c #F5B526",
"). c #F3B92A",
"_. c #E8A13A",
"`. c #EBB739",
"'. c #F4B839",
"]. c #F0A434",
"[. c #DBA010",
"{. c #F8C80A",
"}. c #FCD60F",
"|. c #F7CA1A",
" X c #FBD414",
".X c #FAD21A",
"XX c #FDDC1B",
"oX c #FCD913",
"OX c #F7CA25",
"+X c #F8CE24",
"@X c #F5C626",
"#X c #F9D02A",
"$X c #FBD826",
"%X c #F4C433",
"&X c #F4C83D",
"*X c #E8C53A",
"=X c #FEE42B",
"-X c #FDE125",
";X c #FEE631",
":X c #8A9345",
">X c #999A47",
",X c #97AA42",
"<X c #A8A846",
"1X c #ADB141",
"2X c #BAB444",
"3X c #BAAB50",
"4X c #A09147",
"5X c #CF834E",
"6X c #D58847",
"7X c #DD9744",
"8X c #D38A53",
"9X c #D99359",
"0X c #E69C46",
"qX c #CCB64C",
"wX c #CFB04E",
"eX c #E6A244",
"rX c #EBAC4D",
"tX c #E9A547",
"yX c #F1A946",
"uX c #F2BB47",
"iX c #EBB453",
"pX c #F4BB55",
"aX c #F6BE59",
"sX c #F3B554",
"dX c #EDB44B",
"fX c #DE9C61",
"gX c #C8AB61",
"hX c #E7AA6C",
"jX c #E3A467",
"kX c #E8B476",
"lX c #ECB96F",
"zX c #DBC344",
"xX c #EECB43",
"cX c #F6C167",
"vX c #EFBF83",
"bX c #F2C687",
/* pixels */
"                                        j j j } j j d j j j j                                       ",
"                                  j ` / / R W m B W m W ' b I U j j                                 ",
"                            z z ` ) ^ ~ S S S A D S A M M B m b b I U j                             ",
"                        j z ` H.P.x.Q.Q.z.].z.k.k.j.P A A ~ S M B b ] I d j                         ",
"                    j } ) 7XW.z.].z.x.z.z.z.z.x.z.z.Y.k.K A A A A M m v b U j                       ",
"                  j T S.W.Y.Q.v.v.z.Q.].k.z.z.z.z.z.z.z.z.k.K A A A M m v v U j                     ",
"                j ` 7XpX(.V.V.V.).C.V.N.].z.z.z.z.z.z.z.z.z.z.j.A A A M m v v U j                   ",
"            j T S.rXpX(.V.V.V.V.C.C.V.V.V.N.M.z.z.z.z.z.z.z.z.z.k.U.A A M b v v j j                 ",
"            T S.iXaX'.C.V.V.V.V.V.V.V.V.V.V.N.v.z.z.x.z.z.z.z.z.z.Y.A A A B v v I j j               ",
"          T F.rXaXuXC.C.V.V.V.V.V.V.V.V.V.V.V.V.M.z.x.z.z.z.z.z.z.z.k.A A M v v v U j               ",
"        z F.rXaXuXC.C.(.V.V.V.V.V.V.C.C.V.V.V.V.V.v.z.z.z.z.z.z.z.z.z.j.A A m v v Y j j             ",
"      j ) eXpXaX).C.C.V.V.V.V.V.V.V.(.C.V.V.V.V.V.N.z.z.z.z.z.z.z.z.z.k.A A m v v v j j             ",
"      / H.rXaXuXV.V.C.V.V.V.V.V.V.V.V.V.V.V.V.V.V.V.v.z.z.z.z.z.z.z.z.z.j.M v v v v R Q             ",
"    j S.eXiXaX(.V.(.(.V.V.V.V.V.V.V.V.V.V.V.V.V.V.V.N.z.z.z.z.z.z.z.z.k.K m v v v m Q Q             ",
"    / H.tXpXpXC.V.C.C.V.V.V.V.V.V.V.V.V.V.V.V.V.V.V.N.z.z.z.z.z.z.z.k.K N B v v m E Q Q             ",
"  j _ 0XrXaX'.V.V.V.V.V.V.V.V.V.V.V.V.V.V.V.V.V.V.V.M.z.z.z.z.k.j.K G N N Z m B E Q ^ h.            ",
"  j S.eXrXaX'.V.V.V.V.V.V.V.V.V.V.V.V.V.V.V.V.V.N.M.z.z.k.k.j.J N N N N J P E E Q f.b.h.            ",
"  T S.eXiXaX).V.V.V.V.V.V.V.V.V.V.V.V.V.V.V.V.N.v.z.z.k.K J N N N N N L L.L.^ Q f.b.b.b.            ",
"j / F.eXiXaX(.V.V.V.V.V.V.V.V.V.V.V.V.V.V.N.v.k.j.K G N N N N N L P L.L.I.F.f.h.b.b.n.n.b.          ",
"j ) S.eXrXaX(.V.V.V.V.V.V.V.V.V.V.V.M.c.j.K J N N N N N N L P L.L.P.I.J.^.B.@X|.{.{.{.n.b.          ",
"j ) _ 0XtXsX(.V.V.V.V.V.V.N.M.v.k.K N N N N N N N N G P L.L.L.P.T.J.^.|.#X#X+X X}.XX=X.XA.          ",
"j ) _ S.H.7XY.c.c.z.k.j.K J J N N N N N N N H L P l.L.P.P.I.T.^./.@X+X#X+X.X XXX=X=X;X$Xn.          ",
"j ) _ _ _ _ E N N N N N N N N N N G L P P l.L.P.P.I.I.Y.^./.@XOX#X+X.X.XXXXX=X-XXXXX-X=Xn.          ",
"Q _ _ _ _ _ ) E N N N N N L P l.l.L.L.L.P.I.T.H.T.^./.@X+X#X+X+X.X X}.XX=X=XXX.XOXOXOX.XA.$.& X     ",
"Q _ H.H.D.D.D.D.F.F.I.I.I.I.I.I.I.T.H.H.T.Y.^.Z.@X+X#X#X+X.X X}.oXXX=X;X=XXX.X%XzXxX&X).[.-.X.&     ",
"  Q H.H.H.H.H.H.H.H.H.H.H.H.J.Y.Y.^./.).&XxXuX`.uXxX%X|.}.}.XX-X=X;X;X;X-X Xb.6.*.*.y.G.: & | +     ",
"      c.c.Y.Y.Y.Y.Y.c.m.m.m.B.%X&XuXtXS.R v v v B ~ uX%X.XXX;X;X;X;X;X;XXX{.h.w.2.%.x 5 > + + X     ",
"    m./.B.m.m.B.B.).%X'.`.`.J.Q R b v v m B V C C C D _.%X+X;X;X;X;X;X;XXXn.g.w e c 7 < O & | &     ",
"      z S.J.J.J.J.S.! R R b b m m V V C C C C C C V B n _ *X#X$X;X=X=X;X XA.A 5 7 6 # O + | o.o...o ",
"    1 r b n c n b v B ~ ~ L.L.S C C C C C C C B n e i g 7.i.xXOX$X;X;X=X}.b.Z 7 3 > + + + | o.o.o.+ ",
"    2 b ~ L.D L.L.D L.L.L.L.L.~ C C V V b t e p h 7.:.;.<.<.0.zX@X+X$X.XZ.h.r $ + + + + o + X.o.o.o ",
"    1 b L.L.S L.L.S L.L.L.L.~ V b r e p h 7.0.u c q 9 , e y t Y W.&X%X%Xm.d.+ + + + + X = : : = o . ",
"    $.i n V B V C m B B n r s f g 7.q.,.,.0.r 2 7 7 7 7 7 7 4 6 2 f <Xp.%.o + ; ; & ..; R R k k     ",
"    :.d.p a y s s s p f g 7.%.:.:.:.:.:.0.u 5 @ # < 1 1 < # % &.8.=.-.*.#.+ | 8.G.| o.- R T k k     ",
"      c t t y g 0.q.:.:.,.,.,.3.g p f f r 5 < . . . . o o X & u.tXa.;.4.<.X.....J.8.| ; R ( k       ",
"      4 5 q q 9 s g f s f 0.>.t 7 8 0 5 3 $ . o o + + + + o #.u.E.!.:.;.;.2.9.&.J.E.9.x R k k       ",
"        7 4 4 4 4 4 4 4 6 f d.0 0 7 4 i ; +.+ + + + + + + o *.w.E.~.t.u.2.:.u.E.E.E.R.W R k k       ",
"    @.; 5 0 0 0 0 0 0 0 0 5 9 4 3 p $.1.<.#.@.+ o * :X:X& & | q.a.!.p.!.w.e.y.E.E.E.[ W k k         ",
"  +.<.<.- a 6 4 4 4 6 3 2 p h =.<.2.;.:.:.;.:. .<XaXaXaX>XX...o.a.E.E.~.r.e.u.E.E.T.W ( k k         ",
"  +.2.;.2.=.$.g - - - $.%.=.2.;.;.;.:.:.:.:.t.#.>XpXaXaX<XX.X.&.W.E.E.~.r.t.a.E.W.^ / k k           ",
"  +.4.:.:.;.2.gX2.q.;.:.r.r.3.1X2X1X:.t.:.;.t.;...>XaXaXwX..* 9.E.E.E._.p.a.E.W.' ( k k             ",
"  +.:.e.r.:.,XhXy.e.r.:.e.e.1XaXaXaXs.e.t.1Xy.<.| 5.aXaXaXwXG.E.E.E.E.E.E.E.T.] k k k               ",
"  +.r.e.r.t.<XhX,Xe.r.:.e.e.2XaXaXaX2Xe.t.qXqX,X:XwXaXaXpXyXE.E.E.E.E.E.E.R.) k k k                 ",
"  #.e.e.;.t.3XhXgXq.,Xy.t.e.s.aXaXaXqXr.t.iXaXaXaXaXaXsXtXE.E.E.E.E.E.F.( k k k                     ",
"  #.e.:.#.;.3XhXhXkXbXlXs.y.qXaXaXaXpX2XqXaXaXaXaXsXyXE.E.E.E.E.W.' ( k k                           ",
"  #.;.    o.4XhXhXhXbXbXcXaXaXaXaXaXaXaXaXaXaXsXyXE.E.E.E.W.D.} l k k                               ",
"          x l 9XhXhXkXbXbXcXaXaXaXaXaXpXsXyXyX_.0X0X0X6X} ` l k k                                   ",
"            k l 5XfXjXhXkXvXlXlXsXrXrXtX0X0X0X6X5X} ( l k                                           ",
"              k k l } 5X5X8X8X9X9X9X8X8X5X} { l k k                                                 ",
"                  k k k l ( { { { { ( l k k                                                         "
};
