/* XPM */
static char *grunge_texture_metallique_rivets1710889302[] = {
/* columns rows colors chars-per-pixel */
"50 50 110 2 ",
"   c #585858",
".  c #4B4B4B",
"X  c gray34",
"o  c #5B5B5B",
"O  c #646464",
"+  c #606060",
"@  c #565656",
"#  c #5D5D5D",
"$  c #484848",
"%  c gray30",
"&  c gray32",
"*  c gray35",
"=  c #555555",
"-  c gray36",
";  c #6A6A6A",
":  c gray27",
">  c #515151",
",  c #5F5F5F",
"<  c DimGray",
"1  c gray39",
"2  c #4C4C4C",
"3  c #656565",
"4  c #5A5A5A",
"5  c #626262",
"6  c gray37",
"7  c gray26",
"8  c gray31",
"9  c #6C6C6C",
"0  c gray40",
"q  c #505050",
"w  c gray29",
"e  c #494949",
"r  c #434343",
"t  c #3C3C3C",
"y  c #444444",
"u  c gray28",
"i  c #3A3A3A",
"p  c #464646",
"a  c gray16",
"s  c #535353",
"d  c gray20",
"f  c #373737",
"g  c #282828",
"h  c gray21",
"j  c #393939",
"k  c gray22",
"l  c #323232",
"z  c #2C2C2C",
"x  c #4E4E4E",
"c  c #2F2F2F",
"v  c gray33",
"b  c gray19",
"n  c #222222",
"m  c #2D2D2D",
"M  c gray14",
"N  c gray15",
"B  c #252525",
"V  c #2A2A2A",
"C  c #272727",
"Z  c gray17",
"A  c #1E1E1E",
"S  c gray13",
"D  c #232323",
"F  c gray18",
"G  c gray7",
"H  c #101010",
"J  c gray2",
"K  c gray3",
"L  c gray4",
"P  c gray5",
"I  c gray6",
"U  c #111111",
"Y  c #131313",
"T  c gray8",
"R  c #060606",
"E  c gray1",
"W  c #070707",
"Q  c #090909",
"!  c #0B0B0B",
"~  c #040404",
"^  c #151515",
"/  c #0C0C0C",
"(  c gray9",
")  c #1B1B1B",
"_  c #202020",
"`  c #313131",
"'  c gray12",
"]  c #191919",
"[  c gray11",
"{  c #343434",
"}  c #161616",
"|  c gray25",
" . c #181818",
".. c #3E3E3E",
"X. c gray23",
"o. c #1D1D1D",
"O. c #414141",
"+. c gray24",
"@. c gray10",
"#. c #353535",
"$. c #3F3F3F",
"%. c #0E0E0E",
"&. c gray38",
"*. c #676767",
"=. c #686868",
"-. c gray42",
";. c gray43",
":. c #6D6D6D",
">. c gray46",
",. c #6F6F6F",
/* pixels */
"  . X o o O + @ # + o o O $ % & & * @ & = + o - ;   : > o , < o & 1 O # O 1 2 2 # 3 - 4 *   5 # 4 X ",
"6 7 8 8 o 4 > $ 9 0 q $ < w e r - - w t , 0 y u 0 o i y * 4 w w & 9 = % 6 1 u 8 2 o p > : 4 , 8 e o ",
"- : a $ s # d q 5 + f X 0 8 g h = 6 j t s & j k # 4 l z p x p c v # q b O ; : n 7 e u m 2 = & b p X ",
"a M N N N m l m m z c b m N n B N M V N g B C Z g B A n S D a a C a V z F V D S D n D a V C C g V V ",
"G G H J J K L P I I U H H H H Y T Y T U R E J W Q L ! Q ~ ~ P ^ T Y ^ U U H U U I I P L W ~ R U G G ",
"d z m / P ( ) _ D N Z m z B g ` c ' F ( K H ( ( ] _ S A T Q P Z [ g { Z B a c z C M n ] T ! I g S Z ",
": b j } Y _ Z l d f t y t | y y q j _ P  .B m V F ..X.l Z o.I T { $ 2 7 O.t 7 O.h h b V o.I ( z h y ",
"% k % ( } g f w $ t ..u 2 # & +.& Z I o.Z { j j | % > $ y d M G @.e y w , s w | +.y p X.M G  .O...& ",
", ; 4 ] ^ C ..x = r O.u * o % #.C I S l k h X.j : v o & u : t Z G } X.$.- o . 7 $.& x O.B G ] p @ 5 ",
"5 < * ] T C +.e   q | y > > 2 F H A b | i ..| t $.x q q x q p k S I [ p 8 s $ O.w X 2 +.M U ] r w 6 ",
"  k w @.} F | 2 v x 4 > j b S %.' F k ..+.| r X.| 7 p . $ 2 % O.c B Y T i m $ - 8 & % $.z Y  .V $ 2 ",
"  j o ) @.#.. 8 &.+ 0 O % D %.[ a { ..| O.$ e p O.7 : $ O.p q 7 ..#.N U ( ..&.*.6 O s p d (  .| 7 e ",
"3 9 # ] o.i : 2 # o ..8 g H ' a b j | 2 8 x u 7 y = . O.$.$.$ 2 e 7 f D Y ( q h & + 8 $.l ) o.&.3 5 ",
"e & w } ] b p 8 * &.r m H ' { ..u w 2 x 4 & e : q v q . $ 2 & s   8 u ` F ^ ' ..* + % y z } ' O + =.",
"w f #.Y ] l % > X.q N %.n i e w e s q #   X | | . X x . . @ o =.s > $ d k V T ( w O.. . ` } ' $.$.X ",
"8 { j ^ @.#.e s j z I [ ` . x 8 w & x o   v y r r X X & 8 X   o v v u $.X.j c ( [ t y w c ( o.8 e &.",
"@ * 8 ^  .b y & N G n z X.. s * v 8 2 q e > y 7 O.e q * * % & q 2 = 2 e : O.+.d (  .u : Z ^ o.@ -.< ",
"  , 8 T } D g V Y Z X.| w @ + ; O @ = - 5 o % r p > - =.# q & s * 4 = . 2 q q x F ( ) c [ U ) v = v ",
"@ f e  ._ ` [ Y g O.% 2 s *.1 + ;.o @ O 1   6 % v =.5 6 1     + = v   . v 0 * * : F ( G B @.o.+.| s ",
"x b y T [ A H C { p v & - 0 9 *.:.&.# 3 o v - 8   0 9 # O o 5 1 , o , 8 # < =.O &.r d ( H } [ $ O.O ",
"o   % ( P ! B t | p % . = =.9 3 o # + 1 v 2 > e X + 3 &.s @ + O @ @ > 2 - :.>.=.6 * 8 l P W  .2 * - ",
"O + e T R ( d u p e 2 $ % X &.o - 4     $ e 8 r $ 8 &.v = X & @ u q x $ = + O 3 5 1 * +. .R } y v * ",
"X i u Y / M ..w u 8 8 $ w 8 & q & & & s u $ % y p e @ % s % . . y 2 % y . x s 4 * , X 7 S / ( f k s ",
"X j O.} I g y 2 x   * v 2 v & q . 2 x 8 q & q w r e x e e e w $ 2 s @ s x s = @ q v v y V G ^ { h y ",
"; &.= T Y Z r * 6 6 * > 8 6 s w : u 8 *   = = 2 2 X q w . u % v 4 & 4 > X 1 4 s & & X v f } ] v * @ ",
"* , & Y ^ c w # 1 -   > 4 + 6 > > & X # # = > e &   6 > o & X X #   X x # + 3 - o o + X X.( ) 4 3 *.",
"r ` i H G Z % 0 3 , w e > 6 o @ 8 s X + - # : O.w = v * = v = , * X e y s + # - 4 6 5 - { T o.: | - ",
"8 l #.G / n +.& &.* 2 p u 4 4 X 2 % q s s @ : O.p > * s . e 2 q q 2 r O.e * &.+ @ @ s e a %.@...O.@ ",
"- x 7 U W ( c O.2 q 2 : r 8 s @ = . 2 w 2 & e 7 y : x > % y $ y r % u r e s + 5 - % p l ( R ] x 1 O ",
"4 = p Y W / N j 8 * @ w $ v 6 1 &.q s @ - * @ y u q * 6 = w 2 w s * > y $ @ + ,.# 2 | g %.K o.q 6 * ",
"O y x T } U G Z k p q p 2 3 5 # 1 @ v o @ v * y e 0 # X * x x > . % & $ 2 6 O + @ | m T Y  .@.p h 8 ",
"v X.+.( [ `  .T C h p y x 1 O &., @ s v x w . y w = 6 X o > w . u $ 2 u > &., X u ` } } B ] A | 7 s ",
"& % % } @.S j S U ' ` i p * 6 * . q = s $ O.u $.$ * o 8 . @ s x | O.u $ %   s ..V ^ _ l ' U ] * - o ",
"O 0 s  .@.F e e [ H D ` i $ > s . % % . 7 $.y t ..2 > w w > 2 . $.| % r $.: X.z T A x $ z ^ @.& - v ",
"*.v > (  .` v 7 j M U _ F X.7 u p x $ r | | O.j +.% 2 . w 8 e : $.| p j #.c n G D X.$.e b ( @...$.> ",
"= k O.]  .f v 8 x X ] U D { X.O...8 $ 7 u e $ p : w e y O.$.| $.O.p y ..F B Y o.% u . e b ^ ] F p % ",
"O = - ]  .{ x o O q l o.U C d #.i : % . > e w O.| x | X.j j $.$ y : $.b n G B X.  &.2 y m ( @.w u p ",
"O *.- ( ( d | $ % p l 7 ] Y Z d X.w > 2 * 8 e O.. q $ O.7 7 $ $ 8 ..d n U [ = +.v &.q $.d ) ' + < &.",
"q 2 p T  .l $ ..y q o v w n G n m | e s X q X.h r w r y : w 2 & y f A %.o.+., =.6 5 & p l } S + $ 6 ",
". ..c Y @.l t | r & + 6 h r [ G n c X.e . p #.d k w p p 7 r p | l B I ] t ` p   2 > % ..z G S : y @ ",
"4 ..$.T } V j ..8 2 @ , . - & D G ' F j ..y i { d +.r r y | j m o.U D 2 & X $ 7 e X 2 ..D H ' # # &.",
"5 = r T T g +.w @ o 8 q @ 9 : $._ U D l y u r #.f r $ w $ i { M G [ i ..6 4 . 7 $.q x O.N G ' # ;., ",
"q 7 ..G U a X.w q s u $ s + x q = [ I D z #.X.l k r 7 t r c n H S % u e o q e O.X.7 r k M G o.> r x ",
"O.V c H I A Z l i i +.j O.w $ w O.B G %. ._ a a F k h c a o.P  .b y . | ..t 7 | h #.c a o.H @.` k O.",
"C ] D ! K U  .o.[ A D D M B N C '  .o./ W P U T ] A ) ^ P K %.Z [ B c C n B V g M S ' } G L I V D c ",
"I I %.J J K / / / / / %.I I P P %.I %./ J ~ R W K L Q W ~ J / U U U U I I %.%.%.P P / Q W J R %.I I ",
"f ` ` { #.$.O...+.+.$.7 +.l m b #.{ f #.f { #.j k { V m F ` j h #.k k j $.X.F V F c ` h j k h { j k ",
"6 | n e =   g % *., a s -.% n #.@ + m h @ @ c { 6 o V C $ > t g X &.w C 3 9 7 ' r . : M $ @ > C y 4 ",
"* : 8 = o 6 > x -.O > > 3 u . w # o x 7 , =.w x 3   $.$ 4 o > w = 9 * x 1 + $ x @ - . & 2 # &.& > o ",
"  2 # , # O O X - 5 6 o 5 $ 8 s q o @ v v 6 + 6 *.X : > 4 5 *., = 1 *.1 &.+ 2 8 &.0 6 6 4 * &.&., = "
};
