/* XPM */
static char *_758f5febbd345be9b8c59873b6d8e6e1yjMx1zyzqv9uNsV[] = {
/* columns rows colors chars-per-pixel */
"50 50 73 1 ",
"  c #F05A29",
". c #703B2A",
"X c #322D29",
"o c #F98800",
"O c #F88602",
"+ c #F77D0A",
"@ c #F36C19",
"# c #F05D27",
"$ c #312C2A",
"% c #744C1B",
"& c #F88206",
"* c #F57511",
"= c #F2671D",
"- c #501E0E",
"; c black",
": c #F98701",
"> c #F16222",
", c #532D00",
"< c #653120",
"1 c #1B0A05",
"2 c #532C01",
"3 c #522706",
"4 c #501F0C",
"5 c #1C0F00",
"6 c #522B02",
"7 c #51220A",
"8 c #211F1B",
"9 c #211D1C",
"0 c #A03C1B",
"q c #A65B00",
"w c #F88304",
"e c #F46D18",
"r c #F26321",
"t c #F05B28",
"y c #F67C0B",
"u c #F36A1B",
"i c #F15E25",
"p c #F57610",
"a c #F77F08",
"s c #F47114",
"d c #F15F24",
"f c #F88403",
"g c #F6790D",
"h c #B06409",
"j c #A55802",
"k c #A24910",
"l c #6B2812",
"z c #6F3C00",
"x c #A45307",
"c c #A14116",
"v c #351409",
"b c #371E00",
"n c #AB4625",
"m c #201E1B",
"M c #211E1B",
"N c #F67D0A",
"B c #F36E17",
"V c #F16123",
"C c #F78107",
"Z c #F2661E",
"A c #201D1B",
"S c #201D1C",
"D c #B16509",
"F c #A55604",
"G c #A14414",
"H c #A34E0B",
"J c #A03F19",
"K c #F2661F",
"L c #1F1D1B",
"P c #694212",
"I c #522A03",
"U c #50210B",
"Y c #512508",
/* pixels */
"     .XooO+@#     $%oo&*=     .XooO+@#     $%oo&*=",
"     -;:&*>       ;,O+@#      -;:&*>       ;,O+@# ",
"<----1;234--------;567--------1;234--------;567--<",
"8;;;;;;;;;;;;;;;;;;;;;;;;;;;;;;;;;;;;;;;;;;;;;;;;9",
"ooooooo:&*>0;qooooooO+@#-,oooooo:&*>0;qooooooO+@# ",
"oooooowert 0;qooooOyui  -,ooooowert 0;qooooOyui   ",
"ooooOpu#   0;qooowert   -,oooOpu#   0;qooowert    ",
"o:asd      0;qfg=#      -,:asd      0;qfg=#       ",
"hjk00000000l;zxc00000000vbjk00000000l;zxc00000000n",
"m;;;;;;;;;;;;;;;;;;;;;;;;;;;;;;;;;;;;;;;;;;;;;;;;M",
"oooN>-;oooooooofBi;,ooooooooN>-;oooooooofBi;,ooooo",
"&g=  -;oooooOasd  ;,ooooo&g=  -;oooooOasd  ;,ooooo",
"r#   -;ooooyuV    ;,ooowpr#   -;ooooyuV    ;,ooowp",
"     -;oowsrt     ;,ooyuV     -;oowsrt     ;,ooyuV",
"     -;f*i        ;,CZ        -;f*i        ;,CZ   ",
"A;;;;;;;;;;;;;;;;;;;;;;;;;;;;;;;;;;;;;;;;;;;;;;;;S",
"DqqqqqqqqFGl;zqqqqqqqqHJvbqqqqqqqqFGl;zqqqqqqqqHJn",
"oooooooOyui0;qoooooowsrt-,ooooooOyui0;qoooooowsrt ",
"oooo:a*d   0;qoooOg@#   -,ooo:a*d   0;qoooOg@#    ",
"ooofg=#    0;qo:a*d     -,oofg=#    0;qo:a*d      ",
"oOpK#      0;qCeVt      -,OpK#      0;qCeVt       ",
"L;;;;;;;;;;;;;;;;;;;;;;;;;;;;;;;;;;;;;;;;;;;;;;;;S",
"P,,IU1;,,,,,,,,2Y4;5,,,,,,,,IU1;,,,,,,,,2Y4;5,,,,P",
"oOpK#-;oooooooCeVt;,ooooooOpK#-;oooooooCeVt;,ooooo",
"yeV  -;ooooowpK#  ;,oooooyeV  -;ooooowpK#  ;,ooooo",
"     -;ooO+@#     ;,oo&*=     -;ooO+@#     ;,oo&*=",
"     -;:&*>       ;,O+@#      -;:&*>       ;,O+@# ",
"<----1;234--------;567--------1;234--------;567--<",
"8;;;;;;;;;;;;;;;;;;;;;;;;;;;;;;;;;;;;;;;;;;;;;;;;9",
"ooooooo:&*>0;qooooooO+@#-,oooooo:&*>0;qooooooO+@# ",
"oooooowert 0;qooooOyui  -,ooooowert 0;qooooOyui   ",
"ooooOpu#   0;qooowert   -,oooOpu#   0;qooowert    ",
"o:asd      0;qfg=#      -,:asd      0;qfg=#       ",
"hjk00000000l;zxc00000000vbjk00000000l;zxc00000000n",
"m;;;;;;;;;;;;;;;;;;;;;;;;;;;;;;;;;;;;;;;;;;;;;;;;M",
"oooN>-;oooooooofBi;,ooooooooN>-;oooooooofBi;,ooooo",
"&g=  -;oooooOasd  ;,ooooo&g=  -;oooooOasd  ;,ooooo",
"r#   -;ooooyuV    ;,ooowpr#   -;ooooyuV    ;,ooowp",
"     -;oowsrt     ;,ooyuV     -;oowsrt     ;,ooyuV",
"     -;f*i        ;,CZ        -;f*i        ;,CZ   ",
"A;;;;;;;;;;;;;;;;;;;;;;;;;;;;;;;;;;;;;;;;;;;;;;;;S",
"DqqqqqqqqFGl;zqqqqqqqqHJvbqqqqqqqqFGl;zqqqqqqqqHJn",
"oooooooOyui0;qoooooowsrt-,ooooooOyui0;qoooooowsrt ",
"oooo:a*d   0;qoooOg@#   -,ooo:a*d   0;qoooOg@#    ",
"ooofg=#    0;qo:a*d     -,oofg=#    0;qo:a*d      ",
"oOpK#      0;qCeVt      -,OpK#      0;qCeVt       ",
"L;;;;;;;;;;;;;;;;;;;;;;;;;;;;;;;;;;;;;;;;;;;;;;;;S",
"P,,IU1;,,,,,,,,2Y4;5,,,,,,,,IU1;,,,,,,,,2Y4;5,,,,P",
"oOpK#-;oooooooCeVt;,ooooooOpK#-;oooooooCeVt;,ooooo",
"yeV  <MooooowpK#  SPoooooyeV  <MooooowpK#  SPooooo"
};
